M48
; DRILL file {KiCad 5.1.9+dfsg1-1} date Tue May 25 15:45:48 2021
; FORMAT={-:-/ absolute / inch / decimal}
; #@! TF.CreationDate,2021-05-25T15:45:48+02:00
; #@! TF.GenerationSoftware,Kicad,Pcbnew,5.1.9+dfsg1-1
; #@! TF.FileFunction,Plated,1,2,PTH
FMAT,2
INCH
T1C0.0157
T2C0.0315
T3C0.0354
T4C0.0394
T5C0.0472
%
G90
G05
T1
X5.05Y-2.05
X5.15Y-4.2
X5.24Y-2.06
X5.32Y-4.51
X5.37Y-4.39
X5.39Y-2.5
X5.39Y-3.77
X5.4Y-4.64
X5.45Y-2.99
X5.5615Y-2.5
X5.59Y-2.03
X5.62Y-2.08
X5.63Y-4.39
X5.66Y-2.13
X5.66Y-2.59
X5.91Y-3.75
X5.96Y-2.32
X5.98Y-2.12
X6.01Y-4.41
X6.03Y-2.18
X6.03Y-4.6615
X6.04Y-1.98
X6.04Y-2.4
X6.04Y-2.46
X6.05Y-2.5
X6.05Y-2.55
X6.08Y-2.28
X6.08Y-3.87
X6.09Y-2.57
X6.17Y-3.83
X6.22Y-4.69
X6.28Y-3.93
X6.33Y-3.48
X6.36Y-3.06
X6.37Y-3.83
X6.4Y-3.48
X6.42Y-3.05
X6.44Y-3.48
X6.4598Y-3.7198
X6.49Y-3.05
X6.49Y-3.48
X6.53Y-3.69
T2
X5.14Y-2.29
X5.2384Y-2.29
X5.55Y-4.16
X5.6484Y-4.16
T3
X6.36Y-2.18
X6.46Y-2.18
X6.56Y-2.18
T4
X5.13Y-2.49
X5.13Y-2.59
X5.13Y-2.69
X5.13Y-2.79
X5.13Y-2.89
X5.13Y-2.99
T5
X5.16Y-3.92
X5.16Y-4.02
X5.16Y-4.12
T0
M30
