%TF.GenerationSoftware,KiCad,Pcbnew,5.1.9+dfsg1-1*%
%TF.CreationDate,2021-05-25T15:45:51+02:00*%
%TF.ProjectId,vscp-din-wireless-esp32-flat,76736370-2d64-4696-9e2d-776972656c65,rev?*%
%TF.SameCoordinates,Original*%
%TF.FileFunction,Copper,L2,Bot*%
%TF.FilePolarity,Positive*%
%FSLAX46Y46*%
G04 Gerber Fmt 4.6, Leading zero omitted, Abs format (unit mm)*
G04 Created by KiCad (PCBNEW 5.1.9+dfsg1-1) date 2021-05-25 15:45:51*
%MOMM*%
%LPD*%
G01*
G04 APERTURE LIST*
%TA.AperFunction,ComponentPad*%
%ADD10O,2.500000X1.700000*%
%TD*%
%TA.AperFunction,ComponentPad*%
%ADD11R,2.500000X1.700000*%
%TD*%
%TA.AperFunction,ComponentPad*%
%ADD12C,1.600000*%
%TD*%
%TA.AperFunction,ComponentPad*%
%ADD13R,1.600000X1.600000*%
%TD*%
%TA.AperFunction,ComponentPad*%
%ADD14C,1.800000*%
%TD*%
%TA.AperFunction,ComponentPad*%
%ADD15R,1.800000X1.800000*%
%TD*%
%TA.AperFunction,ComponentPad*%
%ADD16O,1.700000X1.700000*%
%TD*%
%TA.AperFunction,ComponentPad*%
%ADD17R,1.700000X1.700000*%
%TD*%
%TA.AperFunction,ViaPad*%
%ADD18C,0.800000*%
%TD*%
%TA.AperFunction,Conductor*%
%ADD19C,0.250000*%
%TD*%
%TA.AperFunction,Conductor*%
%ADD20C,0.254000*%
%TD*%
%TA.AperFunction,Conductor*%
%ADD21C,0.100000*%
%TD*%
G04 APERTURE END LIST*
D10*
%TO.P,U2,3*%
%TO.N,VCC*%
X131064000Y-99568000D03*
%TO.P,U2,2*%
%TO.N,Net-(U2-Pad2)*%
X131064000Y-102108000D03*
D11*
%TO.P,U2,1*%
%TO.N,Net-(C5-Pad1)*%
X131064000Y-104648000D03*
%TD*%
D12*
%TO.P,C5,2*%
%TO.N,GND*%
X143470000Y-105664000D03*
D13*
%TO.P,C5,1*%
%TO.N,Net-(C5-Pad1)*%
X140970000Y-105664000D03*
%TD*%
D14*
%TO.P,D1,3*%
%TO.N,/leda*%
X166624000Y-55372000D03*
%TO.P,D1,2*%
%TO.N,Net-(D1-Pad2)*%
X164084000Y-55372000D03*
D15*
%TO.P,D1,1*%
%TO.N,/ledb*%
X161544000Y-55372000D03*
%TD*%
D12*
%TO.P,C2,2*%
%TO.N,GND*%
X133056000Y-58166000D03*
D13*
%TO.P,C2,1*%
%TO.N,VCC*%
X130556000Y-58166000D03*
%TD*%
D16*
%TO.P,J3,6*%
%TO.N,GND*%
X130302000Y-75946000D03*
%TO.P,J3,5*%
%TO.N,VCC*%
X130302000Y-73406000D03*
%TO.P,J3,4*%
%TO.N,/RESET*%
X130302000Y-70866000D03*
%TO.P,J3,3*%
%TO.N,/RXD*%
X130302000Y-68326000D03*
%TO.P,J3,2*%
%TO.N,/TXD*%
X130302000Y-65786000D03*
D17*
%TO.P,J3,1*%
%TO.N,/FLASH*%
X130302000Y-63246000D03*
%TD*%
D18*
%TO.N,GND*%
X150114000Y-95250000D03*
X138430000Y-75946000D03*
X136906000Y-95758000D03*
X130810000Y-106680000D03*
X133096000Y-52324000D03*
X128270000Y-52070000D03*
X154432000Y-57912000D03*
X143764000Y-65786000D03*
X151384000Y-58928000D03*
X153416000Y-50292000D03*
%TO.N,/sda*%
X143764000Y-54102000D03*
X143002000Y-111506000D03*
%TO.N,/scl*%
X142748000Y-52832000D03*
X136398000Y-111506000D03*
%TO.N,/TXD*%
X151892000Y-53848000D03*
%TO.N,/RXD*%
X153162000Y-55372000D03*
%TO.N,/irq*%
X141986000Y-51562000D03*
X135128000Y-114554000D03*
%TO.N,Net-(R5-Pad1)*%
X141261000Y-63500000D03*
X136906000Y-63500000D03*
%TO.N,Net-(J1-Pad12)*%
X137160000Y-117856000D03*
X157988000Y-119126000D03*
%TO.N,Net-(J1-Pad11)*%
X159512000Y-99822000D03*
X160782000Y-88392000D03*
%TO.N,Net-(J1-Pad10)*%
X154686000Y-65278000D03*
X156718000Y-97282000D03*
X154432000Y-98298000D03*
X152654000Y-112014000D03*
%TO.N,Net-(J1-Pad9)*%
X153670000Y-64770000D03*
X153162000Y-118401000D03*
%TO.N,Net-(J1-Pad14)*%
X165862000Y-93726000D03*
X164846000Y-88392000D03*
X164846000Y-77470000D03*
X153416000Y-60960000D03*
%TO.N,Net-(J1-Pad15)*%
X164079347Y-94483347D03*
X163576000Y-88392000D03*
X163068000Y-77470000D03*
X153416000Y-62484000D03*
%TO.N,Net-(J1-Pad13)*%
X161798000Y-97282000D03*
X162560000Y-88392000D03*
X161544000Y-77724000D03*
X153670000Y-63500000D03*
%TD*%
D19*
%TO.N,/sda*%
X144595001Y-54933001D02*
X144595001Y-109912999D01*
X144595001Y-109912999D02*
X143002000Y-111506000D01*
X143764000Y-54102000D02*
X144595001Y-54933001D01*
%TO.N,/scl*%
X136398000Y-101728410D02*
X136398000Y-111506000D01*
X142748000Y-95378410D02*
X136398000Y-101728410D01*
X142748000Y-52832000D02*
X142748000Y-95378410D01*
%TO.N,/TXD*%
X134181001Y-61906999D02*
X130302000Y-65786000D01*
X134181001Y-58293997D02*
X134181001Y-61906999D01*
X141637999Y-50836999D02*
X134181001Y-58293997D01*
X148880999Y-50836999D02*
X141637999Y-50836999D01*
X151892000Y-53848000D02*
X148880999Y-50836999D01*
%TO.N,/RXD*%
X129126999Y-54515001D02*
X129126999Y-67150999D01*
X133255011Y-50386989D02*
X129126999Y-54515001D01*
X149503991Y-50386989D02*
X133255011Y-50386989D01*
X129126999Y-67150999D02*
X130302000Y-68326000D01*
X153162000Y-54044998D02*
X149503991Y-50386989D01*
X153162000Y-55372000D02*
X153162000Y-54044998D01*
%TO.N,/irq*%
X141986000Y-51562000D02*
X141986000Y-95504000D01*
X135128000Y-102362000D02*
X135128000Y-114554000D01*
X141986000Y-95504000D02*
X135128000Y-102362000D01*
%TO.N,Net-(R5-Pad1)*%
X141261000Y-63500000D02*
X136906000Y-63500000D01*
%TO.N,Net-(J1-Pad12)*%
X138430000Y-119126000D02*
X157988000Y-119126000D01*
X137160000Y-117856000D02*
X138430000Y-119126000D01*
%TO.N,Net-(J1-Pad11)*%
X160782000Y-98552000D02*
X160782000Y-88392000D01*
X159512000Y-99822000D02*
X160782000Y-98552000D01*
%TO.N,Net-(J1-Pad10)*%
X152654000Y-100076000D02*
X152654000Y-112014000D01*
X154432000Y-98298000D02*
X152654000Y-100076000D01*
X156718000Y-80195412D02*
X156718000Y-97282000D01*
X161486009Y-75427403D02*
X156718000Y-80195412D01*
X161486009Y-72136000D02*
X161486009Y-75427403D01*
X154686000Y-65278000D02*
X161486009Y-72136000D01*
%TO.N,Net-(J1-Pad9)*%
X155702000Y-115861000D02*
X153162000Y-118401000D01*
X155702000Y-80575002D02*
X155702000Y-115861000D01*
X159512000Y-76765002D02*
X155702000Y-80575002D01*
X161036000Y-75184000D02*
X159512000Y-76765002D01*
X161036000Y-72413091D02*
X161036000Y-75184000D01*
X154178000Y-66040000D02*
X161036000Y-72413091D01*
X153670000Y-64770000D02*
X154178000Y-66040000D01*
%TO.N,Net-(J1-Pad14)*%
X164846000Y-92710000D02*
X164846000Y-88392000D01*
X165862000Y-93726000D02*
X164846000Y-92710000D01*
X164846000Y-65786000D02*
X164084000Y-65024000D01*
X164846000Y-77470000D02*
X164846000Y-65786000D01*
X157480000Y-65024000D02*
X153416000Y-60960000D01*
X164084000Y-65024000D02*
X157480000Y-65024000D01*
%TO.N,Net-(J1-Pad15)*%
X163576000Y-93980000D02*
X163576000Y-88392000D01*
X164079347Y-94483347D02*
X163576000Y-93980000D01*
X163068000Y-77470000D02*
X163830000Y-76708000D01*
X163830000Y-76708000D02*
X163830000Y-72136000D01*
X154178000Y-62484000D02*
X153416000Y-62484000D01*
X163830000Y-72136000D02*
X154178000Y-62484000D01*
%TO.N,Net-(J1-Pad13)*%
X162560000Y-96520000D02*
X162560000Y-88392000D01*
X161798000Y-97282000D02*
X162560000Y-96520000D01*
X161544000Y-77724000D02*
X162814000Y-76454000D01*
X162814000Y-76454000D02*
X162814000Y-72136000D01*
X162814000Y-72136000D02*
X154178000Y-63500000D01*
X154178000Y-63500000D02*
X153670000Y-63500000D01*
%TD*%
D20*
%TO.N,GND*%
X132830735Y-49752015D02*
X132715010Y-49846988D01*
X132691212Y-49875986D01*
X128616002Y-53951197D01*
X128586998Y-53975000D01*
X128560191Y-54007665D01*
X128492025Y-54090725D01*
X128421454Y-54222754D01*
X128421453Y-54222755D01*
X128377996Y-54366016D01*
X128366999Y-54477669D01*
X128366999Y-54477679D01*
X128363323Y-54515001D01*
X128366999Y-54552323D01*
X128367000Y-67113667D01*
X128363323Y-67150999D01*
X128377997Y-67299984D01*
X128421453Y-67443245D01*
X128492025Y-67575275D01*
X128563200Y-67662001D01*
X128586999Y-67691000D01*
X128615997Y-67714798D01*
X128860791Y-67959592D01*
X128817000Y-68179740D01*
X128817000Y-68472260D01*
X128874068Y-68759158D01*
X128986010Y-69029411D01*
X129148525Y-69272632D01*
X129355368Y-69479475D01*
X129529760Y-69596000D01*
X129355368Y-69712525D01*
X129148525Y-69919368D01*
X128986010Y-70162589D01*
X128874068Y-70432842D01*
X128817000Y-70719740D01*
X128817000Y-71012260D01*
X128874068Y-71299158D01*
X128986010Y-71569411D01*
X129148525Y-71812632D01*
X129355368Y-72019475D01*
X129529760Y-72136000D01*
X129355368Y-72252525D01*
X129148525Y-72459368D01*
X128986010Y-72702589D01*
X128874068Y-72972842D01*
X128817000Y-73259740D01*
X128817000Y-73552260D01*
X128874068Y-73839158D01*
X128986010Y-74109411D01*
X129148525Y-74352632D01*
X129355368Y-74559475D01*
X129537534Y-74681195D01*
X129420645Y-74750822D01*
X129204412Y-74945731D01*
X129030359Y-75179080D01*
X128905175Y-75441901D01*
X128860524Y-75589110D01*
X128981845Y-75819000D01*
X130175000Y-75819000D01*
X130175000Y-75799000D01*
X130429000Y-75799000D01*
X130429000Y-75819000D01*
X131622155Y-75819000D01*
X131743476Y-75589110D01*
X131698825Y-75441901D01*
X131573641Y-75179080D01*
X131399588Y-74945731D01*
X131183355Y-74750822D01*
X131066466Y-74681195D01*
X131248632Y-74559475D01*
X131455475Y-74352632D01*
X131617990Y-74109411D01*
X131729932Y-73839158D01*
X131787000Y-73552260D01*
X131787000Y-73259740D01*
X131729932Y-72972842D01*
X131617990Y-72702589D01*
X131455475Y-72459368D01*
X131248632Y-72252525D01*
X131074240Y-72136000D01*
X131248632Y-72019475D01*
X131455475Y-71812632D01*
X131617990Y-71569411D01*
X131729932Y-71299158D01*
X131787000Y-71012260D01*
X131787000Y-70719740D01*
X131729932Y-70432842D01*
X131617990Y-70162589D01*
X131455475Y-69919368D01*
X131248632Y-69712525D01*
X131074240Y-69596000D01*
X131248632Y-69479475D01*
X131455475Y-69272632D01*
X131617990Y-69029411D01*
X131729932Y-68759158D01*
X131787000Y-68472260D01*
X131787000Y-68179740D01*
X131729932Y-67892842D01*
X131617990Y-67622589D01*
X131455475Y-67379368D01*
X131248632Y-67172525D01*
X131074240Y-67056000D01*
X131248632Y-66939475D01*
X131455475Y-66732632D01*
X131617990Y-66489411D01*
X131729932Y-66219158D01*
X131787000Y-65932260D01*
X131787000Y-65639740D01*
X131743209Y-65419592D01*
X134692004Y-62470798D01*
X134721002Y-62447000D01*
X134815975Y-62331275D01*
X134886547Y-62199246D01*
X134930004Y-62055985D01*
X134941001Y-61944332D01*
X134941001Y-61944322D01*
X134944677Y-61906999D01*
X134941001Y-61869676D01*
X134941001Y-58608798D01*
X141226000Y-52323800D01*
X141226000Y-62465000D01*
X141159061Y-62465000D01*
X140959102Y-62504774D01*
X140770744Y-62582795D01*
X140601226Y-62696063D01*
X140557289Y-62740000D01*
X137609711Y-62740000D01*
X137565774Y-62696063D01*
X137396256Y-62582795D01*
X137207898Y-62504774D01*
X137007939Y-62465000D01*
X136804061Y-62465000D01*
X136604102Y-62504774D01*
X136415744Y-62582795D01*
X136246226Y-62696063D01*
X136102063Y-62840226D01*
X135988795Y-63009744D01*
X135910774Y-63198102D01*
X135871000Y-63398061D01*
X135871000Y-63601939D01*
X135910774Y-63801898D01*
X135988795Y-63990256D01*
X136102063Y-64159774D01*
X136246226Y-64303937D01*
X136415744Y-64417205D01*
X136604102Y-64495226D01*
X136804061Y-64535000D01*
X137007939Y-64535000D01*
X137207898Y-64495226D01*
X137396256Y-64417205D01*
X137565774Y-64303937D01*
X137609711Y-64260000D01*
X140557289Y-64260000D01*
X140601226Y-64303937D01*
X140770744Y-64417205D01*
X140959102Y-64495226D01*
X141159061Y-64535000D01*
X141226000Y-64535000D01*
X141226001Y-95189197D01*
X134617003Y-101798196D01*
X134587999Y-101821999D01*
X134542537Y-101877395D01*
X134493026Y-101937724D01*
X134448698Y-102020656D01*
X134422454Y-102069754D01*
X134378997Y-102213015D01*
X134368000Y-102324668D01*
X134368000Y-102324678D01*
X134364324Y-102362000D01*
X134368000Y-102399322D01*
X134368001Y-113850288D01*
X134324063Y-113894226D01*
X134210795Y-114063744D01*
X134132774Y-114252102D01*
X134093000Y-114452061D01*
X134093000Y-114655939D01*
X134132774Y-114855898D01*
X134210795Y-115044256D01*
X134324063Y-115213774D01*
X134468226Y-115357937D01*
X134637744Y-115471205D01*
X134826102Y-115549226D01*
X135026061Y-115589000D01*
X135229939Y-115589000D01*
X135429898Y-115549226D01*
X135618256Y-115471205D01*
X135787774Y-115357937D01*
X135931937Y-115213774D01*
X136045205Y-115044256D01*
X136123226Y-114855898D01*
X136163000Y-114655939D01*
X136163000Y-114452061D01*
X136123226Y-114252102D01*
X136045205Y-114063744D01*
X135931937Y-113894226D01*
X135888000Y-113850289D01*
X135888000Y-112410013D01*
X135907744Y-112423205D01*
X136096102Y-112501226D01*
X136296061Y-112541000D01*
X136499939Y-112541000D01*
X136699898Y-112501226D01*
X136888256Y-112423205D01*
X137057774Y-112309937D01*
X137201937Y-112165774D01*
X137315205Y-111996256D01*
X137393226Y-111807898D01*
X137433000Y-111607939D01*
X137433000Y-111404061D01*
X137393226Y-111204102D01*
X137315205Y-111015744D01*
X137201937Y-110846226D01*
X137158000Y-110802289D01*
X137158000Y-104864000D01*
X139531928Y-104864000D01*
X139531928Y-106464000D01*
X139544188Y-106588482D01*
X139580498Y-106708180D01*
X139639463Y-106818494D01*
X139718815Y-106915185D01*
X139815506Y-106994537D01*
X139925820Y-107053502D01*
X140045518Y-107089812D01*
X140170000Y-107102072D01*
X141770000Y-107102072D01*
X141894482Y-107089812D01*
X142014180Y-107053502D01*
X142124494Y-106994537D01*
X142221185Y-106915185D01*
X142300537Y-106818494D01*
X142359502Y-106708180D01*
X142395812Y-106588482D01*
X142408072Y-106464000D01*
X142408072Y-106456785D01*
X142477298Y-106477097D01*
X143290395Y-105664000D01*
X142477298Y-104850903D01*
X142408072Y-104871215D01*
X142408072Y-104864000D01*
X142395812Y-104739518D01*
X142359502Y-104619820D01*
X142300537Y-104509506D01*
X142221185Y-104412815D01*
X142124494Y-104333463D01*
X142014180Y-104274498D01*
X141894482Y-104238188D01*
X141770000Y-104225928D01*
X140170000Y-104225928D01*
X140045518Y-104238188D01*
X139925820Y-104274498D01*
X139815506Y-104333463D01*
X139718815Y-104412815D01*
X139639463Y-104509506D01*
X139580498Y-104619820D01*
X139544188Y-104739518D01*
X139531928Y-104864000D01*
X137158000Y-104864000D01*
X137158000Y-102043211D01*
X143259003Y-95942209D01*
X143288001Y-95918411D01*
X143315399Y-95885026D01*
X143382974Y-95802687D01*
X143453546Y-95670657D01*
X143492775Y-95541333D01*
X143497003Y-95527396D01*
X143508000Y-95415743D01*
X143508000Y-95415734D01*
X143511676Y-95378411D01*
X143508000Y-95341088D01*
X143508000Y-55106356D01*
X143662061Y-55137000D01*
X143724198Y-55137000D01*
X143835001Y-55247803D01*
X143835002Y-104276098D01*
X143681816Y-104237700D01*
X143399488Y-104223783D01*
X143119870Y-104265213D01*
X142853708Y-104360397D01*
X142728486Y-104427329D01*
X142656903Y-104671298D01*
X143470000Y-105484395D01*
X143484143Y-105470253D01*
X143663748Y-105649858D01*
X143649605Y-105664000D01*
X143663748Y-105678143D01*
X143484143Y-105857748D01*
X143470000Y-105843605D01*
X142656903Y-106656702D01*
X142728486Y-106900671D01*
X142983996Y-107021571D01*
X143258184Y-107090300D01*
X143540512Y-107104217D01*
X143820130Y-107062787D01*
X143835002Y-107057469D01*
X143835002Y-109598196D01*
X142962199Y-110471000D01*
X142900061Y-110471000D01*
X142700102Y-110510774D01*
X142511744Y-110588795D01*
X142342226Y-110702063D01*
X142198063Y-110846226D01*
X142084795Y-111015744D01*
X142006774Y-111204102D01*
X141967000Y-111404061D01*
X141967000Y-111607939D01*
X142006774Y-111807898D01*
X142084795Y-111996256D01*
X142198063Y-112165774D01*
X142342226Y-112309937D01*
X142511744Y-112423205D01*
X142700102Y-112501226D01*
X142900061Y-112541000D01*
X143103939Y-112541000D01*
X143303898Y-112501226D01*
X143492256Y-112423205D01*
X143661774Y-112309937D01*
X143805937Y-112165774D01*
X143919205Y-111996256D01*
X143997226Y-111807898D01*
X144037000Y-111607939D01*
X144037000Y-111545801D01*
X145106004Y-110476798D01*
X145135002Y-110453000D01*
X145229975Y-110337275D01*
X145300547Y-110205246D01*
X145344004Y-110061985D01*
X145355001Y-109950332D01*
X145358678Y-109912999D01*
X145355001Y-109875666D01*
X145355001Y-54970324D01*
X145358677Y-54933001D01*
X145355001Y-54895678D01*
X145355001Y-54895668D01*
X145344004Y-54784015D01*
X145300547Y-54640754D01*
X145285004Y-54611676D01*
X145229975Y-54508724D01*
X145158800Y-54421998D01*
X145135002Y-54393000D01*
X145106005Y-54369203D01*
X144799000Y-54062198D01*
X144799000Y-54000061D01*
X144759226Y-53800102D01*
X144681205Y-53611744D01*
X144567937Y-53442226D01*
X144423774Y-53298063D01*
X144254256Y-53184795D01*
X144065898Y-53106774D01*
X143865939Y-53067000D01*
X143756533Y-53067000D01*
X143783000Y-52933939D01*
X143783000Y-52730061D01*
X143743226Y-52530102D01*
X143665205Y-52341744D01*
X143551937Y-52172226D01*
X143407774Y-52028063D01*
X143238256Y-51914795D01*
X143049898Y-51836774D01*
X142989030Y-51824667D01*
X143021000Y-51663939D01*
X143021000Y-51596999D01*
X148566198Y-51596999D01*
X150857000Y-53887803D01*
X150857000Y-53949939D01*
X150896774Y-54149898D01*
X150974795Y-54338256D01*
X151088063Y-54507774D01*
X151232226Y-54651937D01*
X151401744Y-54765205D01*
X151590102Y-54843226D01*
X151790061Y-54883000D01*
X151993939Y-54883000D01*
X152193898Y-54843226D01*
X152299859Y-54799335D01*
X152244795Y-54881744D01*
X152166774Y-55070102D01*
X152127000Y-55270061D01*
X152127000Y-55473939D01*
X152166774Y-55673898D01*
X152244795Y-55862256D01*
X152358063Y-56031774D01*
X152502226Y-56175937D01*
X152671744Y-56289205D01*
X152860102Y-56367226D01*
X153060061Y-56407000D01*
X153263939Y-56407000D01*
X153463898Y-56367226D01*
X153652256Y-56289205D01*
X153821774Y-56175937D01*
X153965937Y-56031774D01*
X154079205Y-55862256D01*
X154157226Y-55673898D01*
X154197000Y-55473939D01*
X154197000Y-55270061D01*
X154157226Y-55070102D01*
X154079205Y-54881744D01*
X153965937Y-54712226D01*
X153922000Y-54668289D01*
X153922000Y-54472000D01*
X160005928Y-54472000D01*
X160005928Y-56272000D01*
X160018188Y-56396482D01*
X160054498Y-56516180D01*
X160113463Y-56626494D01*
X160192815Y-56723185D01*
X160289506Y-56802537D01*
X160399820Y-56861502D01*
X160519518Y-56897812D01*
X160644000Y-56910072D01*
X162444000Y-56910072D01*
X162568482Y-56897812D01*
X162688180Y-56861502D01*
X162798494Y-56802537D01*
X162895185Y-56723185D01*
X162974537Y-56626494D01*
X163033502Y-56516180D01*
X163039056Y-56497873D01*
X163105495Y-56564312D01*
X163356905Y-56732299D01*
X163636257Y-56848011D01*
X163932816Y-56907000D01*
X164235184Y-56907000D01*
X164531743Y-56848011D01*
X164811095Y-56732299D01*
X165062505Y-56564312D01*
X165276312Y-56350505D01*
X165354000Y-56234237D01*
X165431688Y-56350505D01*
X165645495Y-56564312D01*
X165896905Y-56732299D01*
X166176257Y-56848011D01*
X166472816Y-56907000D01*
X166775184Y-56907000D01*
X167071743Y-56848011D01*
X167351095Y-56732299D01*
X167602505Y-56564312D01*
X167816312Y-56350505D01*
X167984299Y-56099095D01*
X168100011Y-55819743D01*
X168159000Y-55523184D01*
X168159000Y-55220816D01*
X168100011Y-54924257D01*
X167984299Y-54644905D01*
X167816312Y-54393495D01*
X167602505Y-54179688D01*
X167351095Y-54011701D01*
X167071743Y-53895989D01*
X166775184Y-53837000D01*
X166472816Y-53837000D01*
X166176257Y-53895989D01*
X165896905Y-54011701D01*
X165645495Y-54179688D01*
X165431688Y-54393495D01*
X165354000Y-54509763D01*
X165276312Y-54393495D01*
X165062505Y-54179688D01*
X164811095Y-54011701D01*
X164531743Y-53895989D01*
X164235184Y-53837000D01*
X163932816Y-53837000D01*
X163636257Y-53895989D01*
X163356905Y-54011701D01*
X163105495Y-54179688D01*
X163039056Y-54246127D01*
X163033502Y-54227820D01*
X162974537Y-54117506D01*
X162895185Y-54020815D01*
X162798494Y-53941463D01*
X162688180Y-53882498D01*
X162568482Y-53846188D01*
X162444000Y-53833928D01*
X160644000Y-53833928D01*
X160519518Y-53846188D01*
X160399820Y-53882498D01*
X160289506Y-53941463D01*
X160192815Y-54020815D01*
X160113463Y-54117506D01*
X160054498Y-54227820D01*
X160018188Y-54347518D01*
X160005928Y-54472000D01*
X153922000Y-54472000D01*
X153922000Y-54082321D01*
X153925676Y-54044998D01*
X153922000Y-54007675D01*
X153922000Y-54007665D01*
X153911003Y-53896012D01*
X153867546Y-53752751D01*
X153805107Y-53635937D01*
X153796974Y-53620721D01*
X153725799Y-53533995D01*
X153702001Y-53504997D01*
X153673003Y-53481199D01*
X150067795Y-49875992D01*
X150043992Y-49846988D01*
X149928267Y-49752015D01*
X149802893Y-49685000D01*
X168315001Y-49685000D01*
X168315000Y-120315000D01*
X134798391Y-120315000D01*
X127685000Y-120271626D01*
X127685000Y-117754061D01*
X136125000Y-117754061D01*
X136125000Y-117957939D01*
X136164774Y-118157898D01*
X136242795Y-118346256D01*
X136356063Y-118515774D01*
X136500226Y-118659937D01*
X136669744Y-118773205D01*
X136858102Y-118851226D01*
X137058061Y-118891000D01*
X137120199Y-118891000D01*
X137866201Y-119637003D01*
X137889999Y-119666001D01*
X138005724Y-119760974D01*
X138137753Y-119831546D01*
X138281014Y-119875003D01*
X138392667Y-119886000D01*
X138392676Y-119886000D01*
X138429999Y-119889676D01*
X138467322Y-119886000D01*
X157284289Y-119886000D01*
X157328226Y-119929937D01*
X157497744Y-120043205D01*
X157686102Y-120121226D01*
X157886061Y-120161000D01*
X158089939Y-120161000D01*
X158289898Y-120121226D01*
X158478256Y-120043205D01*
X158647774Y-119929937D01*
X158791937Y-119785774D01*
X158905205Y-119616256D01*
X158983226Y-119427898D01*
X159023000Y-119227939D01*
X159023000Y-119024061D01*
X158983226Y-118824102D01*
X158905205Y-118635744D01*
X158791937Y-118466226D01*
X158647774Y-118322063D01*
X158478256Y-118208795D01*
X158289898Y-118130774D01*
X158089939Y-118091000D01*
X157886061Y-118091000D01*
X157686102Y-118130774D01*
X157497744Y-118208795D01*
X157328226Y-118322063D01*
X157284289Y-118366000D01*
X154271801Y-118366000D01*
X156213008Y-116424795D01*
X156242001Y-116401001D01*
X156265795Y-116372008D01*
X156265799Y-116372004D01*
X156336973Y-116285277D01*
X156336974Y-116285276D01*
X156407546Y-116153247D01*
X156451003Y-116009986D01*
X156462000Y-115898333D01*
X156462000Y-115898324D01*
X156465676Y-115861001D01*
X156462000Y-115823678D01*
X156462000Y-99720061D01*
X158477000Y-99720061D01*
X158477000Y-99923939D01*
X158516774Y-100123898D01*
X158594795Y-100312256D01*
X158708063Y-100481774D01*
X158852226Y-100625937D01*
X159021744Y-100739205D01*
X159210102Y-100817226D01*
X159410061Y-100857000D01*
X159613939Y-100857000D01*
X159813898Y-100817226D01*
X160002256Y-100739205D01*
X160171774Y-100625937D01*
X160315937Y-100481774D01*
X160429205Y-100312256D01*
X160507226Y-100123898D01*
X160547000Y-99923939D01*
X160547000Y-99861801D01*
X161293004Y-99115798D01*
X161322001Y-99092001D01*
X161416974Y-98976276D01*
X161487546Y-98844247D01*
X161531003Y-98700986D01*
X161542000Y-98589333D01*
X161542000Y-98589324D01*
X161545676Y-98552001D01*
X161542000Y-98514678D01*
X161542000Y-98286356D01*
X161696061Y-98317000D01*
X161899939Y-98317000D01*
X162099898Y-98277226D01*
X162288256Y-98199205D01*
X162457774Y-98085937D01*
X162601937Y-97941774D01*
X162715205Y-97772256D01*
X162793226Y-97583898D01*
X162833000Y-97383939D01*
X162833000Y-97321802D01*
X163071004Y-97083798D01*
X163100001Y-97060001D01*
X163194974Y-96944276D01*
X163265546Y-96812247D01*
X163309003Y-96668986D01*
X163320000Y-96557333D01*
X163320000Y-96557325D01*
X163323676Y-96520000D01*
X163320000Y-96482675D01*
X163320000Y-95187711D01*
X163419573Y-95287284D01*
X163589091Y-95400552D01*
X163777449Y-95478573D01*
X163977408Y-95518347D01*
X164181286Y-95518347D01*
X164381245Y-95478573D01*
X164569603Y-95400552D01*
X164739121Y-95287284D01*
X164883284Y-95143121D01*
X164996552Y-94973603D01*
X165074573Y-94785245D01*
X165114347Y-94585286D01*
X165114347Y-94442058D01*
X165202226Y-94529937D01*
X165371744Y-94643205D01*
X165560102Y-94721226D01*
X165760061Y-94761000D01*
X165963939Y-94761000D01*
X166163898Y-94721226D01*
X166352256Y-94643205D01*
X166521774Y-94529937D01*
X166665937Y-94385774D01*
X166779205Y-94216256D01*
X166857226Y-94027898D01*
X166897000Y-93827939D01*
X166897000Y-93624061D01*
X166857226Y-93424102D01*
X166779205Y-93235744D01*
X166665937Y-93066226D01*
X166521774Y-92922063D01*
X166352256Y-92808795D01*
X166163898Y-92730774D01*
X165963939Y-92691000D01*
X165901802Y-92691000D01*
X165606000Y-92395199D01*
X165606000Y-89095711D01*
X165649937Y-89051774D01*
X165763205Y-88882256D01*
X165841226Y-88693898D01*
X165881000Y-88493939D01*
X165881000Y-88290061D01*
X165841226Y-88090102D01*
X165763205Y-87901744D01*
X165649937Y-87732226D01*
X165505774Y-87588063D01*
X165336256Y-87474795D01*
X165147898Y-87396774D01*
X164947939Y-87357000D01*
X164744061Y-87357000D01*
X164544102Y-87396774D01*
X164355744Y-87474795D01*
X164211000Y-87571510D01*
X164066256Y-87474795D01*
X163877898Y-87396774D01*
X163677939Y-87357000D01*
X163474061Y-87357000D01*
X163274102Y-87396774D01*
X163085744Y-87474795D01*
X163068000Y-87486651D01*
X163050256Y-87474795D01*
X162861898Y-87396774D01*
X162661939Y-87357000D01*
X162458061Y-87357000D01*
X162258102Y-87396774D01*
X162069744Y-87474795D01*
X161900226Y-87588063D01*
X161756063Y-87732226D01*
X161671000Y-87859532D01*
X161585937Y-87732226D01*
X161441774Y-87588063D01*
X161272256Y-87474795D01*
X161083898Y-87396774D01*
X160883939Y-87357000D01*
X160680061Y-87357000D01*
X160480102Y-87396774D01*
X160291744Y-87474795D01*
X160122226Y-87588063D01*
X159978063Y-87732226D01*
X159864795Y-87901744D01*
X159786774Y-88090102D01*
X159747000Y-88290061D01*
X159747000Y-88493939D01*
X159786774Y-88693898D01*
X159864795Y-88882256D01*
X159978063Y-89051774D01*
X160022001Y-89095712D01*
X160022000Y-98237198D01*
X159472199Y-98787000D01*
X159410061Y-98787000D01*
X159210102Y-98826774D01*
X159021744Y-98904795D01*
X158852226Y-99018063D01*
X158708063Y-99162226D01*
X158594795Y-99331744D01*
X158516774Y-99520102D01*
X158477000Y-99720061D01*
X156462000Y-99720061D01*
X156462000Y-98286356D01*
X156616061Y-98317000D01*
X156819939Y-98317000D01*
X157019898Y-98277226D01*
X157208256Y-98199205D01*
X157377774Y-98085937D01*
X157521937Y-97941774D01*
X157635205Y-97772256D01*
X157713226Y-97583898D01*
X157753000Y-97383939D01*
X157753000Y-97180061D01*
X157713226Y-96980102D01*
X157635205Y-96791744D01*
X157521937Y-96622226D01*
X157478000Y-96578289D01*
X157478000Y-80510213D01*
X160544469Y-77443745D01*
X160509000Y-77622061D01*
X160509000Y-77825939D01*
X160548774Y-78025898D01*
X160626795Y-78214256D01*
X160740063Y-78383774D01*
X160884226Y-78527937D01*
X161053744Y-78641205D01*
X161242102Y-78719226D01*
X161442061Y-78759000D01*
X161645939Y-78759000D01*
X161845898Y-78719226D01*
X162034256Y-78641205D01*
X162203774Y-78527937D01*
X162347937Y-78383774D01*
X162417284Y-78279989D01*
X162577744Y-78387205D01*
X162766102Y-78465226D01*
X162966061Y-78505000D01*
X163169939Y-78505000D01*
X163369898Y-78465226D01*
X163558256Y-78387205D01*
X163727774Y-78273937D01*
X163871937Y-78129774D01*
X163957000Y-78002468D01*
X164042063Y-78129774D01*
X164186226Y-78273937D01*
X164355744Y-78387205D01*
X164544102Y-78465226D01*
X164744061Y-78505000D01*
X164947939Y-78505000D01*
X165147898Y-78465226D01*
X165336256Y-78387205D01*
X165505774Y-78273937D01*
X165649937Y-78129774D01*
X165763205Y-77960256D01*
X165841226Y-77771898D01*
X165881000Y-77571939D01*
X165881000Y-77368061D01*
X165841226Y-77168102D01*
X165763205Y-76979744D01*
X165649937Y-76810226D01*
X165606000Y-76766289D01*
X165606000Y-65823325D01*
X165609676Y-65786000D01*
X165606000Y-65748675D01*
X165606000Y-65748667D01*
X165595003Y-65637014D01*
X165551546Y-65493753D01*
X165480974Y-65361724D01*
X165386001Y-65245999D01*
X165357002Y-65222201D01*
X164647803Y-64513002D01*
X164624001Y-64483999D01*
X164508276Y-64389026D01*
X164376247Y-64318454D01*
X164232986Y-64274997D01*
X164121333Y-64264000D01*
X164121322Y-64264000D01*
X164084000Y-64260324D01*
X164046678Y-64264000D01*
X157794802Y-64264000D01*
X154451000Y-60920199D01*
X154451000Y-60858061D01*
X154411226Y-60658102D01*
X154333205Y-60469744D01*
X154219937Y-60300226D01*
X154075774Y-60156063D01*
X153906256Y-60042795D01*
X153717898Y-59964774D01*
X153517939Y-59925000D01*
X153314061Y-59925000D01*
X153114102Y-59964774D01*
X152925744Y-60042795D01*
X152756226Y-60156063D01*
X152612063Y-60300226D01*
X152498795Y-60469744D01*
X152420774Y-60658102D01*
X152381000Y-60858061D01*
X152381000Y-61061939D01*
X152420774Y-61261898D01*
X152498795Y-61450256D01*
X152612063Y-61619774D01*
X152714289Y-61722000D01*
X152612063Y-61824226D01*
X152498795Y-61993744D01*
X152420774Y-62182102D01*
X152381000Y-62382061D01*
X152381000Y-62585939D01*
X152420774Y-62785898D01*
X152498795Y-62974256D01*
X152612063Y-63143774D01*
X152673383Y-63205094D01*
X152635000Y-63398061D01*
X152635000Y-63601939D01*
X152674774Y-63801898D01*
X152752795Y-63990256D01*
X152849510Y-64135000D01*
X152752795Y-64279744D01*
X152674774Y-64468102D01*
X152635000Y-64668061D01*
X152635000Y-64871939D01*
X152674774Y-65071898D01*
X152752795Y-65260256D01*
X152866063Y-65429774D01*
X153010226Y-65573937D01*
X153179744Y-65687205D01*
X153226002Y-65706366D01*
X153465395Y-66304850D01*
X153483631Y-66357890D01*
X153511976Y-66406545D01*
X153537901Y-66456502D01*
X153549579Y-66471091D01*
X153558991Y-66487247D01*
X153596275Y-66529428D01*
X153631455Y-66573377D01*
X153674383Y-66609492D01*
X160276000Y-72744329D01*
X160276001Y-74877338D01*
X158969662Y-76232538D01*
X155191003Y-80011198D01*
X155161999Y-80035001D01*
X155106871Y-80102176D01*
X155067026Y-80150726D01*
X155043141Y-80195412D01*
X154996454Y-80282756D01*
X154952997Y-80426017D01*
X154942000Y-80537670D01*
X154942000Y-80537680D01*
X154938324Y-80575002D01*
X154942000Y-80612324D01*
X154942000Y-97393988D01*
X154922256Y-97380795D01*
X154733898Y-97302774D01*
X154533939Y-97263000D01*
X154330061Y-97263000D01*
X154130102Y-97302774D01*
X153941744Y-97380795D01*
X153772226Y-97494063D01*
X153628063Y-97638226D01*
X153514795Y-97807744D01*
X153436774Y-97996102D01*
X153397000Y-98196061D01*
X153397000Y-98258198D01*
X152143003Y-99512196D01*
X152113999Y-99535999D01*
X152087737Y-99568000D01*
X152019026Y-99651724D01*
X152007646Y-99673015D01*
X151948454Y-99783754D01*
X151904997Y-99927015D01*
X151894000Y-100038668D01*
X151894000Y-100038678D01*
X151890324Y-100076000D01*
X151894000Y-100113322D01*
X151894001Y-111310288D01*
X151850063Y-111354226D01*
X151736795Y-111523744D01*
X151658774Y-111712102D01*
X151619000Y-111912061D01*
X151619000Y-112115939D01*
X151658774Y-112315898D01*
X151736795Y-112504256D01*
X151850063Y-112673774D01*
X151994226Y-112817937D01*
X152163744Y-112931205D01*
X152352102Y-113009226D01*
X152552061Y-113049000D01*
X152755939Y-113049000D01*
X152955898Y-113009226D01*
X153144256Y-112931205D01*
X153313774Y-112817937D01*
X153457937Y-112673774D01*
X153571205Y-112504256D01*
X153649226Y-112315898D01*
X153689000Y-112115939D01*
X153689000Y-111912061D01*
X153649226Y-111712102D01*
X153571205Y-111523744D01*
X153457937Y-111354226D01*
X153414000Y-111310289D01*
X153414000Y-100390801D01*
X154471802Y-99333000D01*
X154533939Y-99333000D01*
X154733898Y-99293226D01*
X154922256Y-99215205D01*
X154942001Y-99202012D01*
X154942001Y-115546196D01*
X153122199Y-117366000D01*
X153060061Y-117366000D01*
X152860102Y-117405774D01*
X152671744Y-117483795D01*
X152502226Y-117597063D01*
X152358063Y-117741226D01*
X152244795Y-117910744D01*
X152166774Y-118099102D01*
X152127000Y-118299061D01*
X152127000Y-118366000D01*
X138744802Y-118366000D01*
X138195000Y-117816199D01*
X138195000Y-117754061D01*
X138155226Y-117554102D01*
X138077205Y-117365744D01*
X137963937Y-117196226D01*
X137819774Y-117052063D01*
X137650256Y-116938795D01*
X137461898Y-116860774D01*
X137261939Y-116821000D01*
X137058061Y-116821000D01*
X136858102Y-116860774D01*
X136669744Y-116938795D01*
X136500226Y-117052063D01*
X136356063Y-117196226D01*
X136242795Y-117365744D01*
X136164774Y-117554102D01*
X136125000Y-117754061D01*
X127685000Y-117754061D01*
X127685000Y-99568000D01*
X129171815Y-99568000D01*
X129200487Y-99859111D01*
X129285401Y-100139034D01*
X129423294Y-100397014D01*
X129608866Y-100623134D01*
X129834986Y-100808706D01*
X129889791Y-100838000D01*
X129834986Y-100867294D01*
X129608866Y-101052866D01*
X129423294Y-101278986D01*
X129285401Y-101536966D01*
X129200487Y-101816889D01*
X129171815Y-102108000D01*
X129200487Y-102399111D01*
X129285401Y-102679034D01*
X129423294Y-102937014D01*
X129608866Y-103163134D01*
X129638687Y-103187607D01*
X129569820Y-103208498D01*
X129459506Y-103267463D01*
X129362815Y-103346815D01*
X129283463Y-103443506D01*
X129224498Y-103553820D01*
X129188188Y-103673518D01*
X129175928Y-103798000D01*
X129175928Y-105498000D01*
X129188188Y-105622482D01*
X129224498Y-105742180D01*
X129283463Y-105852494D01*
X129362815Y-105949185D01*
X129459506Y-106028537D01*
X129569820Y-106087502D01*
X129689518Y-106123812D01*
X129814000Y-106136072D01*
X132314000Y-106136072D01*
X132438482Y-106123812D01*
X132558180Y-106087502D01*
X132668494Y-106028537D01*
X132765185Y-105949185D01*
X132844537Y-105852494D01*
X132903502Y-105742180D01*
X132939812Y-105622482D01*
X132952072Y-105498000D01*
X132952072Y-103798000D01*
X132939812Y-103673518D01*
X132903502Y-103553820D01*
X132844537Y-103443506D01*
X132765185Y-103346815D01*
X132668494Y-103267463D01*
X132558180Y-103208498D01*
X132489313Y-103187607D01*
X132519134Y-103163134D01*
X132704706Y-102937014D01*
X132842599Y-102679034D01*
X132927513Y-102399111D01*
X132956185Y-102108000D01*
X132927513Y-101816889D01*
X132842599Y-101536966D01*
X132704706Y-101278986D01*
X132519134Y-101052866D01*
X132293014Y-100867294D01*
X132238209Y-100838000D01*
X132293014Y-100808706D01*
X132519134Y-100623134D01*
X132704706Y-100397014D01*
X132842599Y-100139034D01*
X132927513Y-99859111D01*
X132956185Y-99568000D01*
X132927513Y-99276889D01*
X132842599Y-98996966D01*
X132704706Y-98738986D01*
X132519134Y-98512866D01*
X132293014Y-98327294D01*
X132035034Y-98189401D01*
X131755111Y-98104487D01*
X131536950Y-98083000D01*
X130591050Y-98083000D01*
X130372889Y-98104487D01*
X130092966Y-98189401D01*
X129834986Y-98327294D01*
X129608866Y-98512866D01*
X129423294Y-98738986D01*
X129285401Y-98996966D01*
X129200487Y-99276889D01*
X129171815Y-99568000D01*
X127685000Y-99568000D01*
X127685000Y-76302890D01*
X128860524Y-76302890D01*
X128905175Y-76450099D01*
X129030359Y-76712920D01*
X129204412Y-76946269D01*
X129420645Y-77141178D01*
X129670748Y-77290157D01*
X129945109Y-77387481D01*
X130175000Y-77266814D01*
X130175000Y-76073000D01*
X130429000Y-76073000D01*
X130429000Y-77266814D01*
X130658891Y-77387481D01*
X130933252Y-77290157D01*
X131183355Y-77141178D01*
X131399588Y-76946269D01*
X131573641Y-76712920D01*
X131698825Y-76450099D01*
X131743476Y-76302890D01*
X131622155Y-76073000D01*
X130429000Y-76073000D01*
X130175000Y-76073000D01*
X128981845Y-76073000D01*
X128860524Y-76302890D01*
X127685000Y-76302890D01*
X127685000Y-49685000D01*
X132956109Y-49685000D01*
X132830735Y-49752015D01*
%TA.AperFunction,Conductor*%
D21*
G36*
X132830735Y-49752015D02*
G01*
X132715010Y-49846988D01*
X132691212Y-49875986D01*
X128616002Y-53951197D01*
X128586998Y-53975000D01*
X128560191Y-54007665D01*
X128492025Y-54090725D01*
X128421454Y-54222754D01*
X128421453Y-54222755D01*
X128377996Y-54366016D01*
X128366999Y-54477669D01*
X128366999Y-54477679D01*
X128363323Y-54515001D01*
X128366999Y-54552323D01*
X128367000Y-67113667D01*
X128363323Y-67150999D01*
X128377997Y-67299984D01*
X128421453Y-67443245D01*
X128492025Y-67575275D01*
X128563200Y-67662001D01*
X128586999Y-67691000D01*
X128615997Y-67714798D01*
X128860791Y-67959592D01*
X128817000Y-68179740D01*
X128817000Y-68472260D01*
X128874068Y-68759158D01*
X128986010Y-69029411D01*
X129148525Y-69272632D01*
X129355368Y-69479475D01*
X129529760Y-69596000D01*
X129355368Y-69712525D01*
X129148525Y-69919368D01*
X128986010Y-70162589D01*
X128874068Y-70432842D01*
X128817000Y-70719740D01*
X128817000Y-71012260D01*
X128874068Y-71299158D01*
X128986010Y-71569411D01*
X129148525Y-71812632D01*
X129355368Y-72019475D01*
X129529760Y-72136000D01*
X129355368Y-72252525D01*
X129148525Y-72459368D01*
X128986010Y-72702589D01*
X128874068Y-72972842D01*
X128817000Y-73259740D01*
X128817000Y-73552260D01*
X128874068Y-73839158D01*
X128986010Y-74109411D01*
X129148525Y-74352632D01*
X129355368Y-74559475D01*
X129537534Y-74681195D01*
X129420645Y-74750822D01*
X129204412Y-74945731D01*
X129030359Y-75179080D01*
X128905175Y-75441901D01*
X128860524Y-75589110D01*
X128981845Y-75819000D01*
X130175000Y-75819000D01*
X130175000Y-75799000D01*
X130429000Y-75799000D01*
X130429000Y-75819000D01*
X131622155Y-75819000D01*
X131743476Y-75589110D01*
X131698825Y-75441901D01*
X131573641Y-75179080D01*
X131399588Y-74945731D01*
X131183355Y-74750822D01*
X131066466Y-74681195D01*
X131248632Y-74559475D01*
X131455475Y-74352632D01*
X131617990Y-74109411D01*
X131729932Y-73839158D01*
X131787000Y-73552260D01*
X131787000Y-73259740D01*
X131729932Y-72972842D01*
X131617990Y-72702589D01*
X131455475Y-72459368D01*
X131248632Y-72252525D01*
X131074240Y-72136000D01*
X131248632Y-72019475D01*
X131455475Y-71812632D01*
X131617990Y-71569411D01*
X131729932Y-71299158D01*
X131787000Y-71012260D01*
X131787000Y-70719740D01*
X131729932Y-70432842D01*
X131617990Y-70162589D01*
X131455475Y-69919368D01*
X131248632Y-69712525D01*
X131074240Y-69596000D01*
X131248632Y-69479475D01*
X131455475Y-69272632D01*
X131617990Y-69029411D01*
X131729932Y-68759158D01*
X131787000Y-68472260D01*
X131787000Y-68179740D01*
X131729932Y-67892842D01*
X131617990Y-67622589D01*
X131455475Y-67379368D01*
X131248632Y-67172525D01*
X131074240Y-67056000D01*
X131248632Y-66939475D01*
X131455475Y-66732632D01*
X131617990Y-66489411D01*
X131729932Y-66219158D01*
X131787000Y-65932260D01*
X131787000Y-65639740D01*
X131743209Y-65419592D01*
X134692004Y-62470798D01*
X134721002Y-62447000D01*
X134815975Y-62331275D01*
X134886547Y-62199246D01*
X134930004Y-62055985D01*
X134941001Y-61944332D01*
X134941001Y-61944322D01*
X134944677Y-61906999D01*
X134941001Y-61869676D01*
X134941001Y-58608798D01*
X141226000Y-52323800D01*
X141226000Y-62465000D01*
X141159061Y-62465000D01*
X140959102Y-62504774D01*
X140770744Y-62582795D01*
X140601226Y-62696063D01*
X140557289Y-62740000D01*
X137609711Y-62740000D01*
X137565774Y-62696063D01*
X137396256Y-62582795D01*
X137207898Y-62504774D01*
X137007939Y-62465000D01*
X136804061Y-62465000D01*
X136604102Y-62504774D01*
X136415744Y-62582795D01*
X136246226Y-62696063D01*
X136102063Y-62840226D01*
X135988795Y-63009744D01*
X135910774Y-63198102D01*
X135871000Y-63398061D01*
X135871000Y-63601939D01*
X135910774Y-63801898D01*
X135988795Y-63990256D01*
X136102063Y-64159774D01*
X136246226Y-64303937D01*
X136415744Y-64417205D01*
X136604102Y-64495226D01*
X136804061Y-64535000D01*
X137007939Y-64535000D01*
X137207898Y-64495226D01*
X137396256Y-64417205D01*
X137565774Y-64303937D01*
X137609711Y-64260000D01*
X140557289Y-64260000D01*
X140601226Y-64303937D01*
X140770744Y-64417205D01*
X140959102Y-64495226D01*
X141159061Y-64535000D01*
X141226000Y-64535000D01*
X141226001Y-95189197D01*
X134617003Y-101798196D01*
X134587999Y-101821999D01*
X134542537Y-101877395D01*
X134493026Y-101937724D01*
X134448698Y-102020656D01*
X134422454Y-102069754D01*
X134378997Y-102213015D01*
X134368000Y-102324668D01*
X134368000Y-102324678D01*
X134364324Y-102362000D01*
X134368000Y-102399322D01*
X134368001Y-113850288D01*
X134324063Y-113894226D01*
X134210795Y-114063744D01*
X134132774Y-114252102D01*
X134093000Y-114452061D01*
X134093000Y-114655939D01*
X134132774Y-114855898D01*
X134210795Y-115044256D01*
X134324063Y-115213774D01*
X134468226Y-115357937D01*
X134637744Y-115471205D01*
X134826102Y-115549226D01*
X135026061Y-115589000D01*
X135229939Y-115589000D01*
X135429898Y-115549226D01*
X135618256Y-115471205D01*
X135787774Y-115357937D01*
X135931937Y-115213774D01*
X136045205Y-115044256D01*
X136123226Y-114855898D01*
X136163000Y-114655939D01*
X136163000Y-114452061D01*
X136123226Y-114252102D01*
X136045205Y-114063744D01*
X135931937Y-113894226D01*
X135888000Y-113850289D01*
X135888000Y-112410013D01*
X135907744Y-112423205D01*
X136096102Y-112501226D01*
X136296061Y-112541000D01*
X136499939Y-112541000D01*
X136699898Y-112501226D01*
X136888256Y-112423205D01*
X137057774Y-112309937D01*
X137201937Y-112165774D01*
X137315205Y-111996256D01*
X137393226Y-111807898D01*
X137433000Y-111607939D01*
X137433000Y-111404061D01*
X137393226Y-111204102D01*
X137315205Y-111015744D01*
X137201937Y-110846226D01*
X137158000Y-110802289D01*
X137158000Y-104864000D01*
X139531928Y-104864000D01*
X139531928Y-106464000D01*
X139544188Y-106588482D01*
X139580498Y-106708180D01*
X139639463Y-106818494D01*
X139718815Y-106915185D01*
X139815506Y-106994537D01*
X139925820Y-107053502D01*
X140045518Y-107089812D01*
X140170000Y-107102072D01*
X141770000Y-107102072D01*
X141894482Y-107089812D01*
X142014180Y-107053502D01*
X142124494Y-106994537D01*
X142221185Y-106915185D01*
X142300537Y-106818494D01*
X142359502Y-106708180D01*
X142395812Y-106588482D01*
X142408072Y-106464000D01*
X142408072Y-106456785D01*
X142477298Y-106477097D01*
X143290395Y-105664000D01*
X142477298Y-104850903D01*
X142408072Y-104871215D01*
X142408072Y-104864000D01*
X142395812Y-104739518D01*
X142359502Y-104619820D01*
X142300537Y-104509506D01*
X142221185Y-104412815D01*
X142124494Y-104333463D01*
X142014180Y-104274498D01*
X141894482Y-104238188D01*
X141770000Y-104225928D01*
X140170000Y-104225928D01*
X140045518Y-104238188D01*
X139925820Y-104274498D01*
X139815506Y-104333463D01*
X139718815Y-104412815D01*
X139639463Y-104509506D01*
X139580498Y-104619820D01*
X139544188Y-104739518D01*
X139531928Y-104864000D01*
X137158000Y-104864000D01*
X137158000Y-102043211D01*
X143259003Y-95942209D01*
X143288001Y-95918411D01*
X143315399Y-95885026D01*
X143382974Y-95802687D01*
X143453546Y-95670657D01*
X143492775Y-95541333D01*
X143497003Y-95527396D01*
X143508000Y-95415743D01*
X143508000Y-95415734D01*
X143511676Y-95378411D01*
X143508000Y-95341088D01*
X143508000Y-55106356D01*
X143662061Y-55137000D01*
X143724198Y-55137000D01*
X143835001Y-55247803D01*
X143835002Y-104276098D01*
X143681816Y-104237700D01*
X143399488Y-104223783D01*
X143119870Y-104265213D01*
X142853708Y-104360397D01*
X142728486Y-104427329D01*
X142656903Y-104671298D01*
X143470000Y-105484395D01*
X143484143Y-105470253D01*
X143663748Y-105649858D01*
X143649605Y-105664000D01*
X143663748Y-105678143D01*
X143484143Y-105857748D01*
X143470000Y-105843605D01*
X142656903Y-106656702D01*
X142728486Y-106900671D01*
X142983996Y-107021571D01*
X143258184Y-107090300D01*
X143540512Y-107104217D01*
X143820130Y-107062787D01*
X143835002Y-107057469D01*
X143835002Y-109598196D01*
X142962199Y-110471000D01*
X142900061Y-110471000D01*
X142700102Y-110510774D01*
X142511744Y-110588795D01*
X142342226Y-110702063D01*
X142198063Y-110846226D01*
X142084795Y-111015744D01*
X142006774Y-111204102D01*
X141967000Y-111404061D01*
X141967000Y-111607939D01*
X142006774Y-111807898D01*
X142084795Y-111996256D01*
X142198063Y-112165774D01*
X142342226Y-112309937D01*
X142511744Y-112423205D01*
X142700102Y-112501226D01*
X142900061Y-112541000D01*
X143103939Y-112541000D01*
X143303898Y-112501226D01*
X143492256Y-112423205D01*
X143661774Y-112309937D01*
X143805937Y-112165774D01*
X143919205Y-111996256D01*
X143997226Y-111807898D01*
X144037000Y-111607939D01*
X144037000Y-111545801D01*
X145106004Y-110476798D01*
X145135002Y-110453000D01*
X145229975Y-110337275D01*
X145300547Y-110205246D01*
X145344004Y-110061985D01*
X145355001Y-109950332D01*
X145358678Y-109912999D01*
X145355001Y-109875666D01*
X145355001Y-54970324D01*
X145358677Y-54933001D01*
X145355001Y-54895678D01*
X145355001Y-54895668D01*
X145344004Y-54784015D01*
X145300547Y-54640754D01*
X145285004Y-54611676D01*
X145229975Y-54508724D01*
X145158800Y-54421998D01*
X145135002Y-54393000D01*
X145106005Y-54369203D01*
X144799000Y-54062198D01*
X144799000Y-54000061D01*
X144759226Y-53800102D01*
X144681205Y-53611744D01*
X144567937Y-53442226D01*
X144423774Y-53298063D01*
X144254256Y-53184795D01*
X144065898Y-53106774D01*
X143865939Y-53067000D01*
X143756533Y-53067000D01*
X143783000Y-52933939D01*
X143783000Y-52730061D01*
X143743226Y-52530102D01*
X143665205Y-52341744D01*
X143551937Y-52172226D01*
X143407774Y-52028063D01*
X143238256Y-51914795D01*
X143049898Y-51836774D01*
X142989030Y-51824667D01*
X143021000Y-51663939D01*
X143021000Y-51596999D01*
X148566198Y-51596999D01*
X150857000Y-53887803D01*
X150857000Y-53949939D01*
X150896774Y-54149898D01*
X150974795Y-54338256D01*
X151088063Y-54507774D01*
X151232226Y-54651937D01*
X151401744Y-54765205D01*
X151590102Y-54843226D01*
X151790061Y-54883000D01*
X151993939Y-54883000D01*
X152193898Y-54843226D01*
X152299859Y-54799335D01*
X152244795Y-54881744D01*
X152166774Y-55070102D01*
X152127000Y-55270061D01*
X152127000Y-55473939D01*
X152166774Y-55673898D01*
X152244795Y-55862256D01*
X152358063Y-56031774D01*
X152502226Y-56175937D01*
X152671744Y-56289205D01*
X152860102Y-56367226D01*
X153060061Y-56407000D01*
X153263939Y-56407000D01*
X153463898Y-56367226D01*
X153652256Y-56289205D01*
X153821774Y-56175937D01*
X153965937Y-56031774D01*
X154079205Y-55862256D01*
X154157226Y-55673898D01*
X154197000Y-55473939D01*
X154197000Y-55270061D01*
X154157226Y-55070102D01*
X154079205Y-54881744D01*
X153965937Y-54712226D01*
X153922000Y-54668289D01*
X153922000Y-54472000D01*
X160005928Y-54472000D01*
X160005928Y-56272000D01*
X160018188Y-56396482D01*
X160054498Y-56516180D01*
X160113463Y-56626494D01*
X160192815Y-56723185D01*
X160289506Y-56802537D01*
X160399820Y-56861502D01*
X160519518Y-56897812D01*
X160644000Y-56910072D01*
X162444000Y-56910072D01*
X162568482Y-56897812D01*
X162688180Y-56861502D01*
X162798494Y-56802537D01*
X162895185Y-56723185D01*
X162974537Y-56626494D01*
X163033502Y-56516180D01*
X163039056Y-56497873D01*
X163105495Y-56564312D01*
X163356905Y-56732299D01*
X163636257Y-56848011D01*
X163932816Y-56907000D01*
X164235184Y-56907000D01*
X164531743Y-56848011D01*
X164811095Y-56732299D01*
X165062505Y-56564312D01*
X165276312Y-56350505D01*
X165354000Y-56234237D01*
X165431688Y-56350505D01*
X165645495Y-56564312D01*
X165896905Y-56732299D01*
X166176257Y-56848011D01*
X166472816Y-56907000D01*
X166775184Y-56907000D01*
X167071743Y-56848011D01*
X167351095Y-56732299D01*
X167602505Y-56564312D01*
X167816312Y-56350505D01*
X167984299Y-56099095D01*
X168100011Y-55819743D01*
X168159000Y-55523184D01*
X168159000Y-55220816D01*
X168100011Y-54924257D01*
X167984299Y-54644905D01*
X167816312Y-54393495D01*
X167602505Y-54179688D01*
X167351095Y-54011701D01*
X167071743Y-53895989D01*
X166775184Y-53837000D01*
X166472816Y-53837000D01*
X166176257Y-53895989D01*
X165896905Y-54011701D01*
X165645495Y-54179688D01*
X165431688Y-54393495D01*
X165354000Y-54509763D01*
X165276312Y-54393495D01*
X165062505Y-54179688D01*
X164811095Y-54011701D01*
X164531743Y-53895989D01*
X164235184Y-53837000D01*
X163932816Y-53837000D01*
X163636257Y-53895989D01*
X163356905Y-54011701D01*
X163105495Y-54179688D01*
X163039056Y-54246127D01*
X163033502Y-54227820D01*
X162974537Y-54117506D01*
X162895185Y-54020815D01*
X162798494Y-53941463D01*
X162688180Y-53882498D01*
X162568482Y-53846188D01*
X162444000Y-53833928D01*
X160644000Y-53833928D01*
X160519518Y-53846188D01*
X160399820Y-53882498D01*
X160289506Y-53941463D01*
X160192815Y-54020815D01*
X160113463Y-54117506D01*
X160054498Y-54227820D01*
X160018188Y-54347518D01*
X160005928Y-54472000D01*
X153922000Y-54472000D01*
X153922000Y-54082321D01*
X153925676Y-54044998D01*
X153922000Y-54007675D01*
X153922000Y-54007665D01*
X153911003Y-53896012D01*
X153867546Y-53752751D01*
X153805107Y-53635937D01*
X153796974Y-53620721D01*
X153725799Y-53533995D01*
X153702001Y-53504997D01*
X153673003Y-53481199D01*
X150067795Y-49875992D01*
X150043992Y-49846988D01*
X149928267Y-49752015D01*
X149802893Y-49685000D01*
X168315001Y-49685000D01*
X168315000Y-120315000D01*
X134798391Y-120315000D01*
X127685000Y-120271626D01*
X127685000Y-117754061D01*
X136125000Y-117754061D01*
X136125000Y-117957939D01*
X136164774Y-118157898D01*
X136242795Y-118346256D01*
X136356063Y-118515774D01*
X136500226Y-118659937D01*
X136669744Y-118773205D01*
X136858102Y-118851226D01*
X137058061Y-118891000D01*
X137120199Y-118891000D01*
X137866201Y-119637003D01*
X137889999Y-119666001D01*
X138005724Y-119760974D01*
X138137753Y-119831546D01*
X138281014Y-119875003D01*
X138392667Y-119886000D01*
X138392676Y-119886000D01*
X138429999Y-119889676D01*
X138467322Y-119886000D01*
X157284289Y-119886000D01*
X157328226Y-119929937D01*
X157497744Y-120043205D01*
X157686102Y-120121226D01*
X157886061Y-120161000D01*
X158089939Y-120161000D01*
X158289898Y-120121226D01*
X158478256Y-120043205D01*
X158647774Y-119929937D01*
X158791937Y-119785774D01*
X158905205Y-119616256D01*
X158983226Y-119427898D01*
X159023000Y-119227939D01*
X159023000Y-119024061D01*
X158983226Y-118824102D01*
X158905205Y-118635744D01*
X158791937Y-118466226D01*
X158647774Y-118322063D01*
X158478256Y-118208795D01*
X158289898Y-118130774D01*
X158089939Y-118091000D01*
X157886061Y-118091000D01*
X157686102Y-118130774D01*
X157497744Y-118208795D01*
X157328226Y-118322063D01*
X157284289Y-118366000D01*
X154271801Y-118366000D01*
X156213008Y-116424795D01*
X156242001Y-116401001D01*
X156265795Y-116372008D01*
X156265799Y-116372004D01*
X156336973Y-116285277D01*
X156336974Y-116285276D01*
X156407546Y-116153247D01*
X156451003Y-116009986D01*
X156462000Y-115898333D01*
X156462000Y-115898324D01*
X156465676Y-115861001D01*
X156462000Y-115823678D01*
X156462000Y-99720061D01*
X158477000Y-99720061D01*
X158477000Y-99923939D01*
X158516774Y-100123898D01*
X158594795Y-100312256D01*
X158708063Y-100481774D01*
X158852226Y-100625937D01*
X159021744Y-100739205D01*
X159210102Y-100817226D01*
X159410061Y-100857000D01*
X159613939Y-100857000D01*
X159813898Y-100817226D01*
X160002256Y-100739205D01*
X160171774Y-100625937D01*
X160315937Y-100481774D01*
X160429205Y-100312256D01*
X160507226Y-100123898D01*
X160547000Y-99923939D01*
X160547000Y-99861801D01*
X161293004Y-99115798D01*
X161322001Y-99092001D01*
X161416974Y-98976276D01*
X161487546Y-98844247D01*
X161531003Y-98700986D01*
X161542000Y-98589333D01*
X161542000Y-98589324D01*
X161545676Y-98552001D01*
X161542000Y-98514678D01*
X161542000Y-98286356D01*
X161696061Y-98317000D01*
X161899939Y-98317000D01*
X162099898Y-98277226D01*
X162288256Y-98199205D01*
X162457774Y-98085937D01*
X162601937Y-97941774D01*
X162715205Y-97772256D01*
X162793226Y-97583898D01*
X162833000Y-97383939D01*
X162833000Y-97321802D01*
X163071004Y-97083798D01*
X163100001Y-97060001D01*
X163194974Y-96944276D01*
X163265546Y-96812247D01*
X163309003Y-96668986D01*
X163320000Y-96557333D01*
X163320000Y-96557325D01*
X163323676Y-96520000D01*
X163320000Y-96482675D01*
X163320000Y-95187711D01*
X163419573Y-95287284D01*
X163589091Y-95400552D01*
X163777449Y-95478573D01*
X163977408Y-95518347D01*
X164181286Y-95518347D01*
X164381245Y-95478573D01*
X164569603Y-95400552D01*
X164739121Y-95287284D01*
X164883284Y-95143121D01*
X164996552Y-94973603D01*
X165074573Y-94785245D01*
X165114347Y-94585286D01*
X165114347Y-94442058D01*
X165202226Y-94529937D01*
X165371744Y-94643205D01*
X165560102Y-94721226D01*
X165760061Y-94761000D01*
X165963939Y-94761000D01*
X166163898Y-94721226D01*
X166352256Y-94643205D01*
X166521774Y-94529937D01*
X166665937Y-94385774D01*
X166779205Y-94216256D01*
X166857226Y-94027898D01*
X166897000Y-93827939D01*
X166897000Y-93624061D01*
X166857226Y-93424102D01*
X166779205Y-93235744D01*
X166665937Y-93066226D01*
X166521774Y-92922063D01*
X166352256Y-92808795D01*
X166163898Y-92730774D01*
X165963939Y-92691000D01*
X165901802Y-92691000D01*
X165606000Y-92395199D01*
X165606000Y-89095711D01*
X165649937Y-89051774D01*
X165763205Y-88882256D01*
X165841226Y-88693898D01*
X165881000Y-88493939D01*
X165881000Y-88290061D01*
X165841226Y-88090102D01*
X165763205Y-87901744D01*
X165649937Y-87732226D01*
X165505774Y-87588063D01*
X165336256Y-87474795D01*
X165147898Y-87396774D01*
X164947939Y-87357000D01*
X164744061Y-87357000D01*
X164544102Y-87396774D01*
X164355744Y-87474795D01*
X164211000Y-87571510D01*
X164066256Y-87474795D01*
X163877898Y-87396774D01*
X163677939Y-87357000D01*
X163474061Y-87357000D01*
X163274102Y-87396774D01*
X163085744Y-87474795D01*
X163068000Y-87486651D01*
X163050256Y-87474795D01*
X162861898Y-87396774D01*
X162661939Y-87357000D01*
X162458061Y-87357000D01*
X162258102Y-87396774D01*
X162069744Y-87474795D01*
X161900226Y-87588063D01*
X161756063Y-87732226D01*
X161671000Y-87859532D01*
X161585937Y-87732226D01*
X161441774Y-87588063D01*
X161272256Y-87474795D01*
X161083898Y-87396774D01*
X160883939Y-87357000D01*
X160680061Y-87357000D01*
X160480102Y-87396774D01*
X160291744Y-87474795D01*
X160122226Y-87588063D01*
X159978063Y-87732226D01*
X159864795Y-87901744D01*
X159786774Y-88090102D01*
X159747000Y-88290061D01*
X159747000Y-88493939D01*
X159786774Y-88693898D01*
X159864795Y-88882256D01*
X159978063Y-89051774D01*
X160022001Y-89095712D01*
X160022000Y-98237198D01*
X159472199Y-98787000D01*
X159410061Y-98787000D01*
X159210102Y-98826774D01*
X159021744Y-98904795D01*
X158852226Y-99018063D01*
X158708063Y-99162226D01*
X158594795Y-99331744D01*
X158516774Y-99520102D01*
X158477000Y-99720061D01*
X156462000Y-99720061D01*
X156462000Y-98286356D01*
X156616061Y-98317000D01*
X156819939Y-98317000D01*
X157019898Y-98277226D01*
X157208256Y-98199205D01*
X157377774Y-98085937D01*
X157521937Y-97941774D01*
X157635205Y-97772256D01*
X157713226Y-97583898D01*
X157753000Y-97383939D01*
X157753000Y-97180061D01*
X157713226Y-96980102D01*
X157635205Y-96791744D01*
X157521937Y-96622226D01*
X157478000Y-96578289D01*
X157478000Y-80510213D01*
X160544469Y-77443745D01*
X160509000Y-77622061D01*
X160509000Y-77825939D01*
X160548774Y-78025898D01*
X160626795Y-78214256D01*
X160740063Y-78383774D01*
X160884226Y-78527937D01*
X161053744Y-78641205D01*
X161242102Y-78719226D01*
X161442061Y-78759000D01*
X161645939Y-78759000D01*
X161845898Y-78719226D01*
X162034256Y-78641205D01*
X162203774Y-78527937D01*
X162347937Y-78383774D01*
X162417284Y-78279989D01*
X162577744Y-78387205D01*
X162766102Y-78465226D01*
X162966061Y-78505000D01*
X163169939Y-78505000D01*
X163369898Y-78465226D01*
X163558256Y-78387205D01*
X163727774Y-78273937D01*
X163871937Y-78129774D01*
X163957000Y-78002468D01*
X164042063Y-78129774D01*
X164186226Y-78273937D01*
X164355744Y-78387205D01*
X164544102Y-78465226D01*
X164744061Y-78505000D01*
X164947939Y-78505000D01*
X165147898Y-78465226D01*
X165336256Y-78387205D01*
X165505774Y-78273937D01*
X165649937Y-78129774D01*
X165763205Y-77960256D01*
X165841226Y-77771898D01*
X165881000Y-77571939D01*
X165881000Y-77368061D01*
X165841226Y-77168102D01*
X165763205Y-76979744D01*
X165649937Y-76810226D01*
X165606000Y-76766289D01*
X165606000Y-65823325D01*
X165609676Y-65786000D01*
X165606000Y-65748675D01*
X165606000Y-65748667D01*
X165595003Y-65637014D01*
X165551546Y-65493753D01*
X165480974Y-65361724D01*
X165386001Y-65245999D01*
X165357002Y-65222201D01*
X164647803Y-64513002D01*
X164624001Y-64483999D01*
X164508276Y-64389026D01*
X164376247Y-64318454D01*
X164232986Y-64274997D01*
X164121333Y-64264000D01*
X164121322Y-64264000D01*
X164084000Y-64260324D01*
X164046678Y-64264000D01*
X157794802Y-64264000D01*
X154451000Y-60920199D01*
X154451000Y-60858061D01*
X154411226Y-60658102D01*
X154333205Y-60469744D01*
X154219937Y-60300226D01*
X154075774Y-60156063D01*
X153906256Y-60042795D01*
X153717898Y-59964774D01*
X153517939Y-59925000D01*
X153314061Y-59925000D01*
X153114102Y-59964774D01*
X152925744Y-60042795D01*
X152756226Y-60156063D01*
X152612063Y-60300226D01*
X152498795Y-60469744D01*
X152420774Y-60658102D01*
X152381000Y-60858061D01*
X152381000Y-61061939D01*
X152420774Y-61261898D01*
X152498795Y-61450256D01*
X152612063Y-61619774D01*
X152714289Y-61722000D01*
X152612063Y-61824226D01*
X152498795Y-61993744D01*
X152420774Y-62182102D01*
X152381000Y-62382061D01*
X152381000Y-62585939D01*
X152420774Y-62785898D01*
X152498795Y-62974256D01*
X152612063Y-63143774D01*
X152673383Y-63205094D01*
X152635000Y-63398061D01*
X152635000Y-63601939D01*
X152674774Y-63801898D01*
X152752795Y-63990256D01*
X152849510Y-64135000D01*
X152752795Y-64279744D01*
X152674774Y-64468102D01*
X152635000Y-64668061D01*
X152635000Y-64871939D01*
X152674774Y-65071898D01*
X152752795Y-65260256D01*
X152866063Y-65429774D01*
X153010226Y-65573937D01*
X153179744Y-65687205D01*
X153226002Y-65706366D01*
X153465395Y-66304850D01*
X153483631Y-66357890D01*
X153511976Y-66406545D01*
X153537901Y-66456502D01*
X153549579Y-66471091D01*
X153558991Y-66487247D01*
X153596275Y-66529428D01*
X153631455Y-66573377D01*
X153674383Y-66609492D01*
X160276000Y-72744329D01*
X160276001Y-74877338D01*
X158969662Y-76232538D01*
X155191003Y-80011198D01*
X155161999Y-80035001D01*
X155106871Y-80102176D01*
X155067026Y-80150726D01*
X155043141Y-80195412D01*
X154996454Y-80282756D01*
X154952997Y-80426017D01*
X154942000Y-80537670D01*
X154942000Y-80537680D01*
X154938324Y-80575002D01*
X154942000Y-80612324D01*
X154942000Y-97393988D01*
X154922256Y-97380795D01*
X154733898Y-97302774D01*
X154533939Y-97263000D01*
X154330061Y-97263000D01*
X154130102Y-97302774D01*
X153941744Y-97380795D01*
X153772226Y-97494063D01*
X153628063Y-97638226D01*
X153514795Y-97807744D01*
X153436774Y-97996102D01*
X153397000Y-98196061D01*
X153397000Y-98258198D01*
X152143003Y-99512196D01*
X152113999Y-99535999D01*
X152087737Y-99568000D01*
X152019026Y-99651724D01*
X152007646Y-99673015D01*
X151948454Y-99783754D01*
X151904997Y-99927015D01*
X151894000Y-100038668D01*
X151894000Y-100038678D01*
X151890324Y-100076000D01*
X151894000Y-100113322D01*
X151894001Y-111310288D01*
X151850063Y-111354226D01*
X151736795Y-111523744D01*
X151658774Y-111712102D01*
X151619000Y-111912061D01*
X151619000Y-112115939D01*
X151658774Y-112315898D01*
X151736795Y-112504256D01*
X151850063Y-112673774D01*
X151994226Y-112817937D01*
X152163744Y-112931205D01*
X152352102Y-113009226D01*
X152552061Y-113049000D01*
X152755939Y-113049000D01*
X152955898Y-113009226D01*
X153144256Y-112931205D01*
X153313774Y-112817937D01*
X153457937Y-112673774D01*
X153571205Y-112504256D01*
X153649226Y-112315898D01*
X153689000Y-112115939D01*
X153689000Y-111912061D01*
X153649226Y-111712102D01*
X153571205Y-111523744D01*
X153457937Y-111354226D01*
X153414000Y-111310289D01*
X153414000Y-100390801D01*
X154471802Y-99333000D01*
X154533939Y-99333000D01*
X154733898Y-99293226D01*
X154922256Y-99215205D01*
X154942001Y-99202012D01*
X154942001Y-115546196D01*
X153122199Y-117366000D01*
X153060061Y-117366000D01*
X152860102Y-117405774D01*
X152671744Y-117483795D01*
X152502226Y-117597063D01*
X152358063Y-117741226D01*
X152244795Y-117910744D01*
X152166774Y-118099102D01*
X152127000Y-118299061D01*
X152127000Y-118366000D01*
X138744802Y-118366000D01*
X138195000Y-117816199D01*
X138195000Y-117754061D01*
X138155226Y-117554102D01*
X138077205Y-117365744D01*
X137963937Y-117196226D01*
X137819774Y-117052063D01*
X137650256Y-116938795D01*
X137461898Y-116860774D01*
X137261939Y-116821000D01*
X137058061Y-116821000D01*
X136858102Y-116860774D01*
X136669744Y-116938795D01*
X136500226Y-117052063D01*
X136356063Y-117196226D01*
X136242795Y-117365744D01*
X136164774Y-117554102D01*
X136125000Y-117754061D01*
X127685000Y-117754061D01*
X127685000Y-99568000D01*
X129171815Y-99568000D01*
X129200487Y-99859111D01*
X129285401Y-100139034D01*
X129423294Y-100397014D01*
X129608866Y-100623134D01*
X129834986Y-100808706D01*
X129889791Y-100838000D01*
X129834986Y-100867294D01*
X129608866Y-101052866D01*
X129423294Y-101278986D01*
X129285401Y-101536966D01*
X129200487Y-101816889D01*
X129171815Y-102108000D01*
X129200487Y-102399111D01*
X129285401Y-102679034D01*
X129423294Y-102937014D01*
X129608866Y-103163134D01*
X129638687Y-103187607D01*
X129569820Y-103208498D01*
X129459506Y-103267463D01*
X129362815Y-103346815D01*
X129283463Y-103443506D01*
X129224498Y-103553820D01*
X129188188Y-103673518D01*
X129175928Y-103798000D01*
X129175928Y-105498000D01*
X129188188Y-105622482D01*
X129224498Y-105742180D01*
X129283463Y-105852494D01*
X129362815Y-105949185D01*
X129459506Y-106028537D01*
X129569820Y-106087502D01*
X129689518Y-106123812D01*
X129814000Y-106136072D01*
X132314000Y-106136072D01*
X132438482Y-106123812D01*
X132558180Y-106087502D01*
X132668494Y-106028537D01*
X132765185Y-105949185D01*
X132844537Y-105852494D01*
X132903502Y-105742180D01*
X132939812Y-105622482D01*
X132952072Y-105498000D01*
X132952072Y-103798000D01*
X132939812Y-103673518D01*
X132903502Y-103553820D01*
X132844537Y-103443506D01*
X132765185Y-103346815D01*
X132668494Y-103267463D01*
X132558180Y-103208498D01*
X132489313Y-103187607D01*
X132519134Y-103163134D01*
X132704706Y-102937014D01*
X132842599Y-102679034D01*
X132927513Y-102399111D01*
X132956185Y-102108000D01*
X132927513Y-101816889D01*
X132842599Y-101536966D01*
X132704706Y-101278986D01*
X132519134Y-101052866D01*
X132293014Y-100867294D01*
X132238209Y-100838000D01*
X132293014Y-100808706D01*
X132519134Y-100623134D01*
X132704706Y-100397014D01*
X132842599Y-100139034D01*
X132927513Y-99859111D01*
X132956185Y-99568000D01*
X132927513Y-99276889D01*
X132842599Y-98996966D01*
X132704706Y-98738986D01*
X132519134Y-98512866D01*
X132293014Y-98327294D01*
X132035034Y-98189401D01*
X131755111Y-98104487D01*
X131536950Y-98083000D01*
X130591050Y-98083000D01*
X130372889Y-98104487D01*
X130092966Y-98189401D01*
X129834986Y-98327294D01*
X129608866Y-98512866D01*
X129423294Y-98738986D01*
X129285401Y-98996966D01*
X129200487Y-99276889D01*
X129171815Y-99568000D01*
X127685000Y-99568000D01*
X127685000Y-76302890D01*
X128860524Y-76302890D01*
X128905175Y-76450099D01*
X129030359Y-76712920D01*
X129204412Y-76946269D01*
X129420645Y-77141178D01*
X129670748Y-77290157D01*
X129945109Y-77387481D01*
X130175000Y-77266814D01*
X130175000Y-76073000D01*
X130429000Y-76073000D01*
X130429000Y-77266814D01*
X130658891Y-77387481D01*
X130933252Y-77290157D01*
X131183355Y-77141178D01*
X131399588Y-76946269D01*
X131573641Y-76712920D01*
X131698825Y-76450099D01*
X131743476Y-76302890D01*
X131622155Y-76073000D01*
X130429000Y-76073000D01*
X130175000Y-76073000D01*
X128981845Y-76073000D01*
X128860524Y-76302890D01*
X127685000Y-76302890D01*
X127685000Y-49685000D01*
X132956109Y-49685000D01*
X132830735Y-49752015D01*
G37*
%TD.AperFunction*%
D20*
X133670004Y-57730193D02*
X133641000Y-57753996D01*
X133610755Y-57790850D01*
X133235605Y-58166000D01*
X133249748Y-58180143D01*
X133070143Y-58359748D01*
X133056000Y-58345605D01*
X132242903Y-59158702D01*
X132314486Y-59402671D01*
X132569996Y-59523571D01*
X132844184Y-59592300D01*
X133126512Y-59606217D01*
X133406130Y-59564787D01*
X133421001Y-59559469D01*
X133421002Y-61592196D01*
X131790072Y-63223126D01*
X131790072Y-62396000D01*
X131777812Y-62271518D01*
X131741502Y-62151820D01*
X131682537Y-62041506D01*
X131603185Y-61944815D01*
X131506494Y-61865463D01*
X131396180Y-61806498D01*
X131276482Y-61770188D01*
X131152000Y-61757928D01*
X129886999Y-61757928D01*
X129886999Y-59604072D01*
X131356000Y-59604072D01*
X131480482Y-59591812D01*
X131600180Y-59555502D01*
X131710494Y-59496537D01*
X131807185Y-59417185D01*
X131886537Y-59320494D01*
X131945502Y-59210180D01*
X131981812Y-59090482D01*
X131994072Y-58966000D01*
X131994072Y-58958785D01*
X132063298Y-58979097D01*
X132876395Y-58166000D01*
X132063298Y-57352903D01*
X131994072Y-57373215D01*
X131994072Y-57366000D01*
X131981812Y-57241518D01*
X131961118Y-57173298D01*
X132242903Y-57173298D01*
X133056000Y-57986395D01*
X133869097Y-57173298D01*
X133797514Y-56929329D01*
X133542004Y-56808429D01*
X133267816Y-56739700D01*
X132985488Y-56725783D01*
X132705870Y-56767213D01*
X132439708Y-56862397D01*
X132314486Y-56929329D01*
X132242903Y-57173298D01*
X131961118Y-57173298D01*
X131945502Y-57121820D01*
X131886537Y-57011506D01*
X131807185Y-56914815D01*
X131710494Y-56835463D01*
X131600180Y-56776498D01*
X131480482Y-56740188D01*
X131356000Y-56727928D01*
X129886999Y-56727928D01*
X129886999Y-54829802D01*
X133569813Y-51146989D01*
X140253207Y-51146989D01*
X133670004Y-57730193D01*
%TA.AperFunction,Conductor*%
D21*
G36*
X133670004Y-57730193D02*
G01*
X133641000Y-57753996D01*
X133610755Y-57790850D01*
X133235605Y-58166000D01*
X133249748Y-58180143D01*
X133070143Y-58359748D01*
X133056000Y-58345605D01*
X132242903Y-59158702D01*
X132314486Y-59402671D01*
X132569996Y-59523571D01*
X132844184Y-59592300D01*
X133126512Y-59606217D01*
X133406130Y-59564787D01*
X133421001Y-59559469D01*
X133421002Y-61592196D01*
X131790072Y-63223126D01*
X131790072Y-62396000D01*
X131777812Y-62271518D01*
X131741502Y-62151820D01*
X131682537Y-62041506D01*
X131603185Y-61944815D01*
X131506494Y-61865463D01*
X131396180Y-61806498D01*
X131276482Y-61770188D01*
X131152000Y-61757928D01*
X129886999Y-61757928D01*
X129886999Y-59604072D01*
X131356000Y-59604072D01*
X131480482Y-59591812D01*
X131600180Y-59555502D01*
X131710494Y-59496537D01*
X131807185Y-59417185D01*
X131886537Y-59320494D01*
X131945502Y-59210180D01*
X131981812Y-59090482D01*
X131994072Y-58966000D01*
X131994072Y-58958785D01*
X132063298Y-58979097D01*
X132876395Y-58166000D01*
X132063298Y-57352903D01*
X131994072Y-57373215D01*
X131994072Y-57366000D01*
X131981812Y-57241518D01*
X131961118Y-57173298D01*
X132242903Y-57173298D01*
X133056000Y-57986395D01*
X133869097Y-57173298D01*
X133797514Y-56929329D01*
X133542004Y-56808429D01*
X133267816Y-56739700D01*
X132985488Y-56725783D01*
X132705870Y-56767213D01*
X132439708Y-56862397D01*
X132314486Y-56929329D01*
X132242903Y-57173298D01*
X131961118Y-57173298D01*
X131945502Y-57121820D01*
X131886537Y-57011506D01*
X131807185Y-56914815D01*
X131710494Y-56835463D01*
X131600180Y-56776498D01*
X131480482Y-56740188D01*
X131356000Y-56727928D01*
X129886999Y-56727928D01*
X129886999Y-54829802D01*
X133569813Y-51146989D01*
X140253207Y-51146989D01*
X133670004Y-57730193D01*
G37*
%TD.AperFunction*%
%TD*%
M02*
