%TF.GenerationSoftware,KiCad,Pcbnew,5.1.9+dfsg1-1*%
%TF.CreationDate,2021-05-25T15:45:51+02:00*%
%TF.ProjectId,vscp-din-wireless-esp32-flat,76736370-2d64-4696-9e2d-776972656c65,rev?*%
%TF.SameCoordinates,Original*%
%TF.FileFunction,Paste,Top*%
%TF.FilePolarity,Positive*%
%FSLAX46Y46*%
G04 Gerber Fmt 4.6, Leading zero omitted, Abs format (unit mm)*
G04 Created by KiCad (PCBNEW 5.1.9+dfsg1-1) date 2021-05-25 15:45:51*
%MOMM*%
%LPD*%
G01*
G04 APERTURE LIST*
%ADD10R,2.500000X1.800000*%
%ADD11R,1.000000X2.510000*%
%ADD12R,2.000000X0.900000*%
%ADD13R,0.900000X2.000000*%
%ADD14R,5.000000X5.000000*%
G04 APERTURE END LIST*
D10*
%TO.C,D2*%
X129826000Y-110744000D03*
X133826000Y-110744000D03*
%TD*%
%TO.C,C6*%
G36*
G01*
X131194000Y-94963000D02*
X131194000Y-94013000D01*
G75*
G02*
X131444000Y-93763000I250000J0D01*
G01*
X131944000Y-93763000D01*
G75*
G02*
X132194000Y-94013000I0J-250000D01*
G01*
X132194000Y-94963000D01*
G75*
G02*
X131944000Y-95213000I-250000J0D01*
G01*
X131444000Y-95213000D01*
G75*
G02*
X131194000Y-94963000I0J250000D01*
G01*
G37*
G36*
G01*
X129294000Y-94963000D02*
X129294000Y-94013000D01*
G75*
G02*
X129544000Y-93763000I250000J0D01*
G01*
X130044000Y-93763000D01*
G75*
G02*
X130294000Y-94013000I0J-250000D01*
G01*
X130294000Y-94963000D01*
G75*
G02*
X130044000Y-95213000I-250000J0D01*
G01*
X129544000Y-95213000D01*
G75*
G02*
X129294000Y-94963000I0J250000D01*
G01*
G37*
%TD*%
%TO.C,R7*%
G36*
G01*
X141420001Y-110344000D02*
X140519999Y-110344000D01*
G75*
G02*
X140270000Y-110094001I0J249999D01*
G01*
X140270000Y-109568999D01*
G75*
G02*
X140519999Y-109319000I249999J0D01*
G01*
X141420001Y-109319000D01*
G75*
G02*
X141670000Y-109568999I0J-249999D01*
G01*
X141670000Y-110094001D01*
G75*
G02*
X141420001Y-110344000I-249999J0D01*
G01*
G37*
G36*
G01*
X141420001Y-112169000D02*
X140519999Y-112169000D01*
G75*
G02*
X140270000Y-111919001I0J249999D01*
G01*
X140270000Y-111393999D01*
G75*
G02*
X140519999Y-111144000I249999J0D01*
G01*
X141420001Y-111144000D01*
G75*
G02*
X141670000Y-111393999I0J-249999D01*
G01*
X141670000Y-111919001D01*
G75*
G02*
X141420001Y-112169000I-249999J0D01*
G01*
G37*
%TD*%
D11*
%TO.C,J1*%
X163068000Y-114931000D03*
X157988000Y-114931000D03*
X152908000Y-114931000D03*
X147828000Y-114931000D03*
X142748000Y-114931000D03*
X137668000Y-114931000D03*
X132588000Y-114931000D03*
X165608000Y-118241000D03*
X160528000Y-118241000D03*
X155448000Y-118241000D03*
X150368000Y-118241000D03*
X145288000Y-118241000D03*
X140208000Y-118241000D03*
X135128000Y-118241000D03*
X130048000Y-118241000D03*
%TD*%
%TO.C,C4*%
G36*
G01*
X129852000Y-49817000D02*
X129852000Y-50767000D01*
G75*
G02*
X129602000Y-51017000I-250000J0D01*
G01*
X129102000Y-51017000D01*
G75*
G02*
X128852000Y-50767000I0J250000D01*
G01*
X128852000Y-49817000D01*
G75*
G02*
X129102000Y-49567000I250000J0D01*
G01*
X129602000Y-49567000D01*
G75*
G02*
X129852000Y-49817000I0J-250000D01*
G01*
G37*
G36*
G01*
X131752000Y-49817000D02*
X131752000Y-50767000D01*
G75*
G02*
X131502000Y-51017000I-250000J0D01*
G01*
X131002000Y-51017000D01*
G75*
G02*
X130752000Y-50767000I0J250000D01*
G01*
X130752000Y-49817000D01*
G75*
G02*
X131002000Y-49567000I250000J0D01*
G01*
X131502000Y-49567000D01*
G75*
G02*
X131752000Y-49817000I0J-250000D01*
G01*
G37*
%TD*%
%TO.C,R6*%
G36*
G01*
X160674000Y-51250001D02*
X160674000Y-50349999D01*
G75*
G02*
X160923999Y-50100000I249999J0D01*
G01*
X161449001Y-50100000D01*
G75*
G02*
X161699000Y-50349999I0J-249999D01*
G01*
X161699000Y-51250001D01*
G75*
G02*
X161449001Y-51500000I-249999J0D01*
G01*
X160923999Y-51500000D01*
G75*
G02*
X160674000Y-51250001I0J249999D01*
G01*
G37*
G36*
G01*
X158849000Y-51250001D02*
X158849000Y-50349999D01*
G75*
G02*
X159098999Y-50100000I249999J0D01*
G01*
X159624001Y-50100000D01*
G75*
G02*
X159874000Y-50349999I0J-249999D01*
G01*
X159874000Y-51250001D01*
G75*
G02*
X159624001Y-51500000I-249999J0D01*
G01*
X159098999Y-51500000D01*
G75*
G02*
X158849000Y-51250001I0J249999D01*
G01*
G37*
%TD*%
%TO.C,R2*%
G36*
G01*
X165550001Y-61322000D02*
X164649999Y-61322000D01*
G75*
G02*
X164400000Y-61072001I0J249999D01*
G01*
X164400000Y-60546999D01*
G75*
G02*
X164649999Y-60297000I249999J0D01*
G01*
X165550001Y-60297000D01*
G75*
G02*
X165800000Y-60546999I0J-249999D01*
G01*
X165800000Y-61072001D01*
G75*
G02*
X165550001Y-61322000I-249999J0D01*
G01*
G37*
G36*
G01*
X165550001Y-63147000D02*
X164649999Y-63147000D01*
G75*
G02*
X164400000Y-62897001I0J249999D01*
G01*
X164400000Y-62371999D01*
G75*
G02*
X164649999Y-62122000I249999J0D01*
G01*
X165550001Y-62122000D01*
G75*
G02*
X165800000Y-62371999I0J-249999D01*
G01*
X165800000Y-62897001D01*
G75*
G02*
X165550001Y-63147000I-249999J0D01*
G01*
G37*
%TD*%
D12*
%TO.C,U1*%
X156582000Y-50165000D03*
X156582000Y-51435000D03*
X156582000Y-52705000D03*
X156582000Y-53975000D03*
X156582000Y-55245000D03*
X156582000Y-56515000D03*
X156582000Y-57785000D03*
X156582000Y-59055000D03*
X156582000Y-60325000D03*
X156582000Y-61595000D03*
X156582000Y-62865000D03*
X156582000Y-64135000D03*
X156582000Y-65405000D03*
X156582000Y-66675000D03*
D13*
X153797000Y-67675000D03*
X152527000Y-67675000D03*
X151257000Y-67675000D03*
X149987000Y-67675000D03*
X148717000Y-67675000D03*
X147447000Y-67675000D03*
X146177000Y-67675000D03*
X144907000Y-67675000D03*
X143637000Y-67675000D03*
X142367000Y-67675000D03*
D12*
X139582000Y-66675000D03*
X139582000Y-65405000D03*
X139582000Y-64135000D03*
X139582000Y-62865000D03*
X139582000Y-61595000D03*
X139582000Y-60325000D03*
X139582000Y-59055000D03*
X139582000Y-57785000D03*
X139582000Y-56515000D03*
X139582000Y-55245000D03*
X139582000Y-53975000D03*
X139582000Y-52705000D03*
X139582000Y-51435000D03*
X139582000Y-50165000D03*
D14*
X147082000Y-57665000D03*
%TD*%
%TO.C,R8*%
G36*
G01*
X139134001Y-110344000D02*
X138233999Y-110344000D01*
G75*
G02*
X137984000Y-110094001I0J249999D01*
G01*
X137984000Y-109568999D01*
G75*
G02*
X138233999Y-109319000I249999J0D01*
G01*
X139134001Y-109319000D01*
G75*
G02*
X139384000Y-109568999I0J-249999D01*
G01*
X139384000Y-110094001D01*
G75*
G02*
X139134001Y-110344000I-249999J0D01*
G01*
G37*
G36*
G01*
X139134001Y-112169000D02*
X138233999Y-112169000D01*
G75*
G02*
X137984000Y-111919001I0J249999D01*
G01*
X137984000Y-111393999D01*
G75*
G02*
X138233999Y-111144000I249999J0D01*
G01*
X139134001Y-111144000D01*
G75*
G02*
X139384000Y-111393999I0J-249999D01*
G01*
X139384000Y-111919001D01*
G75*
G02*
X139134001Y-112169000I-249999J0D01*
G01*
G37*
%TD*%
%TO.C,R4*%
G36*
G01*
X135782000Y-54298001D02*
X135782000Y-53397999D01*
G75*
G02*
X136031999Y-53148000I249999J0D01*
G01*
X136557001Y-53148000D01*
G75*
G02*
X136807000Y-53397999I0J-249999D01*
G01*
X136807000Y-54298001D01*
G75*
G02*
X136557001Y-54548000I-249999J0D01*
G01*
X136031999Y-54548000D01*
G75*
G02*
X135782000Y-54298001I0J249999D01*
G01*
G37*
G36*
G01*
X133957000Y-54298001D02*
X133957000Y-53397999D01*
G75*
G02*
X134206999Y-53148000I249999J0D01*
G01*
X134732001Y-53148000D01*
G75*
G02*
X134982000Y-53397999I0J-249999D01*
G01*
X134982000Y-54298001D01*
G75*
G02*
X134732001Y-54548000I-249999J0D01*
G01*
X134206999Y-54548000D01*
G75*
G02*
X133957000Y-54298001I0J249999D01*
G01*
G37*
%TD*%
%TO.C,R5*%
G36*
G01*
X133712000Y-62795999D02*
X133712000Y-63696001D01*
G75*
G02*
X133462001Y-63946000I-249999J0D01*
G01*
X132936999Y-63946000D01*
G75*
G02*
X132687000Y-63696001I0J249999D01*
G01*
X132687000Y-62795999D01*
G75*
G02*
X132936999Y-62546000I249999J0D01*
G01*
X133462001Y-62546000D01*
G75*
G02*
X133712000Y-62795999I0J-249999D01*
G01*
G37*
G36*
G01*
X135537000Y-62795999D02*
X135537000Y-63696001D01*
G75*
G02*
X135287001Y-63946000I-249999J0D01*
G01*
X134761999Y-63946000D01*
G75*
G02*
X134512000Y-63696001I0J249999D01*
G01*
X134512000Y-62795999D01*
G75*
G02*
X134761999Y-62546000I249999J0D01*
G01*
X135287001Y-62546000D01*
G75*
G02*
X135537000Y-62795999I0J-249999D01*
G01*
G37*
%TD*%
%TO.C,R3*%
G36*
G01*
X134512000Y-71316001D02*
X134512000Y-70415999D01*
G75*
G02*
X134761999Y-70166000I249999J0D01*
G01*
X135287001Y-70166000D01*
G75*
G02*
X135537000Y-70415999I0J-249999D01*
G01*
X135537000Y-71316001D01*
G75*
G02*
X135287001Y-71566000I-249999J0D01*
G01*
X134761999Y-71566000D01*
G75*
G02*
X134512000Y-71316001I0J249999D01*
G01*
G37*
G36*
G01*
X132687000Y-71316001D02*
X132687000Y-70415999D01*
G75*
G02*
X132936999Y-70166000I249999J0D01*
G01*
X133462001Y-70166000D01*
G75*
G02*
X133712000Y-70415999I0J-249999D01*
G01*
X133712000Y-71316001D01*
G75*
G02*
X133462001Y-71566000I-249999J0D01*
G01*
X132936999Y-71566000D01*
G75*
G02*
X132687000Y-71316001I0J249999D01*
G01*
G37*
%TD*%
%TO.C,R1*%
G36*
G01*
X160978001Y-61322000D02*
X160077999Y-61322000D01*
G75*
G02*
X159828000Y-61072001I0J249999D01*
G01*
X159828000Y-60546999D01*
G75*
G02*
X160077999Y-60297000I249999J0D01*
G01*
X160978001Y-60297000D01*
G75*
G02*
X161228000Y-60546999I0J-249999D01*
G01*
X161228000Y-61072001D01*
G75*
G02*
X160978001Y-61322000I-249999J0D01*
G01*
G37*
G36*
G01*
X160978001Y-63147000D02*
X160077999Y-63147000D01*
G75*
G02*
X159828000Y-62897001I0J249999D01*
G01*
X159828000Y-62371999D01*
G75*
G02*
X160077999Y-62122000I249999J0D01*
G01*
X160978001Y-62122000D01*
G75*
G02*
X161228000Y-62371999I0J-249999D01*
G01*
X161228000Y-62897001D01*
G75*
G02*
X160978001Y-63147000I-249999J0D01*
G01*
G37*
%TD*%
%TO.C,C1*%
G36*
G01*
X136619000Y-50350000D02*
X135669000Y-50350000D01*
G75*
G02*
X135419000Y-50100000I0J250000D01*
G01*
X135419000Y-49600000D01*
G75*
G02*
X135669000Y-49350000I250000J0D01*
G01*
X136619000Y-49350000D01*
G75*
G02*
X136869000Y-49600000I0J-250000D01*
G01*
X136869000Y-50100000D01*
G75*
G02*
X136619000Y-50350000I-250000J0D01*
G01*
G37*
G36*
G01*
X136619000Y-52250000D02*
X135669000Y-52250000D01*
G75*
G02*
X135419000Y-52000000I0J250000D01*
G01*
X135419000Y-51500000D01*
G75*
G02*
X135669000Y-51250000I250000J0D01*
G01*
X136619000Y-51250000D01*
G75*
G02*
X136869000Y-51500000I0J-250000D01*
G01*
X136869000Y-52000000D01*
G75*
G02*
X136619000Y-52250000I-250000J0D01*
G01*
G37*
%TD*%
%TO.C,C3*%
G36*
G01*
X135669000Y-57600000D02*
X136619000Y-57600000D01*
G75*
G02*
X136869000Y-57850000I0J-250000D01*
G01*
X136869000Y-58350000D01*
G75*
G02*
X136619000Y-58600000I-250000J0D01*
G01*
X135669000Y-58600000D01*
G75*
G02*
X135419000Y-58350000I0J250000D01*
G01*
X135419000Y-57850000D01*
G75*
G02*
X135669000Y-57600000I250000J0D01*
G01*
G37*
G36*
G01*
X135669000Y-55700000D02*
X136619000Y-55700000D01*
G75*
G02*
X136869000Y-55950000I0J-250000D01*
G01*
X136869000Y-56450000D01*
G75*
G02*
X136619000Y-56700000I-250000J0D01*
G01*
X135669000Y-56700000D01*
G75*
G02*
X135419000Y-56450000I0J250000D01*
G01*
X135419000Y-55950000D01*
G75*
G02*
X135669000Y-55700000I250000J0D01*
G01*
G37*
%TD*%
M02*
