%TF.GenerationSoftware,KiCad,Pcbnew,5.1.9+dfsg1-1*%
%TF.CreationDate,2021-05-25T15:45:51+02:00*%
%TF.ProjectId,vscp-din-wireless-esp32-flat,76736370-2d64-4696-9e2d-776972656c65,rev?*%
%TF.SameCoordinates,Original*%
%TF.FileFunction,Legend,Top*%
%TF.FilePolarity,Positive*%
%FSLAX46Y46*%
G04 Gerber Fmt 4.6, Leading zero omitted, Abs format (unit mm)*
G04 Created by KiCad (PCBNEW 5.1.9+dfsg1-1) date 2021-05-25 15:45:51*
%MOMM*%
%LPD*%
G01*
G04 APERTURE LIST*
%ADD10C,0.300000*%
%ADD11C,0.120000*%
%ADD12C,0.010000*%
%ADD13C,0.150000*%
G04 APERTURE END LIST*
D10*
X129014571Y-81215571D02*
X129514571Y-82715571D01*
X130014571Y-81215571D01*
X130443142Y-82644142D02*
X130657428Y-82715571D01*
X131014571Y-82715571D01*
X131157428Y-82644142D01*
X131228857Y-82572714D01*
X131300285Y-82429857D01*
X131300285Y-82287000D01*
X131228857Y-82144142D01*
X131157428Y-82072714D01*
X131014571Y-82001285D01*
X130728857Y-81929857D01*
X130586000Y-81858428D01*
X130514571Y-81787000D01*
X130443142Y-81644142D01*
X130443142Y-81501285D01*
X130514571Y-81358428D01*
X130586000Y-81287000D01*
X130728857Y-81215571D01*
X131086000Y-81215571D01*
X131300285Y-81287000D01*
X132800285Y-82572714D02*
X132728857Y-82644142D01*
X132514571Y-82715571D01*
X132371714Y-82715571D01*
X132157428Y-82644142D01*
X132014571Y-82501285D01*
X131943142Y-82358428D01*
X131871714Y-82072714D01*
X131871714Y-81858428D01*
X131943142Y-81572714D01*
X132014571Y-81429857D01*
X132157428Y-81287000D01*
X132371714Y-81215571D01*
X132514571Y-81215571D01*
X132728857Y-81287000D01*
X132800285Y-81358428D01*
X133443142Y-82715571D02*
X133443142Y-81215571D01*
X134014571Y-81215571D01*
X134157428Y-81287000D01*
X134228857Y-81358428D01*
X134300285Y-81501285D01*
X134300285Y-81715571D01*
X134228857Y-81858428D01*
X134157428Y-81929857D01*
X134014571Y-82001285D01*
X133443142Y-82001285D01*
X136086000Y-82715571D02*
X136086000Y-81215571D01*
X136443142Y-81215571D01*
X136657428Y-81287000D01*
X136800285Y-81429857D01*
X136871714Y-81572714D01*
X136943142Y-81858428D01*
X136943142Y-82072714D01*
X136871714Y-82358428D01*
X136800285Y-82501285D01*
X136657428Y-82644142D01*
X136443142Y-82715571D01*
X136086000Y-82715571D01*
X137586000Y-82715571D02*
X137586000Y-81215571D01*
X138300285Y-82715571D02*
X138300285Y-81215571D01*
X139157428Y-82715571D01*
X139157428Y-81215571D01*
X140871714Y-81215571D02*
X141228857Y-82715571D01*
X141514571Y-81644142D01*
X141800285Y-82715571D01*
X142157428Y-81215571D01*
X142728857Y-82715571D02*
X142728857Y-81715571D01*
X142728857Y-81215571D02*
X142657428Y-81287000D01*
X142728857Y-81358428D01*
X142800285Y-81287000D01*
X142728857Y-81215571D01*
X142728857Y-81358428D01*
X143443142Y-82715571D02*
X143443142Y-81715571D01*
X143443142Y-82001285D02*
X143514571Y-81858428D01*
X143586000Y-81787000D01*
X143728857Y-81715571D01*
X143871714Y-81715571D01*
X144943142Y-82644142D02*
X144800285Y-82715571D01*
X144514571Y-82715571D01*
X144371714Y-82644142D01*
X144300285Y-82501285D01*
X144300285Y-81929857D01*
X144371714Y-81787000D01*
X144514571Y-81715571D01*
X144800285Y-81715571D01*
X144943142Y-81787000D01*
X145014571Y-81929857D01*
X145014571Y-82072714D01*
X144300285Y-82215571D01*
X145871714Y-82715571D02*
X145728857Y-82644142D01*
X145657428Y-82501285D01*
X145657428Y-81215571D01*
X147014571Y-82644142D02*
X146871714Y-82715571D01*
X146586000Y-82715571D01*
X146443142Y-82644142D01*
X146371714Y-82501285D01*
X146371714Y-81929857D01*
X146443142Y-81787000D01*
X146586000Y-81715571D01*
X146871714Y-81715571D01*
X147014571Y-81787000D01*
X147086000Y-81929857D01*
X147086000Y-82072714D01*
X146371714Y-82215571D01*
X147657428Y-82644142D02*
X147800285Y-82715571D01*
X148086000Y-82715571D01*
X148228857Y-82644142D01*
X148300285Y-82501285D01*
X148300285Y-82429857D01*
X148228857Y-82287000D01*
X148086000Y-82215571D01*
X147871714Y-82215571D01*
X147728857Y-82144142D01*
X147657428Y-82001285D01*
X147657428Y-81929857D01*
X147728857Y-81787000D01*
X147871714Y-81715571D01*
X148086000Y-81715571D01*
X148228857Y-81787000D01*
X148871714Y-82644142D02*
X149014571Y-82715571D01*
X149300285Y-82715571D01*
X149443142Y-82644142D01*
X149514571Y-82501285D01*
X149514571Y-82429857D01*
X149443142Y-82287000D01*
X149300285Y-82215571D01*
X149086000Y-82215571D01*
X148943142Y-82144142D01*
X148871714Y-82001285D01*
X148871714Y-81929857D01*
X148943142Y-81787000D01*
X149086000Y-81715571D01*
X149300285Y-81715571D01*
X149443142Y-81787000D01*
X151300285Y-81929857D02*
X151800285Y-81929857D01*
X152014571Y-82715571D02*
X151300285Y-82715571D01*
X151300285Y-81215571D01*
X152014571Y-81215571D01*
X152586000Y-82644142D02*
X152800285Y-82715571D01*
X153157428Y-82715571D01*
X153300285Y-82644142D01*
X153371714Y-82572714D01*
X153443142Y-82429857D01*
X153443142Y-82287000D01*
X153371714Y-82144142D01*
X153300285Y-82072714D01*
X153157428Y-82001285D01*
X152871714Y-81929857D01*
X152728857Y-81858428D01*
X152657428Y-81787000D01*
X152586000Y-81644142D01*
X152586000Y-81501285D01*
X152657428Y-81358428D01*
X152728857Y-81287000D01*
X152871714Y-81215571D01*
X153228857Y-81215571D01*
X153443142Y-81287000D01*
X154086000Y-82715571D02*
X154086000Y-81215571D01*
X154657428Y-81215571D01*
X154800285Y-81287000D01*
X154871714Y-81358428D01*
X154943142Y-81501285D01*
X154943142Y-81715571D01*
X154871714Y-81858428D01*
X154800285Y-81929857D01*
X154657428Y-82001285D01*
X154086000Y-82001285D01*
X155443142Y-81215571D02*
X156371714Y-81215571D01*
X155871714Y-81787000D01*
X156086000Y-81787000D01*
X156228857Y-81858428D01*
X156300285Y-81929857D01*
X156371714Y-82072714D01*
X156371714Y-82429857D01*
X156300285Y-82572714D01*
X156228857Y-82644142D01*
X156086000Y-82715571D01*
X155657428Y-82715571D01*
X155514571Y-82644142D01*
X155443142Y-82572714D01*
X156943142Y-81358428D02*
X157014571Y-81287000D01*
X157157428Y-81215571D01*
X157514571Y-81215571D01*
X157657428Y-81287000D01*
X157728857Y-81358428D01*
X157800285Y-81501285D01*
X157800285Y-81644142D01*
X157728857Y-81858428D01*
X156871714Y-82715571D01*
X157800285Y-82715571D01*
X159586000Y-82715571D02*
X159586000Y-81215571D01*
X160086000Y-82287000D01*
X160586000Y-81215571D01*
X160586000Y-82715571D01*
X162086000Y-82715571D02*
X161228857Y-82715571D01*
X161657428Y-82715571D02*
X161657428Y-81215571D01*
X161514571Y-81429857D01*
X161371714Y-81572714D01*
X161228857Y-81644142D01*
X164371714Y-81929857D02*
X163871714Y-81929857D01*
X163871714Y-82715571D02*
X163871714Y-81215571D01*
X164586000Y-81215571D01*
X165371714Y-82715571D02*
X165228857Y-82644142D01*
X165157428Y-82501285D01*
X165157428Y-81215571D01*
X166586000Y-82715571D02*
X166586000Y-81929857D01*
X166514571Y-81787000D01*
X166371714Y-81715571D01*
X166086000Y-81715571D01*
X165943142Y-81787000D01*
X166586000Y-82644142D02*
X166443142Y-82715571D01*
X166086000Y-82715571D01*
X165943142Y-82644142D01*
X165871714Y-82501285D01*
X165871714Y-82358428D01*
X165943142Y-82215571D01*
X166086000Y-82144142D01*
X166443142Y-82144142D01*
X166586000Y-82072714D01*
X167086000Y-81715571D02*
X167657428Y-81715571D01*
X167300285Y-81215571D02*
X167300285Y-82501285D01*
X167371714Y-82644142D01*
X167514571Y-82715571D01*
X167657428Y-82715571D01*
X146371714Y-85265571D02*
X145871714Y-84551285D01*
X145514571Y-85265571D02*
X145514571Y-83765571D01*
X146086000Y-83765571D01*
X146228857Y-83837000D01*
X146300285Y-83908428D01*
X146371714Y-84051285D01*
X146371714Y-84265571D01*
X146300285Y-84408428D01*
X146228857Y-84479857D01*
X146086000Y-84551285D01*
X145514571Y-84551285D01*
X147586000Y-85194142D02*
X147443142Y-85265571D01*
X147157428Y-85265571D01*
X147014571Y-85194142D01*
X146943142Y-85051285D01*
X146943142Y-84479857D01*
X147014571Y-84337000D01*
X147157428Y-84265571D01*
X147443142Y-84265571D01*
X147586000Y-84337000D01*
X147657428Y-84479857D01*
X147657428Y-84622714D01*
X146943142Y-84765571D01*
X148157428Y-84265571D02*
X148514571Y-85265571D01*
X148871714Y-84265571D01*
X150514571Y-84837000D02*
X151228857Y-84837000D01*
X150371714Y-85265571D02*
X150871714Y-83765571D01*
X151371714Y-85265571D01*
X137431142Y-87383000D02*
X137288285Y-87311571D01*
X137074000Y-87311571D01*
X136859714Y-87383000D01*
X136716857Y-87525857D01*
X136645428Y-87668714D01*
X136574000Y-87954428D01*
X136574000Y-88168714D01*
X136645428Y-88454428D01*
X136716857Y-88597285D01*
X136859714Y-88740142D01*
X137074000Y-88811571D01*
X137216857Y-88811571D01*
X137431142Y-88740142D01*
X137502571Y-88668714D01*
X137502571Y-88168714D01*
X137216857Y-88168714D01*
X138145428Y-88811571D02*
X138145428Y-87811571D01*
X138145428Y-88097285D02*
X138216857Y-87954428D01*
X138288285Y-87883000D01*
X138431142Y-87811571D01*
X138574000Y-87811571D01*
X139288285Y-88811571D02*
X139145428Y-88740142D01*
X139074000Y-88668714D01*
X139002571Y-88525857D01*
X139002571Y-88097285D01*
X139074000Y-87954428D01*
X139145428Y-87883000D01*
X139288285Y-87811571D01*
X139502571Y-87811571D01*
X139645428Y-87883000D01*
X139716857Y-87954428D01*
X139788285Y-88097285D01*
X139788285Y-88525857D01*
X139716857Y-88668714D01*
X139645428Y-88740142D01*
X139502571Y-88811571D01*
X139288285Y-88811571D01*
X141074000Y-88811571D02*
X141074000Y-87311571D01*
X141074000Y-88740142D02*
X140931142Y-88811571D01*
X140645428Y-88811571D01*
X140502571Y-88740142D01*
X140431142Y-88668714D01*
X140359714Y-88525857D01*
X140359714Y-88097285D01*
X140431142Y-87954428D01*
X140502571Y-87883000D01*
X140645428Y-87811571D01*
X140931142Y-87811571D01*
X141074000Y-87883000D01*
X142431142Y-88811571D02*
X142431142Y-88025857D01*
X142359714Y-87883000D01*
X142216857Y-87811571D01*
X141931142Y-87811571D01*
X141788285Y-87883000D01*
X142431142Y-88740142D02*
X142288285Y-88811571D01*
X141931142Y-88811571D01*
X141788285Y-88740142D01*
X141716857Y-88597285D01*
X141716857Y-88454428D01*
X141788285Y-88311571D01*
X141931142Y-88240142D01*
X142288285Y-88240142D01*
X142431142Y-88168714D01*
X143145428Y-87811571D02*
X143145428Y-88811571D01*
X143145428Y-87954428D02*
X143216857Y-87883000D01*
X143359714Y-87811571D01*
X143574000Y-87811571D01*
X143716857Y-87883000D01*
X143788285Y-88025857D01*
X143788285Y-88811571D01*
X144431142Y-88740142D02*
X144574000Y-88811571D01*
X144859714Y-88811571D01*
X145002571Y-88740142D01*
X145074000Y-88597285D01*
X145074000Y-88525857D01*
X145002571Y-88383000D01*
X144859714Y-88311571D01*
X144645428Y-88311571D01*
X144502571Y-88240142D01*
X144431142Y-88097285D01*
X144431142Y-88025857D01*
X144502571Y-87883000D01*
X144645428Y-87811571D01*
X144859714Y-87811571D01*
X145002571Y-87883000D01*
X146859714Y-88811571D02*
X146859714Y-87311571D01*
X147431142Y-87311571D01*
X147574000Y-87383000D01*
X147645428Y-87454428D01*
X147716857Y-87597285D01*
X147716857Y-87811571D01*
X147645428Y-87954428D01*
X147574000Y-88025857D01*
X147431142Y-88097285D01*
X146859714Y-88097285D01*
X149002571Y-88811571D02*
X149002571Y-88025857D01*
X148931142Y-87883000D01*
X148788285Y-87811571D01*
X148502571Y-87811571D01*
X148359714Y-87883000D01*
X149002571Y-88740142D02*
X148859714Y-88811571D01*
X148502571Y-88811571D01*
X148359714Y-88740142D01*
X148288285Y-88597285D01*
X148288285Y-88454428D01*
X148359714Y-88311571D01*
X148502571Y-88240142D01*
X148859714Y-88240142D01*
X149002571Y-88168714D01*
X149716857Y-88811571D02*
X149716857Y-87811571D01*
X149716857Y-88097285D02*
X149788285Y-87954428D01*
X149859714Y-87883000D01*
X150002571Y-87811571D01*
X150145428Y-87811571D01*
X151288285Y-88811571D02*
X151288285Y-88025857D01*
X151216857Y-87883000D01*
X151074000Y-87811571D01*
X150788285Y-87811571D01*
X150645428Y-87883000D01*
X151288285Y-88740142D02*
X151145428Y-88811571D01*
X150788285Y-88811571D01*
X150645428Y-88740142D01*
X150574000Y-88597285D01*
X150574000Y-88454428D01*
X150645428Y-88311571D01*
X150788285Y-88240142D01*
X151145428Y-88240142D01*
X151288285Y-88168714D01*
X152645428Y-88811571D02*
X152645428Y-87311571D01*
X152645428Y-88740142D02*
X152502571Y-88811571D01*
X152216857Y-88811571D01*
X152074000Y-88740142D01*
X152002571Y-88668714D01*
X151931142Y-88525857D01*
X151931142Y-88097285D01*
X152002571Y-87954428D01*
X152074000Y-87883000D01*
X152216857Y-87811571D01*
X152502571Y-87811571D01*
X152645428Y-87883000D01*
X153359714Y-88811571D02*
X153359714Y-87811571D01*
X153359714Y-87311571D02*
X153288285Y-87383000D01*
X153359714Y-87454428D01*
X153431142Y-87383000D01*
X153359714Y-87311571D01*
X153359714Y-87454428D01*
X154002571Y-88740142D02*
X154145428Y-88811571D01*
X154431142Y-88811571D01*
X154574000Y-88740142D01*
X154645428Y-88597285D01*
X154645428Y-88525857D01*
X154574000Y-88383000D01*
X154431142Y-88311571D01*
X154216857Y-88311571D01*
X154074000Y-88240142D01*
X154002571Y-88097285D01*
X154002571Y-88025857D01*
X154074000Y-87883000D01*
X154216857Y-87811571D01*
X154431142Y-87811571D01*
X154574000Y-87883000D01*
X156359714Y-88383000D02*
X157073999Y-88383000D01*
X156216857Y-88811571D02*
X156716857Y-87311571D01*
X157216857Y-88811571D01*
X158216857Y-88025857D02*
X158431142Y-88097285D01*
X158502571Y-88168714D01*
X158573999Y-88311571D01*
X158573999Y-88525857D01*
X158502571Y-88668714D01*
X158431142Y-88740142D01*
X158288285Y-88811571D01*
X157716857Y-88811571D01*
X157716857Y-87311571D01*
X158216857Y-87311571D01*
X158359714Y-87383000D01*
X158431142Y-87454428D01*
X158502571Y-87597285D01*
X158502571Y-87740142D01*
X158431142Y-87883000D01*
X158359714Y-87954428D01*
X158216857Y-88025857D01*
X157716857Y-88025857D01*
X129181142Y-91361571D02*
X129181142Y-89861571D01*
X129824000Y-91361571D02*
X129824000Y-90575857D01*
X129752571Y-90433000D01*
X129609714Y-90361571D01*
X129395428Y-90361571D01*
X129252571Y-90433000D01*
X129181142Y-90504428D01*
X130324000Y-90361571D02*
X130895428Y-90361571D01*
X130538285Y-89861571D02*
X130538285Y-91147285D01*
X130609714Y-91290142D01*
X130752571Y-91361571D01*
X130895428Y-91361571D01*
X131181142Y-90361571D02*
X131752571Y-90361571D01*
X131395428Y-89861571D02*
X131395428Y-91147285D01*
X131466857Y-91290142D01*
X131609714Y-91361571D01*
X131752571Y-91361571D01*
X132252571Y-90361571D02*
X132252571Y-91861571D01*
X132252571Y-90433000D02*
X132395428Y-90361571D01*
X132681142Y-90361571D01*
X132824000Y-90433000D01*
X132895428Y-90504428D01*
X132966857Y-90647285D01*
X132966857Y-91075857D01*
X132895428Y-91218714D01*
X132824000Y-91290142D01*
X132681142Y-91361571D01*
X132395428Y-91361571D01*
X132252571Y-91290142D01*
X133538285Y-91290142D02*
X133681142Y-91361571D01*
X133966857Y-91361571D01*
X134109714Y-91290142D01*
X134181142Y-91147285D01*
X134181142Y-91075857D01*
X134109714Y-90933000D01*
X133966857Y-90861571D01*
X133752571Y-90861571D01*
X133609714Y-90790142D01*
X133538285Y-90647285D01*
X133538285Y-90575857D01*
X133609714Y-90433000D01*
X133752571Y-90361571D01*
X133966857Y-90361571D01*
X134109714Y-90433000D01*
X134824000Y-91218714D02*
X134895428Y-91290142D01*
X134824000Y-91361571D01*
X134752571Y-91290142D01*
X134824000Y-91218714D01*
X134824000Y-91361571D01*
X134824000Y-90433000D02*
X134895428Y-90504428D01*
X134824000Y-90575857D01*
X134752571Y-90504428D01*
X134824000Y-90433000D01*
X134824000Y-90575857D01*
X136609714Y-89790142D02*
X135324000Y-91718714D01*
X138181142Y-89790142D02*
X136895428Y-91718714D01*
X138538285Y-90361571D02*
X138824000Y-91361571D01*
X139109714Y-90647285D01*
X139395428Y-91361571D01*
X139681142Y-90361571D01*
X140109714Y-90361571D02*
X140395428Y-91361571D01*
X140681142Y-90647285D01*
X140966857Y-91361571D01*
X141252571Y-90361571D01*
X141681142Y-90361571D02*
X141966857Y-91361571D01*
X142252571Y-90647285D01*
X142538285Y-91361571D01*
X142824000Y-90361571D01*
X143395428Y-91218714D02*
X143466857Y-91290142D01*
X143395428Y-91361571D01*
X143324000Y-91290142D01*
X143395428Y-91218714D01*
X143395428Y-91361571D01*
X144752571Y-90361571D02*
X144752571Y-91575857D01*
X144681142Y-91718714D01*
X144609714Y-91790142D01*
X144466857Y-91861571D01*
X144252571Y-91861571D01*
X144109714Y-91790142D01*
X144752571Y-91290142D02*
X144609714Y-91361571D01*
X144324000Y-91361571D01*
X144181142Y-91290142D01*
X144109714Y-91218714D01*
X144038285Y-91075857D01*
X144038285Y-90647285D01*
X144109714Y-90504428D01*
X144181142Y-90433000D01*
X144324000Y-90361571D01*
X144609714Y-90361571D01*
X144752571Y-90433000D01*
X145466857Y-91361571D02*
X145466857Y-90361571D01*
X145466857Y-90647285D02*
X145538285Y-90504428D01*
X145609714Y-90433000D01*
X145752571Y-90361571D01*
X145895428Y-90361571D01*
X146609714Y-91361571D02*
X146466857Y-91290142D01*
X146395428Y-91218714D01*
X146324000Y-91075857D01*
X146324000Y-90647285D01*
X146395428Y-90504428D01*
X146466857Y-90433000D01*
X146609714Y-90361571D01*
X146824000Y-90361571D01*
X146966857Y-90433000D01*
X147038285Y-90504428D01*
X147109714Y-90647285D01*
X147109714Y-91075857D01*
X147038285Y-91218714D01*
X146966857Y-91290142D01*
X146824000Y-91361571D01*
X146609714Y-91361571D01*
X148395428Y-91361571D02*
X148395428Y-89861571D01*
X148395428Y-91290142D02*
X148252571Y-91361571D01*
X147966857Y-91361571D01*
X147824000Y-91290142D01*
X147752571Y-91218714D01*
X147681142Y-91075857D01*
X147681142Y-90647285D01*
X147752571Y-90504428D01*
X147824000Y-90433000D01*
X147966857Y-90361571D01*
X148252571Y-90361571D01*
X148395428Y-90433000D01*
X149752571Y-91361571D02*
X149752571Y-90575857D01*
X149681142Y-90433000D01*
X149538285Y-90361571D01*
X149252571Y-90361571D01*
X149109714Y-90433000D01*
X149752571Y-91290142D02*
X149609714Y-91361571D01*
X149252571Y-91361571D01*
X149109714Y-91290142D01*
X149038285Y-91147285D01*
X149038285Y-91004428D01*
X149109714Y-90861571D01*
X149252571Y-90790142D01*
X149609714Y-90790142D01*
X149752571Y-90718714D01*
X150466857Y-90361571D02*
X150466857Y-91361571D01*
X150466857Y-90504428D02*
X150538285Y-90433000D01*
X150681142Y-90361571D01*
X150895428Y-90361571D01*
X151038285Y-90433000D01*
X151109714Y-90575857D01*
X151109714Y-91361571D01*
X151752571Y-91290142D02*
X151895428Y-91361571D01*
X152181142Y-91361571D01*
X152324000Y-91290142D01*
X152395428Y-91147285D01*
X152395428Y-91075857D01*
X152324000Y-90933000D01*
X152181142Y-90861571D01*
X151966857Y-90861571D01*
X151824000Y-90790142D01*
X151752571Y-90647285D01*
X151752571Y-90575857D01*
X151824000Y-90433000D01*
X151966857Y-90361571D01*
X152181142Y-90361571D01*
X152324000Y-90433000D01*
X153038285Y-90361571D02*
X153038285Y-91861571D01*
X153038285Y-90433000D02*
X153181142Y-90361571D01*
X153466857Y-90361571D01*
X153609714Y-90433000D01*
X153681142Y-90504428D01*
X153752571Y-90647285D01*
X153752571Y-91075857D01*
X153681142Y-91218714D01*
X153609714Y-91290142D01*
X153466857Y-91361571D01*
X153181142Y-91361571D01*
X153038285Y-91290142D01*
X155038285Y-91361571D02*
X155038285Y-90575857D01*
X154966857Y-90433000D01*
X154824000Y-90361571D01*
X154538285Y-90361571D01*
X154395428Y-90433000D01*
X155038285Y-91290142D02*
X154895428Y-91361571D01*
X154538285Y-91361571D01*
X154395428Y-91290142D01*
X154324000Y-91147285D01*
X154324000Y-91004428D01*
X154395428Y-90861571D01*
X154538285Y-90790142D01*
X154895428Y-90790142D01*
X155038285Y-90718714D01*
X155752571Y-91361571D02*
X155752571Y-90361571D01*
X155752571Y-90647285D02*
X155824000Y-90504428D01*
X155895428Y-90433000D01*
X156038285Y-90361571D01*
X156181142Y-90361571D01*
X157324000Y-91361571D02*
X157324000Y-90575857D01*
X157252571Y-90433000D01*
X157109714Y-90361571D01*
X156824000Y-90361571D01*
X156681142Y-90433000D01*
X157324000Y-91290142D02*
X157181142Y-91361571D01*
X156824000Y-91361571D01*
X156681142Y-91290142D01*
X156609714Y-91147285D01*
X156609714Y-91004428D01*
X156681142Y-90861571D01*
X156824000Y-90790142D01*
X157181142Y-90790142D01*
X157324000Y-90718714D01*
X158681142Y-91361571D02*
X158681142Y-89861571D01*
X158681142Y-91290142D02*
X158538285Y-91361571D01*
X158252571Y-91361571D01*
X158109714Y-91290142D01*
X158038285Y-91218714D01*
X157966857Y-91075857D01*
X157966857Y-90647285D01*
X158038285Y-90504428D01*
X158109714Y-90433000D01*
X158252571Y-90361571D01*
X158538285Y-90361571D01*
X158681142Y-90433000D01*
X159395428Y-91361571D02*
X159395428Y-90361571D01*
X159395428Y-89861571D02*
X159324000Y-89933000D01*
X159395428Y-90004428D01*
X159466857Y-89933000D01*
X159395428Y-89861571D01*
X159395428Y-90004428D01*
X160038285Y-91290142D02*
X160181142Y-91361571D01*
X160466857Y-91361571D01*
X160609714Y-91290142D01*
X160681142Y-91147285D01*
X160681142Y-91075857D01*
X160609714Y-90933000D01*
X160466857Y-90861571D01*
X160252571Y-90861571D01*
X160109714Y-90790142D01*
X160038285Y-90647285D01*
X160038285Y-90575857D01*
X160109714Y-90433000D01*
X160252571Y-90361571D01*
X160466857Y-90361571D01*
X160609714Y-90433000D01*
X161324000Y-91218714D02*
X161395428Y-91290142D01*
X161324000Y-91361571D01*
X161252571Y-91290142D01*
X161324000Y-91218714D01*
X161324000Y-91361571D01*
X162681142Y-91290142D02*
X162538285Y-91361571D01*
X162252571Y-91361571D01*
X162109714Y-91290142D01*
X162038285Y-91218714D01*
X161966857Y-91075857D01*
X161966857Y-90647285D01*
X162038285Y-90504428D01*
X162109714Y-90433000D01*
X162252571Y-90361571D01*
X162538285Y-90361571D01*
X162681142Y-90433000D01*
X163538285Y-91361571D02*
X163395428Y-91290142D01*
X163324000Y-91218714D01*
X163252571Y-91075857D01*
X163252571Y-90647285D01*
X163324000Y-90504428D01*
X163395428Y-90433000D01*
X163538285Y-90361571D01*
X163752571Y-90361571D01*
X163895428Y-90433000D01*
X163966857Y-90504428D01*
X164038285Y-90647285D01*
X164038285Y-91075857D01*
X163966857Y-91218714D01*
X163895428Y-91290142D01*
X163752571Y-91361571D01*
X163538285Y-91361571D01*
X164681142Y-91361571D02*
X164681142Y-90361571D01*
X164681142Y-90504428D02*
X164752571Y-90433000D01*
X164895428Y-90361571D01*
X165109714Y-90361571D01*
X165252571Y-90433000D01*
X165324000Y-90575857D01*
X165324000Y-91361571D01*
X165324000Y-90575857D02*
X165395428Y-90433000D01*
X165538285Y-90361571D01*
X165752571Y-90361571D01*
X165895428Y-90433000D01*
X165966857Y-90575857D01*
X165966857Y-91361571D01*
D11*
%TO.C,U2*%
X128764000Y-108158000D02*
X128764000Y-106918000D01*
X130004000Y-108158000D02*
X128764000Y-108158000D01*
X129004000Y-96298000D02*
X137624000Y-96298000D01*
X129004000Y-107918000D02*
X137624000Y-107918000D01*
X137624000Y-107918000D02*
X137624000Y-96298000D01*
X129004000Y-107918000D02*
X129004000Y-96298000D01*
%TO.C,D2*%
X135226000Y-112394000D02*
X129826000Y-112394000D01*
X135226000Y-109094000D02*
X129826000Y-109094000D01*
X135226000Y-112394000D02*
X135226000Y-109094000D01*
%TO.C,C6*%
X130482748Y-95223000D02*
X131005252Y-95223000D01*
X130482748Y-93753000D02*
X131005252Y-93753000D01*
%TO.C,C5*%
X139665225Y-103939000D02*
X139665225Y-104439000D01*
X139415225Y-104189000D02*
X139915225Y-104189000D01*
X144821000Y-105380000D02*
X144821000Y-105948000D01*
X144781000Y-105146000D02*
X144781000Y-106182000D01*
X144741000Y-104987000D02*
X144741000Y-106341000D01*
X144701000Y-104859000D02*
X144701000Y-106469000D01*
X144661000Y-104749000D02*
X144661000Y-106579000D01*
X144621000Y-104653000D02*
X144621000Y-106675000D01*
X144581000Y-104566000D02*
X144581000Y-106762000D01*
X144541000Y-104486000D02*
X144541000Y-106842000D01*
X144501000Y-106704000D02*
X144501000Y-106915000D01*
X144501000Y-104413000D02*
X144501000Y-104624000D01*
X144461000Y-106704000D02*
X144461000Y-106983000D01*
X144461000Y-104345000D02*
X144461000Y-104624000D01*
X144421000Y-106704000D02*
X144421000Y-107047000D01*
X144421000Y-104281000D02*
X144421000Y-104624000D01*
X144381000Y-106704000D02*
X144381000Y-107107000D01*
X144381000Y-104221000D02*
X144381000Y-104624000D01*
X144341000Y-106704000D02*
X144341000Y-107164000D01*
X144341000Y-104164000D02*
X144341000Y-104624000D01*
X144301000Y-106704000D02*
X144301000Y-107218000D01*
X144301000Y-104110000D02*
X144301000Y-104624000D01*
X144261000Y-106704000D02*
X144261000Y-107269000D01*
X144261000Y-104059000D02*
X144261000Y-104624000D01*
X144221000Y-106704000D02*
X144221000Y-107317000D01*
X144221000Y-104011000D02*
X144221000Y-104624000D01*
X144181000Y-106704000D02*
X144181000Y-107363000D01*
X144181000Y-103965000D02*
X144181000Y-104624000D01*
X144141000Y-106704000D02*
X144141000Y-107407000D01*
X144141000Y-103921000D02*
X144141000Y-104624000D01*
X144101000Y-106704000D02*
X144101000Y-107449000D01*
X144101000Y-103879000D02*
X144101000Y-104624000D01*
X144061000Y-106704000D02*
X144061000Y-107490000D01*
X144061000Y-103838000D02*
X144061000Y-104624000D01*
X144021000Y-106704000D02*
X144021000Y-107528000D01*
X144021000Y-103800000D02*
X144021000Y-104624000D01*
X143981000Y-106704000D02*
X143981000Y-107565000D01*
X143981000Y-103763000D02*
X143981000Y-104624000D01*
X143941000Y-106704000D02*
X143941000Y-107601000D01*
X143941000Y-103727000D02*
X143941000Y-104624000D01*
X143901000Y-106704000D02*
X143901000Y-107635000D01*
X143901000Y-103693000D02*
X143901000Y-104624000D01*
X143861000Y-106704000D02*
X143861000Y-107668000D01*
X143861000Y-103660000D02*
X143861000Y-104624000D01*
X143821000Y-106704000D02*
X143821000Y-107699000D01*
X143821000Y-103629000D02*
X143821000Y-104624000D01*
X143781000Y-106704000D02*
X143781000Y-107729000D01*
X143781000Y-103599000D02*
X143781000Y-104624000D01*
X143741000Y-106704000D02*
X143741000Y-107759000D01*
X143741000Y-103569000D02*
X143741000Y-104624000D01*
X143701000Y-106704000D02*
X143701000Y-107786000D01*
X143701000Y-103542000D02*
X143701000Y-104624000D01*
X143661000Y-106704000D02*
X143661000Y-107813000D01*
X143661000Y-103515000D02*
X143661000Y-104624000D01*
X143621000Y-106704000D02*
X143621000Y-107839000D01*
X143621000Y-103489000D02*
X143621000Y-104624000D01*
X143581000Y-106704000D02*
X143581000Y-107864000D01*
X143581000Y-103464000D02*
X143581000Y-104624000D01*
X143541000Y-106704000D02*
X143541000Y-107888000D01*
X143541000Y-103440000D02*
X143541000Y-104624000D01*
X143501000Y-106704000D02*
X143501000Y-107911000D01*
X143501000Y-103417000D02*
X143501000Y-104624000D01*
X143461000Y-106704000D02*
X143461000Y-107932000D01*
X143461000Y-103396000D02*
X143461000Y-104624000D01*
X143421000Y-106704000D02*
X143421000Y-107954000D01*
X143421000Y-103374000D02*
X143421000Y-104624000D01*
X143381000Y-106704000D02*
X143381000Y-107974000D01*
X143381000Y-103354000D02*
X143381000Y-104624000D01*
X143341000Y-106704000D02*
X143341000Y-107993000D01*
X143341000Y-103335000D02*
X143341000Y-104624000D01*
X143301000Y-106704000D02*
X143301000Y-108012000D01*
X143301000Y-103316000D02*
X143301000Y-104624000D01*
X143261000Y-106704000D02*
X143261000Y-108029000D01*
X143261000Y-103299000D02*
X143261000Y-104624000D01*
X143221000Y-106704000D02*
X143221000Y-108046000D01*
X143221000Y-103282000D02*
X143221000Y-104624000D01*
X143181000Y-106704000D02*
X143181000Y-108062000D01*
X143181000Y-103266000D02*
X143181000Y-104624000D01*
X143141000Y-106704000D02*
X143141000Y-108078000D01*
X143141000Y-103250000D02*
X143141000Y-104624000D01*
X143101000Y-106704000D02*
X143101000Y-108092000D01*
X143101000Y-103236000D02*
X143101000Y-104624000D01*
X143061000Y-106704000D02*
X143061000Y-108106000D01*
X143061000Y-103222000D02*
X143061000Y-104624000D01*
X143021000Y-106704000D02*
X143021000Y-108119000D01*
X143021000Y-103209000D02*
X143021000Y-104624000D01*
X142981000Y-106704000D02*
X142981000Y-108132000D01*
X142981000Y-103196000D02*
X142981000Y-104624000D01*
X142941000Y-106704000D02*
X142941000Y-108144000D01*
X142941000Y-103184000D02*
X142941000Y-104624000D01*
X142900000Y-106704000D02*
X142900000Y-108155000D01*
X142900000Y-103173000D02*
X142900000Y-104624000D01*
X142860000Y-106704000D02*
X142860000Y-108165000D01*
X142860000Y-103163000D02*
X142860000Y-104624000D01*
X142820000Y-106704000D02*
X142820000Y-108175000D01*
X142820000Y-103153000D02*
X142820000Y-104624000D01*
X142780000Y-106704000D02*
X142780000Y-108184000D01*
X142780000Y-103144000D02*
X142780000Y-104624000D01*
X142740000Y-106704000D02*
X142740000Y-108192000D01*
X142740000Y-103136000D02*
X142740000Y-104624000D01*
X142700000Y-106704000D02*
X142700000Y-108200000D01*
X142700000Y-103128000D02*
X142700000Y-104624000D01*
X142660000Y-106704000D02*
X142660000Y-108207000D01*
X142660000Y-103121000D02*
X142660000Y-104624000D01*
X142620000Y-106704000D02*
X142620000Y-108214000D01*
X142620000Y-103114000D02*
X142620000Y-104624000D01*
X142580000Y-106704000D02*
X142580000Y-108220000D01*
X142580000Y-103108000D02*
X142580000Y-104624000D01*
X142540000Y-106704000D02*
X142540000Y-108225000D01*
X142540000Y-103103000D02*
X142540000Y-104624000D01*
X142500000Y-106704000D02*
X142500000Y-108229000D01*
X142500000Y-103099000D02*
X142500000Y-104624000D01*
X142460000Y-106704000D02*
X142460000Y-108233000D01*
X142460000Y-103095000D02*
X142460000Y-104624000D01*
X142420000Y-103091000D02*
X142420000Y-108237000D01*
X142380000Y-103088000D02*
X142380000Y-108240000D01*
X142340000Y-103086000D02*
X142340000Y-108242000D01*
X142300000Y-103085000D02*
X142300000Y-108243000D01*
X142260000Y-103084000D02*
X142260000Y-108244000D01*
X142220000Y-103084000D02*
X142220000Y-108244000D01*
X144840000Y-105664000D02*
G75*
G03*
X144840000Y-105664000I-2620000J0D01*
G01*
%TO.C,R7*%
X141705000Y-110971064D02*
X141705000Y-110516936D01*
X140235000Y-110971064D02*
X140235000Y-110516936D01*
%TO.C,J1*%
X161288000Y-117916000D02*
X164848000Y-117916000D01*
X156208000Y-117916000D02*
X159768000Y-117916000D01*
X151128000Y-117916000D02*
X154688000Y-117916000D01*
X146048000Y-117916000D02*
X149608000Y-117916000D01*
X140968000Y-117916000D02*
X144528000Y-117916000D01*
X135888000Y-117916000D02*
X139448000Y-117916000D01*
X130808000Y-117916000D02*
X134368000Y-117916000D01*
X163828000Y-115256000D02*
X166938000Y-115256000D01*
X158748000Y-115256000D02*
X162308000Y-115256000D01*
X153668000Y-115256000D02*
X157228000Y-115256000D01*
X148588000Y-115256000D02*
X152148000Y-115256000D01*
X143508000Y-115256000D02*
X147068000Y-115256000D01*
X138428000Y-115256000D02*
X141988000Y-115256000D01*
X133348000Y-115256000D02*
X136908000Y-115256000D01*
X166368000Y-115256000D02*
X166938000Y-115256000D01*
X128718000Y-117916000D02*
X129288000Y-117916000D01*
X129288000Y-117916000D02*
X129288000Y-119436000D01*
X128718000Y-115256000D02*
X131828000Y-115256000D01*
X166938000Y-117916000D02*
X166938000Y-115256000D01*
X128718000Y-117916000D02*
X128718000Y-115256000D01*
%TO.C,C4*%
X130563252Y-49557000D02*
X130040748Y-49557000D01*
X130563252Y-51027000D02*
X130040748Y-51027000D01*
%TO.C,R6*%
X160046936Y-51535000D02*
X160501064Y-51535000D01*
X160046936Y-50065000D02*
X160501064Y-50065000D01*
%TO.C,D1*%
X161524000Y-56452000D02*
X161524000Y-56917000D01*
X161524000Y-53827000D02*
X161524000Y-54292000D01*
X166338479Y-56452429D02*
G75*
G02*
X161829316Y-56452000I-2254479J1080429D01*
G01*
X166338479Y-54291571D02*
G75*
G03*
X161829316Y-54292000I-2254479J-1080429D01*
G01*
X166871815Y-56452827D02*
G75*
G02*
X161524000Y-56916830I-2787815J1080827D01*
G01*
X166871815Y-54291173D02*
G75*
G03*
X161524000Y-53827170I-2787815J-1080827D01*
G01*
D12*
%TO.C,REF\u002A\u002A*%
G36*
X161245014Y-98846998D02*
G01*
X161403006Y-98847863D01*
X161517347Y-98850205D01*
X161595407Y-98854762D01*
X161644554Y-98862270D01*
X161672159Y-98873466D01*
X161685592Y-98889088D01*
X161692221Y-98909873D01*
X161692865Y-98912563D01*
X161702935Y-98961113D01*
X161721575Y-99056905D01*
X161746845Y-99189743D01*
X161776807Y-99349431D01*
X161809522Y-99525774D01*
X161810664Y-99531967D01*
X161843433Y-99704782D01*
X161874093Y-99857469D01*
X161900664Y-99980871D01*
X161921167Y-100065831D01*
X161933626Y-100103190D01*
X161934220Y-100103852D01*
X161970919Y-100122095D01*
X162046586Y-100152497D01*
X162144878Y-100188493D01*
X162145425Y-100188685D01*
X162269233Y-100235222D01*
X162415196Y-100294504D01*
X162552781Y-100354109D01*
X162559293Y-100357056D01*
X162783390Y-100458765D01*
X163279619Y-100119897D01*
X163431846Y-100016592D01*
X163569741Y-99924237D01*
X163685315Y-99848084D01*
X163770579Y-99793385D01*
X163817544Y-99765393D01*
X163822004Y-99763317D01*
X163856134Y-99772560D01*
X163919881Y-99817156D01*
X164015731Y-99899209D01*
X164146169Y-100020821D01*
X164279328Y-100150205D01*
X164407694Y-100277702D01*
X164522581Y-100394046D01*
X164617073Y-100492052D01*
X164684253Y-100564536D01*
X164717206Y-100604313D01*
X164718432Y-100606361D01*
X164722074Y-100633656D01*
X164708350Y-100678234D01*
X164673869Y-100746112D01*
X164615239Y-100843311D01*
X164529070Y-100975851D01*
X164414200Y-101146476D01*
X164312254Y-101296655D01*
X164221123Y-101431350D01*
X164146073Y-101542740D01*
X164092369Y-101623005D01*
X164065280Y-101664325D01*
X164063574Y-101667130D01*
X164066882Y-101706721D01*
X164091953Y-101783669D01*
X164133798Y-101883432D01*
X164148712Y-101915291D01*
X164213786Y-102057226D01*
X164283212Y-102218273D01*
X164339609Y-102357621D01*
X164380247Y-102461044D01*
X164412526Y-102539642D01*
X164431178Y-102580720D01*
X164433497Y-102583885D01*
X164467803Y-102589128D01*
X164548669Y-102603494D01*
X164665343Y-102624937D01*
X164807075Y-102651413D01*
X164963110Y-102680877D01*
X165122698Y-102711283D01*
X165275085Y-102740588D01*
X165409521Y-102766745D01*
X165515252Y-102787710D01*
X165581526Y-102801439D01*
X165597782Y-102805320D01*
X165614573Y-102814900D01*
X165627249Y-102836536D01*
X165636378Y-102877531D01*
X165642531Y-102945189D01*
X165646280Y-103046812D01*
X165648192Y-103189703D01*
X165648840Y-103381165D01*
X165648874Y-103459645D01*
X165648874Y-104097906D01*
X165495598Y-104128160D01*
X165410322Y-104144564D01*
X165283070Y-104168509D01*
X165129315Y-104197107D01*
X164964534Y-104227467D01*
X164918989Y-104235806D01*
X164766932Y-104265370D01*
X164634468Y-104294442D01*
X164532714Y-104320329D01*
X164472788Y-104340337D01*
X164462805Y-104346301D01*
X164438293Y-104388534D01*
X164403148Y-104470370D01*
X164364173Y-104575683D01*
X164356442Y-104598368D01*
X164305360Y-104739018D01*
X164241954Y-104897714D01*
X164179904Y-105040225D01*
X164179598Y-105040886D01*
X164076267Y-105264440D01*
X164755961Y-106264232D01*
X164319621Y-106701300D01*
X164187649Y-106831381D01*
X164067279Y-106946048D01*
X163965273Y-107039181D01*
X163888391Y-107104658D01*
X163843393Y-107136357D01*
X163836938Y-107138368D01*
X163799040Y-107122529D01*
X163721708Y-107078496D01*
X163613389Y-107011490D01*
X163482532Y-106926734D01*
X163341052Y-106831816D01*
X163197461Y-106734998D01*
X163069435Y-106650751D01*
X162965105Y-106584258D01*
X162892600Y-106540702D01*
X162860158Y-106525264D01*
X162820576Y-106538328D01*
X162745519Y-106572750D01*
X162650468Y-106621380D01*
X162640392Y-106626785D01*
X162512391Y-106690980D01*
X162424618Y-106722463D01*
X162370028Y-106722798D01*
X162341575Y-106693548D01*
X162341410Y-106693138D01*
X162327188Y-106658498D01*
X162293269Y-106576269D01*
X162242284Y-106452814D01*
X162176862Y-106294498D01*
X162099634Y-106107686D01*
X162013229Y-105898742D01*
X161929551Y-105696446D01*
X161837588Y-105473200D01*
X161753150Y-105266392D01*
X161678769Y-105082362D01*
X161616974Y-104927451D01*
X161570297Y-104807996D01*
X161541268Y-104730339D01*
X161532322Y-104701356D01*
X161554756Y-104668110D01*
X161613439Y-104615123D01*
X161691689Y-104556704D01*
X161914534Y-104371952D01*
X162088718Y-104160182D01*
X162212154Y-103925856D01*
X162282754Y-103673434D01*
X162298431Y-103407377D01*
X162287036Y-103284575D01*
X162224950Y-103029793D01*
X162118023Y-102804801D01*
X161972889Y-102611817D01*
X161796178Y-102453061D01*
X161594522Y-102330750D01*
X161374554Y-102247105D01*
X161142906Y-102204344D01*
X160906209Y-102204687D01*
X160671095Y-102250352D01*
X160444196Y-102343559D01*
X160232144Y-102486527D01*
X160143636Y-102567383D01*
X159973889Y-102775007D01*
X159855699Y-103001895D01*
X159788278Y-103241433D01*
X159770840Y-103487007D01*
X159802598Y-103732003D01*
X159882765Y-103969808D01*
X160010555Y-104193807D01*
X160185180Y-104397387D01*
X160380312Y-104556704D01*
X160461591Y-104617602D01*
X160519009Y-104670015D01*
X160539678Y-104701406D01*
X160528856Y-104735639D01*
X160498077Y-104817419D01*
X160449874Y-104940407D01*
X160386778Y-105098263D01*
X160311322Y-105284649D01*
X160226038Y-105493226D01*
X160142219Y-105696496D01*
X160049745Y-105919933D01*
X159964089Y-106126984D01*
X159887882Y-106311286D01*
X159823753Y-106466475D01*
X159774332Y-106586188D01*
X159742248Y-106664061D01*
X159730359Y-106693138D01*
X159702274Y-106722677D01*
X159647949Y-106722591D01*
X159560395Y-106691326D01*
X159432619Y-106627329D01*
X159431608Y-106626785D01*
X159335402Y-106577121D01*
X159257631Y-106540945D01*
X159213777Y-106525408D01*
X159211842Y-106525264D01*
X159178829Y-106541024D01*
X159105946Y-106584850D01*
X159001322Y-106651557D01*
X158873090Y-106735964D01*
X158730948Y-106831816D01*
X158586233Y-106928867D01*
X158455804Y-107013270D01*
X158348110Y-107079801D01*
X158271598Y-107123238D01*
X158235062Y-107138368D01*
X158201418Y-107118482D01*
X158133776Y-107062903D01*
X158038893Y-106977754D01*
X157923530Y-106869153D01*
X157794445Y-106743221D01*
X157752229Y-106701149D01*
X157315739Y-106263931D01*
X157647977Y-105776340D01*
X157748946Y-105626605D01*
X157837562Y-105492220D01*
X157908854Y-105380969D01*
X157957850Y-105300639D01*
X157979578Y-105259014D01*
X157980215Y-105256053D01*
X157968760Y-105216818D01*
X157937949Y-105137895D01*
X157893116Y-105032509D01*
X157861647Y-104961954D01*
X157802808Y-104826876D01*
X157747396Y-104690409D01*
X157704436Y-104575103D01*
X157692766Y-104539977D01*
X157659611Y-104446174D01*
X157627201Y-104373694D01*
X157609399Y-104346301D01*
X157570114Y-104329536D01*
X157484374Y-104305770D01*
X157363303Y-104277697D01*
X157218027Y-104248009D01*
X157153012Y-104235806D01*
X156987913Y-104205468D01*
X156829552Y-104176093D01*
X156693404Y-104150569D01*
X156594943Y-104131785D01*
X156576402Y-104128160D01*
X156423127Y-104097906D01*
X156423127Y-103459645D01*
X156423471Y-103249770D01*
X156424884Y-103090980D01*
X156427936Y-102975973D01*
X156433197Y-102897446D01*
X156441237Y-102848096D01*
X156452627Y-102820619D01*
X156467937Y-102807713D01*
X156474218Y-102805320D01*
X156512104Y-102796833D01*
X156595805Y-102779900D01*
X156714567Y-102756566D01*
X156857639Y-102728875D01*
X157014268Y-102698873D01*
X157173703Y-102668604D01*
X157325191Y-102640115D01*
X157457981Y-102615449D01*
X157561319Y-102596651D01*
X157624455Y-102585767D01*
X157638503Y-102583885D01*
X157651230Y-102558704D01*
X157679400Y-102491622D01*
X157717748Y-102395333D01*
X157732391Y-102357621D01*
X157791452Y-102211921D01*
X157861000Y-102050951D01*
X157923288Y-101915291D01*
X157969121Y-101811561D01*
X157999613Y-101726326D01*
X158009792Y-101674126D01*
X158008169Y-101667130D01*
X157986657Y-101634102D01*
X157937535Y-101560643D01*
X157866077Y-101454577D01*
X157777555Y-101323726D01*
X157677241Y-101175912D01*
X157657406Y-101146734D01*
X157541012Y-100973863D01*
X157455452Y-100842226D01*
X157397316Y-100745761D01*
X157363192Y-100678408D01*
X157349669Y-100634106D01*
X157353336Y-100606794D01*
X157353430Y-100606620D01*
X157382293Y-100570746D01*
X157446133Y-100501391D01*
X157538031Y-100405745D01*
X157651067Y-100290999D01*
X157778321Y-100164341D01*
X157792672Y-100150205D01*
X157953043Y-99994903D01*
X158076805Y-99880870D01*
X158166445Y-99806002D01*
X158224448Y-99768196D01*
X158249996Y-99763317D01*
X158287282Y-99784603D01*
X158364657Y-99833773D01*
X158474133Y-99905575D01*
X158607720Y-99994755D01*
X158757430Y-100096063D01*
X158792382Y-100119897D01*
X159288610Y-100458765D01*
X159512707Y-100357056D01*
X159648989Y-100297783D01*
X159795276Y-100238170D01*
X159921035Y-100190640D01*
X159926575Y-100188685D01*
X160024943Y-100152677D01*
X160100771Y-100122229D01*
X160137718Y-100103905D01*
X160137780Y-100103852D01*
X160149504Y-100070729D01*
X160169432Y-99989267D01*
X160195587Y-99868625D01*
X160225990Y-99717959D01*
X160258663Y-99546428D01*
X160261336Y-99531967D01*
X160294110Y-99355235D01*
X160324198Y-99194810D01*
X160349661Y-99060888D01*
X160368559Y-98963663D01*
X160378953Y-98913332D01*
X160379135Y-98912563D01*
X160385461Y-98891153D01*
X160397761Y-98874988D01*
X160423406Y-98863331D01*
X160469765Y-98855445D01*
X160544208Y-98850593D01*
X160654105Y-98848039D01*
X160806825Y-98847045D01*
X161009738Y-98846874D01*
X161036000Y-98846874D01*
X161245014Y-98846998D01*
G37*
X161245014Y-98846998D02*
X161403006Y-98847863D01*
X161517347Y-98850205D01*
X161595407Y-98854762D01*
X161644554Y-98862270D01*
X161672159Y-98873466D01*
X161685592Y-98889088D01*
X161692221Y-98909873D01*
X161692865Y-98912563D01*
X161702935Y-98961113D01*
X161721575Y-99056905D01*
X161746845Y-99189743D01*
X161776807Y-99349431D01*
X161809522Y-99525774D01*
X161810664Y-99531967D01*
X161843433Y-99704782D01*
X161874093Y-99857469D01*
X161900664Y-99980871D01*
X161921167Y-100065831D01*
X161933626Y-100103190D01*
X161934220Y-100103852D01*
X161970919Y-100122095D01*
X162046586Y-100152497D01*
X162144878Y-100188493D01*
X162145425Y-100188685D01*
X162269233Y-100235222D01*
X162415196Y-100294504D01*
X162552781Y-100354109D01*
X162559293Y-100357056D01*
X162783390Y-100458765D01*
X163279619Y-100119897D01*
X163431846Y-100016592D01*
X163569741Y-99924237D01*
X163685315Y-99848084D01*
X163770579Y-99793385D01*
X163817544Y-99765393D01*
X163822004Y-99763317D01*
X163856134Y-99772560D01*
X163919881Y-99817156D01*
X164015731Y-99899209D01*
X164146169Y-100020821D01*
X164279328Y-100150205D01*
X164407694Y-100277702D01*
X164522581Y-100394046D01*
X164617073Y-100492052D01*
X164684253Y-100564536D01*
X164717206Y-100604313D01*
X164718432Y-100606361D01*
X164722074Y-100633656D01*
X164708350Y-100678234D01*
X164673869Y-100746112D01*
X164615239Y-100843311D01*
X164529070Y-100975851D01*
X164414200Y-101146476D01*
X164312254Y-101296655D01*
X164221123Y-101431350D01*
X164146073Y-101542740D01*
X164092369Y-101623005D01*
X164065280Y-101664325D01*
X164063574Y-101667130D01*
X164066882Y-101706721D01*
X164091953Y-101783669D01*
X164133798Y-101883432D01*
X164148712Y-101915291D01*
X164213786Y-102057226D01*
X164283212Y-102218273D01*
X164339609Y-102357621D01*
X164380247Y-102461044D01*
X164412526Y-102539642D01*
X164431178Y-102580720D01*
X164433497Y-102583885D01*
X164467803Y-102589128D01*
X164548669Y-102603494D01*
X164665343Y-102624937D01*
X164807075Y-102651413D01*
X164963110Y-102680877D01*
X165122698Y-102711283D01*
X165275085Y-102740588D01*
X165409521Y-102766745D01*
X165515252Y-102787710D01*
X165581526Y-102801439D01*
X165597782Y-102805320D01*
X165614573Y-102814900D01*
X165627249Y-102836536D01*
X165636378Y-102877531D01*
X165642531Y-102945189D01*
X165646280Y-103046812D01*
X165648192Y-103189703D01*
X165648840Y-103381165D01*
X165648874Y-103459645D01*
X165648874Y-104097906D01*
X165495598Y-104128160D01*
X165410322Y-104144564D01*
X165283070Y-104168509D01*
X165129315Y-104197107D01*
X164964534Y-104227467D01*
X164918989Y-104235806D01*
X164766932Y-104265370D01*
X164634468Y-104294442D01*
X164532714Y-104320329D01*
X164472788Y-104340337D01*
X164462805Y-104346301D01*
X164438293Y-104388534D01*
X164403148Y-104470370D01*
X164364173Y-104575683D01*
X164356442Y-104598368D01*
X164305360Y-104739018D01*
X164241954Y-104897714D01*
X164179904Y-105040225D01*
X164179598Y-105040886D01*
X164076267Y-105264440D01*
X164755961Y-106264232D01*
X164319621Y-106701300D01*
X164187649Y-106831381D01*
X164067279Y-106946048D01*
X163965273Y-107039181D01*
X163888391Y-107104658D01*
X163843393Y-107136357D01*
X163836938Y-107138368D01*
X163799040Y-107122529D01*
X163721708Y-107078496D01*
X163613389Y-107011490D01*
X163482532Y-106926734D01*
X163341052Y-106831816D01*
X163197461Y-106734998D01*
X163069435Y-106650751D01*
X162965105Y-106584258D01*
X162892600Y-106540702D01*
X162860158Y-106525264D01*
X162820576Y-106538328D01*
X162745519Y-106572750D01*
X162650468Y-106621380D01*
X162640392Y-106626785D01*
X162512391Y-106690980D01*
X162424618Y-106722463D01*
X162370028Y-106722798D01*
X162341575Y-106693548D01*
X162341410Y-106693138D01*
X162327188Y-106658498D01*
X162293269Y-106576269D01*
X162242284Y-106452814D01*
X162176862Y-106294498D01*
X162099634Y-106107686D01*
X162013229Y-105898742D01*
X161929551Y-105696446D01*
X161837588Y-105473200D01*
X161753150Y-105266392D01*
X161678769Y-105082362D01*
X161616974Y-104927451D01*
X161570297Y-104807996D01*
X161541268Y-104730339D01*
X161532322Y-104701356D01*
X161554756Y-104668110D01*
X161613439Y-104615123D01*
X161691689Y-104556704D01*
X161914534Y-104371952D01*
X162088718Y-104160182D01*
X162212154Y-103925856D01*
X162282754Y-103673434D01*
X162298431Y-103407377D01*
X162287036Y-103284575D01*
X162224950Y-103029793D01*
X162118023Y-102804801D01*
X161972889Y-102611817D01*
X161796178Y-102453061D01*
X161594522Y-102330750D01*
X161374554Y-102247105D01*
X161142906Y-102204344D01*
X160906209Y-102204687D01*
X160671095Y-102250352D01*
X160444196Y-102343559D01*
X160232144Y-102486527D01*
X160143636Y-102567383D01*
X159973889Y-102775007D01*
X159855699Y-103001895D01*
X159788278Y-103241433D01*
X159770840Y-103487007D01*
X159802598Y-103732003D01*
X159882765Y-103969808D01*
X160010555Y-104193807D01*
X160185180Y-104397387D01*
X160380312Y-104556704D01*
X160461591Y-104617602D01*
X160519009Y-104670015D01*
X160539678Y-104701406D01*
X160528856Y-104735639D01*
X160498077Y-104817419D01*
X160449874Y-104940407D01*
X160386778Y-105098263D01*
X160311322Y-105284649D01*
X160226038Y-105493226D01*
X160142219Y-105696496D01*
X160049745Y-105919933D01*
X159964089Y-106126984D01*
X159887882Y-106311286D01*
X159823753Y-106466475D01*
X159774332Y-106586188D01*
X159742248Y-106664061D01*
X159730359Y-106693138D01*
X159702274Y-106722677D01*
X159647949Y-106722591D01*
X159560395Y-106691326D01*
X159432619Y-106627329D01*
X159431608Y-106626785D01*
X159335402Y-106577121D01*
X159257631Y-106540945D01*
X159213777Y-106525408D01*
X159211842Y-106525264D01*
X159178829Y-106541024D01*
X159105946Y-106584850D01*
X159001322Y-106651557D01*
X158873090Y-106735964D01*
X158730948Y-106831816D01*
X158586233Y-106928867D01*
X158455804Y-107013270D01*
X158348110Y-107079801D01*
X158271598Y-107123238D01*
X158235062Y-107138368D01*
X158201418Y-107118482D01*
X158133776Y-107062903D01*
X158038893Y-106977754D01*
X157923530Y-106869153D01*
X157794445Y-106743221D01*
X157752229Y-106701149D01*
X157315739Y-106263931D01*
X157647977Y-105776340D01*
X157748946Y-105626605D01*
X157837562Y-105492220D01*
X157908854Y-105380969D01*
X157957850Y-105300639D01*
X157979578Y-105259014D01*
X157980215Y-105256053D01*
X157968760Y-105216818D01*
X157937949Y-105137895D01*
X157893116Y-105032509D01*
X157861647Y-104961954D01*
X157802808Y-104826876D01*
X157747396Y-104690409D01*
X157704436Y-104575103D01*
X157692766Y-104539977D01*
X157659611Y-104446174D01*
X157627201Y-104373694D01*
X157609399Y-104346301D01*
X157570114Y-104329536D01*
X157484374Y-104305770D01*
X157363303Y-104277697D01*
X157218027Y-104248009D01*
X157153012Y-104235806D01*
X156987913Y-104205468D01*
X156829552Y-104176093D01*
X156693404Y-104150569D01*
X156594943Y-104131785D01*
X156576402Y-104128160D01*
X156423127Y-104097906D01*
X156423127Y-103459645D01*
X156423471Y-103249770D01*
X156424884Y-103090980D01*
X156427936Y-102975973D01*
X156433197Y-102897446D01*
X156441237Y-102848096D01*
X156452627Y-102820619D01*
X156467937Y-102807713D01*
X156474218Y-102805320D01*
X156512104Y-102796833D01*
X156595805Y-102779900D01*
X156714567Y-102756566D01*
X156857639Y-102728875D01*
X157014268Y-102698873D01*
X157173703Y-102668604D01*
X157325191Y-102640115D01*
X157457981Y-102615449D01*
X157561319Y-102596651D01*
X157624455Y-102585767D01*
X157638503Y-102583885D01*
X157651230Y-102558704D01*
X157679400Y-102491622D01*
X157717748Y-102395333D01*
X157732391Y-102357621D01*
X157791452Y-102211921D01*
X157861000Y-102050951D01*
X157923288Y-101915291D01*
X157969121Y-101811561D01*
X157999613Y-101726326D01*
X158009792Y-101674126D01*
X158008169Y-101667130D01*
X157986657Y-101634102D01*
X157937535Y-101560643D01*
X157866077Y-101454577D01*
X157777555Y-101323726D01*
X157677241Y-101175912D01*
X157657406Y-101146734D01*
X157541012Y-100973863D01*
X157455452Y-100842226D01*
X157397316Y-100745761D01*
X157363192Y-100678408D01*
X157349669Y-100634106D01*
X157353336Y-100606794D01*
X157353430Y-100606620D01*
X157382293Y-100570746D01*
X157446133Y-100501391D01*
X157538031Y-100405745D01*
X157651067Y-100290999D01*
X157778321Y-100164341D01*
X157792672Y-100150205D01*
X157953043Y-99994903D01*
X158076805Y-99880870D01*
X158166445Y-99806002D01*
X158224448Y-99768196D01*
X158249996Y-99763317D01*
X158287282Y-99784603D01*
X158364657Y-99833773D01*
X158474133Y-99905575D01*
X158607720Y-99994755D01*
X158757430Y-100096063D01*
X158792382Y-100119897D01*
X159288610Y-100458765D01*
X159512707Y-100357056D01*
X159648989Y-100297783D01*
X159795276Y-100238170D01*
X159921035Y-100190640D01*
X159926575Y-100188685D01*
X160024943Y-100152677D01*
X160100771Y-100122229D01*
X160137718Y-100103905D01*
X160137780Y-100103852D01*
X160149504Y-100070729D01*
X160169432Y-99989267D01*
X160195587Y-99868625D01*
X160225990Y-99717959D01*
X160258663Y-99546428D01*
X160261336Y-99531967D01*
X160294110Y-99355235D01*
X160324198Y-99194810D01*
X160349661Y-99060888D01*
X160368559Y-98963663D01*
X160378953Y-98913332D01*
X160379135Y-98912563D01*
X160385461Y-98891153D01*
X160397761Y-98874988D01*
X160423406Y-98863331D01*
X160469765Y-98855445D01*
X160544208Y-98850593D01*
X160654105Y-98848039D01*
X160806825Y-98847045D01*
X161009738Y-98846874D01*
X161036000Y-98846874D01*
X161245014Y-98846998D01*
G36*
X167379439Y-108350540D02*
G01*
X167494950Y-108426034D01*
X167550664Y-108493617D01*
X167594804Y-108616255D01*
X167598309Y-108713298D01*
X167590368Y-108843056D01*
X167291115Y-108974039D01*
X167145611Y-109040958D01*
X167050537Y-109094790D01*
X167001101Y-109141416D01*
X166992511Y-109186720D01*
X167019972Y-109236582D01*
X167050253Y-109269632D01*
X167138363Y-109322633D01*
X167234196Y-109326347D01*
X167322212Y-109285041D01*
X167386869Y-109202983D01*
X167398433Y-109174008D01*
X167453825Y-109083509D01*
X167517553Y-109044940D01*
X167604966Y-109011946D01*
X167604966Y-109137034D01*
X167597238Y-109222156D01*
X167566966Y-109293938D01*
X167503518Y-109376356D01*
X167494088Y-109387066D01*
X167423513Y-109460391D01*
X167362847Y-109499742D01*
X167286950Y-109517845D01*
X167224030Y-109523774D01*
X167111487Y-109525251D01*
X167031370Y-109506535D01*
X166981390Y-109478747D01*
X166902838Y-109417641D01*
X166848463Y-109351554D01*
X166814052Y-109268441D01*
X166795388Y-109156254D01*
X166788256Y-109002946D01*
X166787687Y-108925136D01*
X166789622Y-108831853D01*
X166965899Y-108831853D01*
X166967944Y-108881896D01*
X166973039Y-108890092D01*
X167006666Y-108878958D01*
X167079030Y-108849493D01*
X167175747Y-108807601D01*
X167195973Y-108798597D01*
X167318203Y-108736442D01*
X167385547Y-108681815D01*
X167400348Y-108630649D01*
X167364947Y-108578876D01*
X167335711Y-108556000D01*
X167230216Y-108510250D01*
X167131476Y-108517808D01*
X167048812Y-108573651D01*
X166991548Y-108672753D01*
X166973188Y-108751414D01*
X166965899Y-108831853D01*
X166789622Y-108831853D01*
X166791459Y-108743351D01*
X166805359Y-108608853D01*
X166832894Y-108510916D01*
X166877572Y-108438811D01*
X166942901Y-108381813D01*
X166971383Y-108363393D01*
X167100763Y-108315422D01*
X167242412Y-108312403D01*
X167379439Y-108350540D01*
G37*
X167379439Y-108350540D02*
X167494950Y-108426034D01*
X167550664Y-108493617D01*
X167594804Y-108616255D01*
X167598309Y-108713298D01*
X167590368Y-108843056D01*
X167291115Y-108974039D01*
X167145611Y-109040958D01*
X167050537Y-109094790D01*
X167001101Y-109141416D01*
X166992511Y-109186720D01*
X167019972Y-109236582D01*
X167050253Y-109269632D01*
X167138363Y-109322633D01*
X167234196Y-109326347D01*
X167322212Y-109285041D01*
X167386869Y-109202983D01*
X167398433Y-109174008D01*
X167453825Y-109083509D01*
X167517553Y-109044940D01*
X167604966Y-109011946D01*
X167604966Y-109137034D01*
X167597238Y-109222156D01*
X167566966Y-109293938D01*
X167503518Y-109376356D01*
X167494088Y-109387066D01*
X167423513Y-109460391D01*
X167362847Y-109499742D01*
X167286950Y-109517845D01*
X167224030Y-109523774D01*
X167111487Y-109525251D01*
X167031370Y-109506535D01*
X166981390Y-109478747D01*
X166902838Y-109417641D01*
X166848463Y-109351554D01*
X166814052Y-109268441D01*
X166795388Y-109156254D01*
X166788256Y-109002946D01*
X166787687Y-108925136D01*
X166789622Y-108831853D01*
X166965899Y-108831853D01*
X166967944Y-108881896D01*
X166973039Y-108890092D01*
X167006666Y-108878958D01*
X167079030Y-108849493D01*
X167175747Y-108807601D01*
X167195973Y-108798597D01*
X167318203Y-108736442D01*
X167385547Y-108681815D01*
X167400348Y-108630649D01*
X167364947Y-108578876D01*
X167335711Y-108556000D01*
X167230216Y-108510250D01*
X167131476Y-108517808D01*
X167048812Y-108573651D01*
X166991548Y-108672753D01*
X166973188Y-108751414D01*
X166965899Y-108831853D01*
X166789622Y-108831853D01*
X166791459Y-108743351D01*
X166805359Y-108608853D01*
X166832894Y-108510916D01*
X166877572Y-108438811D01*
X166942901Y-108381813D01*
X166971383Y-108363393D01*
X167100763Y-108315422D01*
X167242412Y-108312403D01*
X167379439Y-108350540D01*
G36*
X166371690Y-108334018D02*
G01*
X166406585Y-108349269D01*
X166489877Y-108415235D01*
X166561103Y-108510618D01*
X166605153Y-108612406D01*
X166612322Y-108662587D01*
X166588285Y-108732647D01*
X166535561Y-108769717D01*
X166479031Y-108792164D01*
X166453146Y-108796300D01*
X166440542Y-108766283D01*
X166415654Y-108700961D01*
X166404735Y-108671445D01*
X166343508Y-108569348D01*
X166254861Y-108518423D01*
X166141193Y-108519989D01*
X166132774Y-108521994D01*
X166072088Y-108550767D01*
X166027474Y-108606859D01*
X165997002Y-108697163D01*
X165978744Y-108828571D01*
X165970771Y-109007974D01*
X165970023Y-109103433D01*
X165969652Y-109253913D01*
X165967223Y-109356495D01*
X165960760Y-109421672D01*
X165948288Y-109459938D01*
X165927833Y-109481785D01*
X165897419Y-109497707D01*
X165895661Y-109498509D01*
X165837091Y-109523272D01*
X165808075Y-109532391D01*
X165803616Y-109504822D01*
X165799799Y-109428620D01*
X165796899Y-109313541D01*
X165795191Y-109169341D01*
X165794851Y-109063814D01*
X165796588Y-108859613D01*
X165803382Y-108704697D01*
X165817607Y-108590024D01*
X165841638Y-108506551D01*
X165877848Y-108445236D01*
X165928612Y-108397034D01*
X165978739Y-108363393D01*
X166099275Y-108318619D01*
X166239557Y-108308521D01*
X166371690Y-108334018D01*
G37*
X166371690Y-108334018D02*
X166406585Y-108349269D01*
X166489877Y-108415235D01*
X166561103Y-108510618D01*
X166605153Y-108612406D01*
X166612322Y-108662587D01*
X166588285Y-108732647D01*
X166535561Y-108769717D01*
X166479031Y-108792164D01*
X166453146Y-108796300D01*
X166440542Y-108766283D01*
X166415654Y-108700961D01*
X166404735Y-108671445D01*
X166343508Y-108569348D01*
X166254861Y-108518423D01*
X166141193Y-108519989D01*
X166132774Y-108521994D01*
X166072088Y-108550767D01*
X166027474Y-108606859D01*
X165997002Y-108697163D01*
X165978744Y-108828571D01*
X165970771Y-109007974D01*
X165970023Y-109103433D01*
X165969652Y-109253913D01*
X165967223Y-109356495D01*
X165960760Y-109421672D01*
X165948288Y-109459938D01*
X165927833Y-109481785D01*
X165897419Y-109497707D01*
X165895661Y-109498509D01*
X165837091Y-109523272D01*
X165808075Y-109532391D01*
X165803616Y-109504822D01*
X165799799Y-109428620D01*
X165796899Y-109313541D01*
X165795191Y-109169341D01*
X165794851Y-109063814D01*
X165796588Y-108859613D01*
X165803382Y-108704697D01*
X165817607Y-108590024D01*
X165841638Y-108506551D01*
X165877848Y-108445236D01*
X165928612Y-108397034D01*
X165978739Y-108363393D01*
X166099275Y-108318619D01*
X166239557Y-108308521D01*
X166371690Y-108334018D01*
G36*
X165350406Y-108329156D02*
G01*
X165434469Y-108367393D01*
X165500450Y-108413726D01*
X165548794Y-108465532D01*
X165582172Y-108532363D01*
X165603253Y-108623769D01*
X165614707Y-108749301D01*
X165619203Y-108918508D01*
X165619678Y-109029933D01*
X165619678Y-109464627D01*
X165545316Y-109498509D01*
X165486746Y-109523272D01*
X165457730Y-109532391D01*
X165452179Y-109505257D01*
X165447775Y-109432094D01*
X165445078Y-109325263D01*
X165444506Y-109240437D01*
X165442046Y-109117887D01*
X165435412Y-109020668D01*
X165425726Y-108961134D01*
X165418032Y-108948483D01*
X165366311Y-108961402D01*
X165285117Y-108994539D01*
X165191102Y-109039461D01*
X165100917Y-109087735D01*
X165031215Y-109130928D01*
X164998648Y-109160608D01*
X164998519Y-109160929D01*
X165001320Y-109215857D01*
X165026439Y-109268292D01*
X165070541Y-109310881D01*
X165134909Y-109325126D01*
X165189921Y-109323466D01*
X165267835Y-109322245D01*
X165308732Y-109340498D01*
X165333295Y-109388726D01*
X165336392Y-109397820D01*
X165347040Y-109466598D01*
X165318565Y-109508360D01*
X165244344Y-109528263D01*
X165164168Y-109531944D01*
X165019890Y-109504658D01*
X164945203Y-109465690D01*
X164852963Y-109374148D01*
X164804043Y-109261782D01*
X164799654Y-109143051D01*
X164841001Y-109032411D01*
X164903197Y-108963080D01*
X164965294Y-108924265D01*
X165062895Y-108875125D01*
X165176632Y-108825292D01*
X165195590Y-108817677D01*
X165320521Y-108762545D01*
X165392539Y-108713954D01*
X165415700Y-108665647D01*
X165394064Y-108611370D01*
X165356920Y-108568943D01*
X165269127Y-108516702D01*
X165172530Y-108512784D01*
X165083944Y-108553041D01*
X165020186Y-108633326D01*
X165011817Y-108654040D01*
X164963096Y-108730225D01*
X164891965Y-108786785D01*
X164802207Y-108833201D01*
X164802207Y-108701584D01*
X164807490Y-108621168D01*
X164830142Y-108557786D01*
X164880367Y-108490163D01*
X164928582Y-108438076D01*
X165003554Y-108364322D01*
X165061806Y-108324702D01*
X165124372Y-108308810D01*
X165195193Y-108306184D01*
X165350406Y-108329156D01*
G37*
X165350406Y-108329156D02*
X165434469Y-108367393D01*
X165500450Y-108413726D01*
X165548794Y-108465532D01*
X165582172Y-108532363D01*
X165603253Y-108623769D01*
X165614707Y-108749301D01*
X165619203Y-108918508D01*
X165619678Y-109029933D01*
X165619678Y-109464627D01*
X165545316Y-109498509D01*
X165486746Y-109523272D01*
X165457730Y-109532391D01*
X165452179Y-109505257D01*
X165447775Y-109432094D01*
X165445078Y-109325263D01*
X165444506Y-109240437D01*
X165442046Y-109117887D01*
X165435412Y-109020668D01*
X165425726Y-108961134D01*
X165418032Y-108948483D01*
X165366311Y-108961402D01*
X165285117Y-108994539D01*
X165191102Y-109039461D01*
X165100917Y-109087735D01*
X165031215Y-109130928D01*
X164998648Y-109160608D01*
X164998519Y-109160929D01*
X165001320Y-109215857D01*
X165026439Y-109268292D01*
X165070541Y-109310881D01*
X165134909Y-109325126D01*
X165189921Y-109323466D01*
X165267835Y-109322245D01*
X165308732Y-109340498D01*
X165333295Y-109388726D01*
X165336392Y-109397820D01*
X165347040Y-109466598D01*
X165318565Y-109508360D01*
X165244344Y-109528263D01*
X165164168Y-109531944D01*
X165019890Y-109504658D01*
X164945203Y-109465690D01*
X164852963Y-109374148D01*
X164804043Y-109261782D01*
X164799654Y-109143051D01*
X164841001Y-109032411D01*
X164903197Y-108963080D01*
X164965294Y-108924265D01*
X165062895Y-108875125D01*
X165176632Y-108825292D01*
X165195590Y-108817677D01*
X165320521Y-108762545D01*
X165392539Y-108713954D01*
X165415700Y-108665647D01*
X165394064Y-108611370D01*
X165356920Y-108568943D01*
X165269127Y-108516702D01*
X165172530Y-108512784D01*
X165083944Y-108553041D01*
X165020186Y-108633326D01*
X165011817Y-108654040D01*
X164963096Y-108730225D01*
X164891965Y-108786785D01*
X164802207Y-108833201D01*
X164802207Y-108701584D01*
X164807490Y-108621168D01*
X164830142Y-108557786D01*
X164880367Y-108490163D01*
X164928582Y-108438076D01*
X165003554Y-108364322D01*
X165061806Y-108324702D01*
X165124372Y-108308810D01*
X165195193Y-108306184D01*
X165350406Y-108329156D01*
G36*
X164616124Y-108333840D02*
G01*
X164620579Y-108410653D01*
X164624071Y-108527391D01*
X164626315Y-108674821D01*
X164627035Y-108829455D01*
X164627035Y-109352727D01*
X164534645Y-109445117D01*
X164470978Y-109502047D01*
X164415089Y-109525107D01*
X164338702Y-109523647D01*
X164308380Y-109519934D01*
X164213610Y-109509126D01*
X164135222Y-109502933D01*
X164116115Y-109502361D01*
X164051699Y-109506102D01*
X163959571Y-109515494D01*
X163923850Y-109519934D01*
X163836114Y-109526801D01*
X163777153Y-109511885D01*
X163718690Y-109465835D01*
X163697585Y-109445117D01*
X163605195Y-109352727D01*
X163605195Y-108373947D01*
X163679558Y-108340066D01*
X163743590Y-108314970D01*
X163781052Y-108306184D01*
X163790657Y-108333950D01*
X163799635Y-108411530D01*
X163807386Y-108530348D01*
X163813314Y-108681828D01*
X163816173Y-108809805D01*
X163824161Y-109313425D01*
X163893848Y-109323278D01*
X163957229Y-109316389D01*
X163988286Y-109294083D01*
X163996967Y-109252379D01*
X164004378Y-109163544D01*
X164009931Y-109038834D01*
X164013036Y-108889507D01*
X164013484Y-108812661D01*
X164013931Y-108370287D01*
X164105874Y-108338235D01*
X164170949Y-108316443D01*
X164206347Y-108306281D01*
X164207368Y-108306184D01*
X164210920Y-108333809D01*
X164214823Y-108410411D01*
X164218751Y-108526579D01*
X164222376Y-108672904D01*
X164224908Y-108809805D01*
X164232897Y-109313425D01*
X164408069Y-109313425D01*
X164416107Y-108853965D01*
X164424146Y-108394505D01*
X164509543Y-108350344D01*
X164572593Y-108320019D01*
X164609910Y-108306258D01*
X164610987Y-108306184D01*
X164616124Y-108333840D01*
G37*
X164616124Y-108333840D02*
X164620579Y-108410653D01*
X164624071Y-108527391D01*
X164626315Y-108674821D01*
X164627035Y-108829455D01*
X164627035Y-109352727D01*
X164534645Y-109445117D01*
X164470978Y-109502047D01*
X164415089Y-109525107D01*
X164338702Y-109523647D01*
X164308380Y-109519934D01*
X164213610Y-109509126D01*
X164135222Y-109502933D01*
X164116115Y-109502361D01*
X164051699Y-109506102D01*
X163959571Y-109515494D01*
X163923850Y-109519934D01*
X163836114Y-109526801D01*
X163777153Y-109511885D01*
X163718690Y-109465835D01*
X163697585Y-109445117D01*
X163605195Y-109352727D01*
X163605195Y-108373947D01*
X163679558Y-108340066D01*
X163743590Y-108314970D01*
X163781052Y-108306184D01*
X163790657Y-108333950D01*
X163799635Y-108411530D01*
X163807386Y-108530348D01*
X163813314Y-108681828D01*
X163816173Y-108809805D01*
X163824161Y-109313425D01*
X163893848Y-109323278D01*
X163957229Y-109316389D01*
X163988286Y-109294083D01*
X163996967Y-109252379D01*
X164004378Y-109163544D01*
X164009931Y-109038834D01*
X164013036Y-108889507D01*
X164013484Y-108812661D01*
X164013931Y-108370287D01*
X164105874Y-108338235D01*
X164170949Y-108316443D01*
X164206347Y-108306281D01*
X164207368Y-108306184D01*
X164210920Y-108333809D01*
X164214823Y-108410411D01*
X164218751Y-108526579D01*
X164222376Y-108672904D01*
X164224908Y-108809805D01*
X164232897Y-109313425D01*
X164408069Y-109313425D01*
X164416107Y-108853965D01*
X164424146Y-108394505D01*
X164509543Y-108350344D01*
X164572593Y-108320019D01*
X164609910Y-108306258D01*
X164610987Y-108306184D01*
X164616124Y-108333840D01*
G36*
X163429914Y-108548455D02*
G01*
X163429543Y-108766661D01*
X163428108Y-108934519D01*
X163425002Y-109060070D01*
X163419622Y-109151355D01*
X163411362Y-109216415D01*
X163399616Y-109263291D01*
X163383781Y-109300024D01*
X163371790Y-109320991D01*
X163272490Y-109434694D01*
X163146588Y-109505965D01*
X163007291Y-109531538D01*
X162867805Y-109508150D01*
X162784743Y-109466119D01*
X162697545Y-109393411D01*
X162638117Y-109304612D01*
X162602261Y-109188320D01*
X162585781Y-109033135D01*
X162583447Y-108919287D01*
X162583761Y-108911106D01*
X162787724Y-108911106D01*
X162788970Y-109041657D01*
X162794678Y-109128080D01*
X162807804Y-109184618D01*
X162831306Y-109225514D01*
X162859386Y-109256362D01*
X162953688Y-109315905D01*
X163054940Y-109320992D01*
X163150636Y-109271279D01*
X163158084Y-109264543D01*
X163189874Y-109229502D01*
X163209808Y-109187811D01*
X163220600Y-109125762D01*
X163224965Y-109029644D01*
X163225655Y-108923379D01*
X163224159Y-108789880D01*
X163217964Y-108700822D01*
X163204514Y-108642293D01*
X163181251Y-108600382D01*
X163162175Y-108578123D01*
X163073563Y-108521985D01*
X162971508Y-108515235D01*
X162874095Y-108558114D01*
X162855296Y-108574032D01*
X162823293Y-108609382D01*
X162803318Y-108651502D01*
X162792593Y-108714251D01*
X162788339Y-108811487D01*
X162787724Y-108911106D01*
X162583761Y-108911106D01*
X162590504Y-108735947D01*
X162614472Y-108598195D01*
X162659548Y-108494632D01*
X162729928Y-108413856D01*
X162784743Y-108372455D01*
X162884376Y-108327728D01*
X162999855Y-108306967D01*
X163107199Y-108312525D01*
X163167264Y-108334943D01*
X163190835Y-108341323D01*
X163206477Y-108317535D01*
X163217395Y-108253788D01*
X163225655Y-108156687D01*
X163234699Y-108048541D01*
X163247261Y-107983475D01*
X163270119Y-107946268D01*
X163310051Y-107921699D01*
X163335138Y-107910819D01*
X163430023Y-107871072D01*
X163429914Y-108548455D01*
G37*
X163429914Y-108548455D02*
X163429543Y-108766661D01*
X163428108Y-108934519D01*
X163425002Y-109060070D01*
X163419622Y-109151355D01*
X163411362Y-109216415D01*
X163399616Y-109263291D01*
X163383781Y-109300024D01*
X163371790Y-109320991D01*
X163272490Y-109434694D01*
X163146588Y-109505965D01*
X163007291Y-109531538D01*
X162867805Y-109508150D01*
X162784743Y-109466119D01*
X162697545Y-109393411D01*
X162638117Y-109304612D01*
X162602261Y-109188320D01*
X162585781Y-109033135D01*
X162583447Y-108919287D01*
X162583761Y-108911106D01*
X162787724Y-108911106D01*
X162788970Y-109041657D01*
X162794678Y-109128080D01*
X162807804Y-109184618D01*
X162831306Y-109225514D01*
X162859386Y-109256362D01*
X162953688Y-109315905D01*
X163054940Y-109320992D01*
X163150636Y-109271279D01*
X163158084Y-109264543D01*
X163189874Y-109229502D01*
X163209808Y-109187811D01*
X163220600Y-109125762D01*
X163224965Y-109029644D01*
X163225655Y-108923379D01*
X163224159Y-108789880D01*
X163217964Y-108700822D01*
X163204514Y-108642293D01*
X163181251Y-108600382D01*
X163162175Y-108578123D01*
X163073563Y-108521985D01*
X162971508Y-108515235D01*
X162874095Y-108558114D01*
X162855296Y-108574032D01*
X162823293Y-108609382D01*
X162803318Y-108651502D01*
X162792593Y-108714251D01*
X162788339Y-108811487D01*
X162787724Y-108911106D01*
X162583761Y-108911106D01*
X162590504Y-108735947D01*
X162614472Y-108598195D01*
X162659548Y-108494632D01*
X162729928Y-108413856D01*
X162784743Y-108372455D01*
X162884376Y-108327728D01*
X162999855Y-108306967D01*
X163107199Y-108312525D01*
X163167264Y-108334943D01*
X163190835Y-108341323D01*
X163206477Y-108317535D01*
X163217395Y-108253788D01*
X163225655Y-108156687D01*
X163234699Y-108048541D01*
X163247261Y-107983475D01*
X163270119Y-107946268D01*
X163310051Y-107921699D01*
X163335138Y-107910819D01*
X163430023Y-107871072D01*
X163429914Y-108548455D01*
G36*
X162101943Y-108315920D02*
G01*
X162234565Y-108364859D01*
X162342010Y-108451419D01*
X162384032Y-108512352D01*
X162429843Y-108624161D01*
X162428891Y-108705006D01*
X162380808Y-108759378D01*
X162363017Y-108768624D01*
X162286204Y-108797450D01*
X162246976Y-108790065D01*
X162233689Y-108741658D01*
X162233012Y-108714920D01*
X162208686Y-108616548D01*
X162145281Y-108547734D01*
X162057154Y-108514498D01*
X161958663Y-108522861D01*
X161878602Y-108566296D01*
X161851561Y-108591072D01*
X161832394Y-108621129D01*
X161819446Y-108666565D01*
X161811064Y-108737476D01*
X161805593Y-108843960D01*
X161801378Y-108996112D01*
X161800287Y-109044287D01*
X161796307Y-109209095D01*
X161791781Y-109325088D01*
X161784995Y-109401833D01*
X161774231Y-109448893D01*
X161757773Y-109475835D01*
X161733906Y-109492223D01*
X161718626Y-109499463D01*
X161653733Y-109524220D01*
X161615534Y-109532391D01*
X161602912Y-109505103D01*
X161595208Y-109422603D01*
X161592380Y-109283941D01*
X161594386Y-109088162D01*
X161595011Y-109057965D01*
X161599421Y-108879349D01*
X161604635Y-108748923D01*
X161612055Y-108656492D01*
X161623082Y-108591858D01*
X161639117Y-108544825D01*
X161661561Y-108505196D01*
X161673302Y-108488215D01*
X161740619Y-108413080D01*
X161815910Y-108354638D01*
X161825128Y-108349536D01*
X161960133Y-108309260D01*
X162101943Y-108315920D01*
G37*
X162101943Y-108315920D02*
X162234565Y-108364859D01*
X162342010Y-108451419D01*
X162384032Y-108512352D01*
X162429843Y-108624161D01*
X162428891Y-108705006D01*
X162380808Y-108759378D01*
X162363017Y-108768624D01*
X162286204Y-108797450D01*
X162246976Y-108790065D01*
X162233689Y-108741658D01*
X162233012Y-108714920D01*
X162208686Y-108616548D01*
X162145281Y-108547734D01*
X162057154Y-108514498D01*
X161958663Y-108522861D01*
X161878602Y-108566296D01*
X161851561Y-108591072D01*
X161832394Y-108621129D01*
X161819446Y-108666565D01*
X161811064Y-108737476D01*
X161805593Y-108843960D01*
X161801378Y-108996112D01*
X161800287Y-109044287D01*
X161796307Y-109209095D01*
X161791781Y-109325088D01*
X161784995Y-109401833D01*
X161774231Y-109448893D01*
X161757773Y-109475835D01*
X161733906Y-109492223D01*
X161718626Y-109499463D01*
X161653733Y-109524220D01*
X161615534Y-109532391D01*
X161602912Y-109505103D01*
X161595208Y-109422603D01*
X161592380Y-109283941D01*
X161594386Y-109088162D01*
X161595011Y-109057965D01*
X161599421Y-108879349D01*
X161604635Y-108748923D01*
X161612055Y-108656492D01*
X161623082Y-108591858D01*
X161639117Y-108544825D01*
X161661561Y-108505196D01*
X161673302Y-108488215D01*
X161740619Y-108413080D01*
X161815910Y-108354638D01*
X161825128Y-108349536D01*
X161960133Y-108309260D01*
X162101943Y-108315920D01*
G36*
X161115944Y-108318360D02*
G01*
X161230343Y-108360842D01*
X161231652Y-108361658D01*
X161302403Y-108413730D01*
X161354636Y-108474584D01*
X161391371Y-108553887D01*
X161415634Y-108661309D01*
X161430445Y-108806517D01*
X161438829Y-108999179D01*
X161439564Y-109026628D01*
X161450120Y-109440521D01*
X161361291Y-109486456D01*
X161297018Y-109517498D01*
X161258210Y-109532206D01*
X161256415Y-109532391D01*
X161249700Y-109505250D01*
X161244365Y-109432041D01*
X161241083Y-109325081D01*
X161240368Y-109238469D01*
X161240351Y-109098162D01*
X161233937Y-109010051D01*
X161211580Y-108968025D01*
X161163732Y-108965975D01*
X161080849Y-108997790D01*
X160955713Y-109056272D01*
X160863697Y-109104845D01*
X160816371Y-109146986D01*
X160802458Y-109192916D01*
X160802437Y-109195189D01*
X160825395Y-109274311D01*
X160893370Y-109317055D01*
X160997398Y-109323246D01*
X161072330Y-109322172D01*
X161111839Y-109343753D01*
X161136478Y-109395591D01*
X161150659Y-109461632D01*
X161130223Y-109499104D01*
X161122528Y-109504467D01*
X161050083Y-109526006D01*
X160948633Y-109529055D01*
X160844157Y-109514778D01*
X160770125Y-109488688D01*
X160667772Y-109401785D01*
X160609591Y-109280816D01*
X160598069Y-109186308D01*
X160606862Y-109101062D01*
X160638680Y-109031476D01*
X160701684Y-108969672D01*
X160804031Y-108907772D01*
X160953882Y-108837897D01*
X160963012Y-108833948D01*
X161097997Y-108771588D01*
X161181294Y-108720446D01*
X161216997Y-108674488D01*
X161209203Y-108627683D01*
X161162007Y-108573998D01*
X161147894Y-108561644D01*
X161053359Y-108513741D01*
X160955406Y-108515758D01*
X160870097Y-108562724D01*
X160813496Y-108649669D01*
X160808237Y-108666734D01*
X160757023Y-108749504D01*
X160692037Y-108789372D01*
X160598069Y-108828882D01*
X160598069Y-108726658D01*
X160626653Y-108578072D01*
X160711495Y-108441784D01*
X160755645Y-108396191D01*
X160856005Y-108337674D01*
X160983635Y-108311184D01*
X161115944Y-108318360D01*
G37*
X161115944Y-108318360D02*
X161230343Y-108360842D01*
X161231652Y-108361658D01*
X161302403Y-108413730D01*
X161354636Y-108474584D01*
X161391371Y-108553887D01*
X161415634Y-108661309D01*
X161430445Y-108806517D01*
X161438829Y-108999179D01*
X161439564Y-109026628D01*
X161450120Y-109440521D01*
X161361291Y-109486456D01*
X161297018Y-109517498D01*
X161258210Y-109532206D01*
X161256415Y-109532391D01*
X161249700Y-109505250D01*
X161244365Y-109432041D01*
X161241083Y-109325081D01*
X161240368Y-109238469D01*
X161240351Y-109098162D01*
X161233937Y-109010051D01*
X161211580Y-108968025D01*
X161163732Y-108965975D01*
X161080849Y-108997790D01*
X160955713Y-109056272D01*
X160863697Y-109104845D01*
X160816371Y-109146986D01*
X160802458Y-109192916D01*
X160802437Y-109195189D01*
X160825395Y-109274311D01*
X160893370Y-109317055D01*
X160997398Y-109323246D01*
X161072330Y-109322172D01*
X161111839Y-109343753D01*
X161136478Y-109395591D01*
X161150659Y-109461632D01*
X161130223Y-109499104D01*
X161122528Y-109504467D01*
X161050083Y-109526006D01*
X160948633Y-109529055D01*
X160844157Y-109514778D01*
X160770125Y-109488688D01*
X160667772Y-109401785D01*
X160609591Y-109280816D01*
X160598069Y-109186308D01*
X160606862Y-109101062D01*
X160638680Y-109031476D01*
X160701684Y-108969672D01*
X160804031Y-108907772D01*
X160953882Y-108837897D01*
X160963012Y-108833948D01*
X161097997Y-108771588D01*
X161181294Y-108720446D01*
X161216997Y-108674488D01*
X161209203Y-108627683D01*
X161162007Y-108573998D01*
X161147894Y-108561644D01*
X161053359Y-108513741D01*
X160955406Y-108515758D01*
X160870097Y-108562724D01*
X160813496Y-108649669D01*
X160808237Y-108666734D01*
X160757023Y-108749504D01*
X160692037Y-108789372D01*
X160598069Y-108828882D01*
X160598069Y-108726658D01*
X160626653Y-108578072D01*
X160711495Y-108441784D01*
X160755645Y-108396191D01*
X160856005Y-108337674D01*
X160983635Y-108311184D01*
X161115944Y-108318360D01*
G36*
X159780598Y-108117857D02*
G01*
X159789154Y-108237188D01*
X159798981Y-108307506D01*
X159812599Y-108338179D01*
X159832527Y-108338571D01*
X159838989Y-108334910D01*
X159924940Y-108308398D01*
X160036745Y-108309946D01*
X160150414Y-108337199D01*
X160221510Y-108372455D01*
X160294405Y-108428778D01*
X160347693Y-108492519D01*
X160384275Y-108573510D01*
X160407050Y-108681586D01*
X160418919Y-108826580D01*
X160422782Y-109018326D01*
X160422851Y-109055109D01*
X160422897Y-109468288D01*
X160330954Y-109500339D01*
X160265652Y-109522144D01*
X160229824Y-109532297D01*
X160228770Y-109532391D01*
X160225242Y-109504860D01*
X160222239Y-109428923D01*
X160219990Y-109314565D01*
X160218724Y-109171769D01*
X160218529Y-109084951D01*
X160218123Y-108913773D01*
X160216032Y-108791088D01*
X160210947Y-108707000D01*
X160201560Y-108651614D01*
X160186561Y-108615032D01*
X160164642Y-108587359D01*
X160150957Y-108574032D01*
X160056949Y-108520328D01*
X159954364Y-108516307D01*
X159861290Y-108561725D01*
X159844078Y-108578123D01*
X159818832Y-108608957D01*
X159801320Y-108645531D01*
X159790142Y-108698415D01*
X159783896Y-108778177D01*
X159781182Y-108895385D01*
X159780598Y-109056991D01*
X159780598Y-109468288D01*
X159688655Y-109500339D01*
X159623353Y-109522144D01*
X159587525Y-109532297D01*
X159586471Y-109532391D01*
X159583775Y-109504448D01*
X159581345Y-109425630D01*
X159579278Y-109303453D01*
X159577671Y-109145432D01*
X159576623Y-108959083D01*
X159576231Y-108751920D01*
X159576230Y-108742706D01*
X159576230Y-107953020D01*
X159671115Y-107912997D01*
X159766000Y-107872973D01*
X159780598Y-108117857D01*
G37*
X159780598Y-108117857D02*
X159789154Y-108237188D01*
X159798981Y-108307506D01*
X159812599Y-108338179D01*
X159832527Y-108338571D01*
X159838989Y-108334910D01*
X159924940Y-108308398D01*
X160036745Y-108309946D01*
X160150414Y-108337199D01*
X160221510Y-108372455D01*
X160294405Y-108428778D01*
X160347693Y-108492519D01*
X160384275Y-108573510D01*
X160407050Y-108681586D01*
X160418919Y-108826580D01*
X160422782Y-109018326D01*
X160422851Y-109055109D01*
X160422897Y-109468288D01*
X160330954Y-109500339D01*
X160265652Y-109522144D01*
X160229824Y-109532297D01*
X160228770Y-109532391D01*
X160225242Y-109504860D01*
X160222239Y-109428923D01*
X160219990Y-109314565D01*
X160218724Y-109171769D01*
X160218529Y-109084951D01*
X160218123Y-108913773D01*
X160216032Y-108791088D01*
X160210947Y-108707000D01*
X160201560Y-108651614D01*
X160186561Y-108615032D01*
X160164642Y-108587359D01*
X160150957Y-108574032D01*
X160056949Y-108520328D01*
X159954364Y-108516307D01*
X159861290Y-108561725D01*
X159844078Y-108578123D01*
X159818832Y-108608957D01*
X159801320Y-108645531D01*
X159790142Y-108698415D01*
X159783896Y-108778177D01*
X159781182Y-108895385D01*
X159780598Y-109056991D01*
X159780598Y-109468288D01*
X159688655Y-109500339D01*
X159623353Y-109522144D01*
X159587525Y-109532297D01*
X159586471Y-109532391D01*
X159583775Y-109504448D01*
X159581345Y-109425630D01*
X159579278Y-109303453D01*
X159577671Y-109145432D01*
X159576623Y-108959083D01*
X159576231Y-108751920D01*
X159576230Y-108742706D01*
X159576230Y-107953020D01*
X159671115Y-107912997D01*
X159766000Y-107872973D01*
X159780598Y-108117857D01*
G36*
X157351552Y-108278676D02*
G01*
X157466658Y-108356111D01*
X157555611Y-108467949D01*
X157608749Y-108610265D01*
X157619497Y-108715015D01*
X157618276Y-108758726D01*
X157608056Y-108792194D01*
X157579961Y-108822179D01*
X157525116Y-108855440D01*
X157434645Y-108898738D01*
X157299672Y-108958833D01*
X157298989Y-108959134D01*
X157174751Y-109016037D01*
X157072873Y-109066565D01*
X157003767Y-109105280D01*
X156977846Y-109126740D01*
X156977839Y-109126913D01*
X157000685Y-109173644D01*
X157054109Y-109225154D01*
X157115442Y-109262261D01*
X157146515Y-109269632D01*
X157231289Y-109244138D01*
X157304293Y-109180291D01*
X157339913Y-109110094D01*
X157374180Y-109058343D01*
X157441303Y-108999409D01*
X157520208Y-108948496D01*
X157589821Y-108920809D01*
X157604377Y-108919287D01*
X157620763Y-108944321D01*
X157621750Y-109008311D01*
X157609708Y-109094593D01*
X157587007Y-109186501D01*
X157556014Y-109267369D01*
X157554448Y-109270509D01*
X157461181Y-109400734D01*
X157340304Y-109489311D01*
X157203027Y-109532786D01*
X157060560Y-109527706D01*
X156924112Y-109470616D01*
X156918045Y-109466602D01*
X156810710Y-109369326D01*
X156740132Y-109242409D01*
X156701074Y-109075526D01*
X156695832Y-109028639D01*
X156686548Y-108807329D01*
X156697678Y-108704124D01*
X156977839Y-108704124D01*
X156981479Y-108768503D01*
X157001389Y-108787291D01*
X157051026Y-108773235D01*
X157129267Y-108740009D01*
X157216726Y-108698359D01*
X157218899Y-108697256D01*
X157293030Y-108658265D01*
X157322781Y-108632244D01*
X157315445Y-108604965D01*
X157284553Y-108569121D01*
X157205960Y-108517251D01*
X157121323Y-108513439D01*
X157045403Y-108551189D01*
X156992965Y-108624001D01*
X156977839Y-108704124D01*
X156697678Y-108704124D01*
X156705644Y-108630261D01*
X156754634Y-108489829D01*
X156822836Y-108391447D01*
X156945935Y-108292030D01*
X157081528Y-108242711D01*
X157219955Y-108239568D01*
X157351552Y-108278676D01*
G37*
X157351552Y-108278676D02*
X157466658Y-108356111D01*
X157555611Y-108467949D01*
X157608749Y-108610265D01*
X157619497Y-108715015D01*
X157618276Y-108758726D01*
X157608056Y-108792194D01*
X157579961Y-108822179D01*
X157525116Y-108855440D01*
X157434645Y-108898738D01*
X157299672Y-108958833D01*
X157298989Y-108959134D01*
X157174751Y-109016037D01*
X157072873Y-109066565D01*
X157003767Y-109105280D01*
X156977846Y-109126740D01*
X156977839Y-109126913D01*
X157000685Y-109173644D01*
X157054109Y-109225154D01*
X157115442Y-109262261D01*
X157146515Y-109269632D01*
X157231289Y-109244138D01*
X157304293Y-109180291D01*
X157339913Y-109110094D01*
X157374180Y-109058343D01*
X157441303Y-108999409D01*
X157520208Y-108948496D01*
X157589821Y-108920809D01*
X157604377Y-108919287D01*
X157620763Y-108944321D01*
X157621750Y-109008311D01*
X157609708Y-109094593D01*
X157587007Y-109186501D01*
X157556014Y-109267369D01*
X157554448Y-109270509D01*
X157461181Y-109400734D01*
X157340304Y-109489311D01*
X157203027Y-109532786D01*
X157060560Y-109527706D01*
X156924112Y-109470616D01*
X156918045Y-109466602D01*
X156810710Y-109369326D01*
X156740132Y-109242409D01*
X156701074Y-109075526D01*
X156695832Y-109028639D01*
X156686548Y-108807329D01*
X156697678Y-108704124D01*
X156977839Y-108704124D01*
X156981479Y-108768503D01*
X157001389Y-108787291D01*
X157051026Y-108773235D01*
X157129267Y-108740009D01*
X157216726Y-108698359D01*
X157218899Y-108697256D01*
X157293030Y-108658265D01*
X157322781Y-108632244D01*
X157315445Y-108604965D01*
X157284553Y-108569121D01*
X157205960Y-108517251D01*
X157121323Y-108513439D01*
X157045403Y-108551189D01*
X156992965Y-108624001D01*
X156977839Y-108704124D01*
X156697678Y-108704124D01*
X156705644Y-108630261D01*
X156754634Y-108489829D01*
X156822836Y-108391447D01*
X156945935Y-108292030D01*
X157081528Y-108242711D01*
X157219955Y-108239568D01*
X157351552Y-108278676D01*
G36*
X155084221Y-108260015D02*
G01*
X155221061Y-108331968D01*
X155322051Y-108447766D01*
X155357925Y-108522213D01*
X155385839Y-108633992D01*
X155400129Y-108775227D01*
X155401484Y-108929371D01*
X155390595Y-109079879D01*
X155368153Y-109210205D01*
X155334850Y-109303803D01*
X155324615Y-109319922D01*
X155203382Y-109440249D01*
X155059387Y-109512317D01*
X154903139Y-109533408D01*
X154745148Y-109500802D01*
X154701180Y-109481253D01*
X154615556Y-109421012D01*
X154540408Y-109341135D01*
X154533306Y-109331004D01*
X154504439Y-109282181D01*
X154485357Y-109229990D01*
X154474084Y-109161285D01*
X154468645Y-109062918D01*
X154467062Y-108921744D01*
X154467035Y-108890092D01*
X154467107Y-108880019D01*
X154758989Y-108880019D01*
X154760687Y-109013256D01*
X154767372Y-109101674D01*
X154781425Y-109158785D01*
X154805229Y-109198102D01*
X154817379Y-109211241D01*
X154887236Y-109261172D01*
X154955059Y-109258895D01*
X155023635Y-109215584D01*
X155064535Y-109169346D01*
X155088758Y-109101857D01*
X155102361Y-108995433D01*
X155103294Y-108983020D01*
X155105616Y-108790147D01*
X155081350Y-108646900D01*
X155030824Y-108554160D01*
X154954368Y-108512807D01*
X154927076Y-108510552D01*
X154855411Y-108521893D01*
X154806390Y-108561184D01*
X154776418Y-108636326D01*
X154761899Y-108755222D01*
X154758989Y-108880019D01*
X154467107Y-108880019D01*
X154468122Y-108739659D01*
X154472688Y-108634549D01*
X154482688Y-108561714D01*
X154500079Y-108508108D01*
X154526816Y-108460681D01*
X154532724Y-108451864D01*
X154632032Y-108333007D01*
X154740242Y-108264008D01*
X154871981Y-108236619D01*
X154916717Y-108235281D01*
X155084221Y-108260015D01*
G37*
X155084221Y-108260015D02*
X155221061Y-108331968D01*
X155322051Y-108447766D01*
X155357925Y-108522213D01*
X155385839Y-108633992D01*
X155400129Y-108775227D01*
X155401484Y-108929371D01*
X155390595Y-109079879D01*
X155368153Y-109210205D01*
X155334850Y-109303803D01*
X155324615Y-109319922D01*
X155203382Y-109440249D01*
X155059387Y-109512317D01*
X154903139Y-109533408D01*
X154745148Y-109500802D01*
X154701180Y-109481253D01*
X154615556Y-109421012D01*
X154540408Y-109341135D01*
X154533306Y-109331004D01*
X154504439Y-109282181D01*
X154485357Y-109229990D01*
X154474084Y-109161285D01*
X154468645Y-109062918D01*
X154467062Y-108921744D01*
X154467035Y-108890092D01*
X154467107Y-108880019D01*
X154758989Y-108880019D01*
X154760687Y-109013256D01*
X154767372Y-109101674D01*
X154781425Y-109158785D01*
X154805229Y-109198102D01*
X154817379Y-109211241D01*
X154887236Y-109261172D01*
X154955059Y-109258895D01*
X155023635Y-109215584D01*
X155064535Y-109169346D01*
X155088758Y-109101857D01*
X155102361Y-108995433D01*
X155103294Y-108983020D01*
X155105616Y-108790147D01*
X155081350Y-108646900D01*
X155030824Y-108554160D01*
X154954368Y-108512807D01*
X154927076Y-108510552D01*
X154855411Y-108521893D01*
X154806390Y-108561184D01*
X154776418Y-108636326D01*
X154761899Y-108755222D01*
X154758989Y-108880019D01*
X154467107Y-108880019D01*
X154468122Y-108739659D01*
X154472688Y-108634549D01*
X154482688Y-108561714D01*
X154500079Y-108508108D01*
X154526816Y-108460681D01*
X154532724Y-108451864D01*
X154632032Y-108333007D01*
X154740242Y-108264008D01*
X154871981Y-108236619D01*
X154916717Y-108235281D01*
X155084221Y-108260015D01*
G36*
X158453429Y-108271719D02*
G01*
X158547123Y-108325914D01*
X158612264Y-108379707D01*
X158659907Y-108436066D01*
X158692728Y-108504987D01*
X158713406Y-108596468D01*
X158724620Y-108720506D01*
X158729049Y-108887098D01*
X158729563Y-109006851D01*
X158729563Y-109447659D01*
X158605483Y-109503283D01*
X158481402Y-109558907D01*
X158466805Y-109076095D01*
X158460773Y-108895779D01*
X158454445Y-108764901D01*
X158446606Y-108674511D01*
X158436037Y-108615664D01*
X158421523Y-108579413D01*
X158401848Y-108556810D01*
X158395535Y-108551917D01*
X158299888Y-108513706D01*
X158203207Y-108528827D01*
X158145655Y-108568943D01*
X158122245Y-108597370D01*
X158106039Y-108634672D01*
X158095741Y-108691223D01*
X158090049Y-108777394D01*
X158087664Y-108903558D01*
X158087264Y-109035042D01*
X158087186Y-109199999D01*
X158084361Y-109316761D01*
X158074907Y-109395510D01*
X158054940Y-109446431D01*
X158020576Y-109479706D01*
X157967932Y-109505520D01*
X157897617Y-109532344D01*
X157820820Y-109561542D01*
X157829962Y-109043346D01*
X157833643Y-108856539D01*
X157837950Y-108718490D01*
X157844123Y-108619568D01*
X157853402Y-108550145D01*
X157867027Y-108500590D01*
X157886239Y-108461273D01*
X157909402Y-108426584D01*
X158021152Y-108315770D01*
X158157513Y-108251689D01*
X158305825Y-108236339D01*
X158453429Y-108271719D01*
G37*
X158453429Y-108271719D02*
X158547123Y-108325914D01*
X158612264Y-108379707D01*
X158659907Y-108436066D01*
X158692728Y-108504987D01*
X158713406Y-108596468D01*
X158724620Y-108720506D01*
X158729049Y-108887098D01*
X158729563Y-109006851D01*
X158729563Y-109447659D01*
X158605483Y-109503283D01*
X158481402Y-109558907D01*
X158466805Y-109076095D01*
X158460773Y-108895779D01*
X158454445Y-108764901D01*
X158446606Y-108674511D01*
X158436037Y-108615664D01*
X158421523Y-108579413D01*
X158401848Y-108556810D01*
X158395535Y-108551917D01*
X158299888Y-108513706D01*
X158203207Y-108528827D01*
X158145655Y-108568943D01*
X158122245Y-108597370D01*
X158106039Y-108634672D01*
X158095741Y-108691223D01*
X158090049Y-108777394D01*
X158087664Y-108903558D01*
X158087264Y-109035042D01*
X158087186Y-109199999D01*
X158084361Y-109316761D01*
X158074907Y-109395510D01*
X158054940Y-109446431D01*
X158020576Y-109479706D01*
X157967932Y-109505520D01*
X157897617Y-109532344D01*
X157820820Y-109561542D01*
X157829962Y-109043346D01*
X157833643Y-108856539D01*
X157837950Y-108718490D01*
X157844123Y-108619568D01*
X157853402Y-108550145D01*
X157867027Y-108500590D01*
X157886239Y-108461273D01*
X157909402Y-108426584D01*
X158021152Y-108315770D01*
X158157513Y-108251689D01*
X158305825Y-108236339D01*
X158453429Y-108271719D01*
G36*
X156207900Y-108255903D02*
G01*
X156319450Y-108311522D01*
X156417908Y-108413931D01*
X156445023Y-108451864D01*
X156474562Y-108501500D01*
X156493728Y-108555412D01*
X156504693Y-108627364D01*
X156509629Y-108731122D01*
X156510713Y-108868101D01*
X156505818Y-109055815D01*
X156488804Y-109196758D01*
X156456177Y-109301908D01*
X156404442Y-109382243D01*
X156330104Y-109448741D01*
X156324642Y-109452678D01*
X156251380Y-109492953D01*
X156163160Y-109512880D01*
X156050962Y-109517793D01*
X155868567Y-109517793D01*
X155868491Y-109694857D01*
X155866793Y-109793470D01*
X155856450Y-109851314D01*
X155829422Y-109886006D01*
X155777668Y-109915164D01*
X155765239Y-109921121D01*
X155707077Y-109949039D01*
X155662044Y-109966672D01*
X155628559Y-109968194D01*
X155605038Y-109947781D01*
X155589900Y-109899607D01*
X155581563Y-109817846D01*
X155578444Y-109696672D01*
X155578960Y-109530260D01*
X155581529Y-109312785D01*
X155582332Y-109247736D01*
X155585222Y-109023502D01*
X155587812Y-108876821D01*
X155868414Y-108876821D01*
X155869991Y-109001326D01*
X155877000Y-109082787D01*
X155892858Y-109136515D01*
X155920981Y-109177823D01*
X155940075Y-109197971D01*
X156018135Y-109256921D01*
X156087247Y-109261720D01*
X156158560Y-109213038D01*
X156160368Y-109211241D01*
X156189383Y-109173618D01*
X156207033Y-109122484D01*
X156215936Y-109043738D01*
X156218709Y-108923276D01*
X156218759Y-108896588D01*
X156212058Y-108730583D01*
X156190248Y-108615505D01*
X156150765Y-108545254D01*
X156091044Y-108513729D01*
X156056528Y-108510552D01*
X155974611Y-108525460D01*
X155918421Y-108574548D01*
X155884598Y-108664362D01*
X155869780Y-108801445D01*
X155868414Y-108876821D01*
X155587812Y-108876821D01*
X155588287Y-108849952D01*
X155592247Y-108719382D01*
X155597826Y-108624087D01*
X155605746Y-108556364D01*
X155616731Y-108508507D01*
X155631501Y-108472813D01*
X155650782Y-108441578D01*
X155659049Y-108429824D01*
X155768712Y-108318797D01*
X155907365Y-108255847D01*
X156067754Y-108238297D01*
X156207900Y-108255903D01*
G37*
X156207900Y-108255903D02*
X156319450Y-108311522D01*
X156417908Y-108413931D01*
X156445023Y-108451864D01*
X156474562Y-108501500D01*
X156493728Y-108555412D01*
X156504693Y-108627364D01*
X156509629Y-108731122D01*
X156510713Y-108868101D01*
X156505818Y-109055815D01*
X156488804Y-109196758D01*
X156456177Y-109301908D01*
X156404442Y-109382243D01*
X156330104Y-109448741D01*
X156324642Y-109452678D01*
X156251380Y-109492953D01*
X156163160Y-109512880D01*
X156050962Y-109517793D01*
X155868567Y-109517793D01*
X155868491Y-109694857D01*
X155866793Y-109793470D01*
X155856450Y-109851314D01*
X155829422Y-109886006D01*
X155777668Y-109915164D01*
X155765239Y-109921121D01*
X155707077Y-109949039D01*
X155662044Y-109966672D01*
X155628559Y-109968194D01*
X155605038Y-109947781D01*
X155589900Y-109899607D01*
X155581563Y-109817846D01*
X155578444Y-109696672D01*
X155578960Y-109530260D01*
X155581529Y-109312785D01*
X155582332Y-109247736D01*
X155585222Y-109023502D01*
X155587812Y-108876821D01*
X155868414Y-108876821D01*
X155869991Y-109001326D01*
X155877000Y-109082787D01*
X155892858Y-109136515D01*
X155920981Y-109177823D01*
X155940075Y-109197971D01*
X156018135Y-109256921D01*
X156087247Y-109261720D01*
X156158560Y-109213038D01*
X156160368Y-109211241D01*
X156189383Y-109173618D01*
X156207033Y-109122484D01*
X156215936Y-109043738D01*
X156218709Y-108923276D01*
X156218759Y-108896588D01*
X156212058Y-108730583D01*
X156190248Y-108615505D01*
X156150765Y-108545254D01*
X156091044Y-108513729D01*
X156056528Y-108510552D01*
X155974611Y-108525460D01*
X155918421Y-108574548D01*
X155884598Y-108664362D01*
X155869780Y-108801445D01*
X155868414Y-108876821D01*
X155587812Y-108876821D01*
X155588287Y-108849952D01*
X155592247Y-108719382D01*
X155597826Y-108624087D01*
X155605746Y-108556364D01*
X155616731Y-108508507D01*
X155631501Y-108472813D01*
X155650782Y-108441578D01*
X155659049Y-108429824D01*
X155768712Y-108318797D01*
X155907365Y-108255847D01*
X156067754Y-108238297D01*
X156207900Y-108255903D01*
D11*
%TO.C,R2*%
X165835000Y-61949064D02*
X165835000Y-61494936D01*
X164365000Y-61949064D02*
X164365000Y-61494936D01*
%TO.C,U1*%
X138962000Y-48975000D02*
X138582000Y-48975000D01*
X138962000Y-42555000D02*
X138962000Y-48975000D01*
X157202000Y-42555000D02*
X157202000Y-48975000D01*
X138962000Y-42555000D02*
X157202000Y-42555000D01*
X157202000Y-68300000D02*
X156202000Y-68300000D01*
X157202000Y-67520000D02*
X157202000Y-68300000D01*
X138962000Y-68300000D02*
X139962000Y-68300000D01*
X138962000Y-67520000D02*
X138962000Y-68300000D01*
%TO.C,R8*%
X139419000Y-110971064D02*
X139419000Y-110516936D01*
X137949000Y-110971064D02*
X137949000Y-110516936D01*
%TO.C,R4*%
X135154936Y-54583000D02*
X135609064Y-54583000D01*
X135154936Y-53113000D02*
X135609064Y-53113000D01*
%TO.C,R5*%
X134339064Y-62511000D02*
X133884936Y-62511000D01*
X134339064Y-63981000D02*
X133884936Y-63981000D01*
%TO.C,R3*%
X133884936Y-71601000D02*
X134339064Y-71601000D01*
X133884936Y-70131000D02*
X134339064Y-70131000D01*
%TO.C,R1*%
X161263000Y-61949064D02*
X161263000Y-61494936D01*
X159793000Y-61949064D02*
X159793000Y-61494936D01*
%TO.C,C1*%
X136879000Y-51061252D02*
X136879000Y-50538748D01*
X135409000Y-51061252D02*
X135409000Y-50538748D01*
%TO.C,C3*%
X135409000Y-56888748D02*
X135409000Y-57411252D01*
X136879000Y-56888748D02*
X136879000Y-57411252D01*
%TO.C,C2*%
X129251225Y-56441000D02*
X129251225Y-56941000D01*
X129001225Y-56691000D02*
X129501225Y-56691000D01*
X134407000Y-57882000D02*
X134407000Y-58450000D01*
X134367000Y-57648000D02*
X134367000Y-58684000D01*
X134327000Y-57489000D02*
X134327000Y-58843000D01*
X134287000Y-57361000D02*
X134287000Y-58971000D01*
X134247000Y-57251000D02*
X134247000Y-59081000D01*
X134207000Y-57155000D02*
X134207000Y-59177000D01*
X134167000Y-57068000D02*
X134167000Y-59264000D01*
X134127000Y-56988000D02*
X134127000Y-59344000D01*
X134087000Y-59206000D02*
X134087000Y-59417000D01*
X134087000Y-56915000D02*
X134087000Y-57126000D01*
X134047000Y-59206000D02*
X134047000Y-59485000D01*
X134047000Y-56847000D02*
X134047000Y-57126000D01*
X134007000Y-59206000D02*
X134007000Y-59549000D01*
X134007000Y-56783000D02*
X134007000Y-57126000D01*
X133967000Y-59206000D02*
X133967000Y-59609000D01*
X133967000Y-56723000D02*
X133967000Y-57126000D01*
X133927000Y-59206000D02*
X133927000Y-59666000D01*
X133927000Y-56666000D02*
X133927000Y-57126000D01*
X133887000Y-59206000D02*
X133887000Y-59720000D01*
X133887000Y-56612000D02*
X133887000Y-57126000D01*
X133847000Y-59206000D02*
X133847000Y-59771000D01*
X133847000Y-56561000D02*
X133847000Y-57126000D01*
X133807000Y-59206000D02*
X133807000Y-59819000D01*
X133807000Y-56513000D02*
X133807000Y-57126000D01*
X133767000Y-59206000D02*
X133767000Y-59865000D01*
X133767000Y-56467000D02*
X133767000Y-57126000D01*
X133727000Y-59206000D02*
X133727000Y-59909000D01*
X133727000Y-56423000D02*
X133727000Y-57126000D01*
X133687000Y-59206000D02*
X133687000Y-59951000D01*
X133687000Y-56381000D02*
X133687000Y-57126000D01*
X133647000Y-59206000D02*
X133647000Y-59992000D01*
X133647000Y-56340000D02*
X133647000Y-57126000D01*
X133607000Y-59206000D02*
X133607000Y-60030000D01*
X133607000Y-56302000D02*
X133607000Y-57126000D01*
X133567000Y-59206000D02*
X133567000Y-60067000D01*
X133567000Y-56265000D02*
X133567000Y-57126000D01*
X133527000Y-59206000D02*
X133527000Y-60103000D01*
X133527000Y-56229000D02*
X133527000Y-57126000D01*
X133487000Y-59206000D02*
X133487000Y-60137000D01*
X133487000Y-56195000D02*
X133487000Y-57126000D01*
X133447000Y-59206000D02*
X133447000Y-60170000D01*
X133447000Y-56162000D02*
X133447000Y-57126000D01*
X133407000Y-59206000D02*
X133407000Y-60201000D01*
X133407000Y-56131000D02*
X133407000Y-57126000D01*
X133367000Y-59206000D02*
X133367000Y-60231000D01*
X133367000Y-56101000D02*
X133367000Y-57126000D01*
X133327000Y-59206000D02*
X133327000Y-60261000D01*
X133327000Y-56071000D02*
X133327000Y-57126000D01*
X133287000Y-59206000D02*
X133287000Y-60288000D01*
X133287000Y-56044000D02*
X133287000Y-57126000D01*
X133247000Y-59206000D02*
X133247000Y-60315000D01*
X133247000Y-56017000D02*
X133247000Y-57126000D01*
X133207000Y-59206000D02*
X133207000Y-60341000D01*
X133207000Y-55991000D02*
X133207000Y-57126000D01*
X133167000Y-59206000D02*
X133167000Y-60366000D01*
X133167000Y-55966000D02*
X133167000Y-57126000D01*
X133127000Y-59206000D02*
X133127000Y-60390000D01*
X133127000Y-55942000D02*
X133127000Y-57126000D01*
X133087000Y-59206000D02*
X133087000Y-60413000D01*
X133087000Y-55919000D02*
X133087000Y-57126000D01*
X133047000Y-59206000D02*
X133047000Y-60434000D01*
X133047000Y-55898000D02*
X133047000Y-57126000D01*
X133007000Y-59206000D02*
X133007000Y-60456000D01*
X133007000Y-55876000D02*
X133007000Y-57126000D01*
X132967000Y-59206000D02*
X132967000Y-60476000D01*
X132967000Y-55856000D02*
X132967000Y-57126000D01*
X132927000Y-59206000D02*
X132927000Y-60495000D01*
X132927000Y-55837000D02*
X132927000Y-57126000D01*
X132887000Y-59206000D02*
X132887000Y-60514000D01*
X132887000Y-55818000D02*
X132887000Y-57126000D01*
X132847000Y-59206000D02*
X132847000Y-60531000D01*
X132847000Y-55801000D02*
X132847000Y-57126000D01*
X132807000Y-59206000D02*
X132807000Y-60548000D01*
X132807000Y-55784000D02*
X132807000Y-57126000D01*
X132767000Y-59206000D02*
X132767000Y-60564000D01*
X132767000Y-55768000D02*
X132767000Y-57126000D01*
X132727000Y-59206000D02*
X132727000Y-60580000D01*
X132727000Y-55752000D02*
X132727000Y-57126000D01*
X132687000Y-59206000D02*
X132687000Y-60594000D01*
X132687000Y-55738000D02*
X132687000Y-57126000D01*
X132647000Y-59206000D02*
X132647000Y-60608000D01*
X132647000Y-55724000D02*
X132647000Y-57126000D01*
X132607000Y-59206000D02*
X132607000Y-60621000D01*
X132607000Y-55711000D02*
X132607000Y-57126000D01*
X132567000Y-59206000D02*
X132567000Y-60634000D01*
X132567000Y-55698000D02*
X132567000Y-57126000D01*
X132527000Y-59206000D02*
X132527000Y-60646000D01*
X132527000Y-55686000D02*
X132527000Y-57126000D01*
X132486000Y-59206000D02*
X132486000Y-60657000D01*
X132486000Y-55675000D02*
X132486000Y-57126000D01*
X132446000Y-59206000D02*
X132446000Y-60667000D01*
X132446000Y-55665000D02*
X132446000Y-57126000D01*
X132406000Y-59206000D02*
X132406000Y-60677000D01*
X132406000Y-55655000D02*
X132406000Y-57126000D01*
X132366000Y-59206000D02*
X132366000Y-60686000D01*
X132366000Y-55646000D02*
X132366000Y-57126000D01*
X132326000Y-59206000D02*
X132326000Y-60694000D01*
X132326000Y-55638000D02*
X132326000Y-57126000D01*
X132286000Y-59206000D02*
X132286000Y-60702000D01*
X132286000Y-55630000D02*
X132286000Y-57126000D01*
X132246000Y-59206000D02*
X132246000Y-60709000D01*
X132246000Y-55623000D02*
X132246000Y-57126000D01*
X132206000Y-59206000D02*
X132206000Y-60716000D01*
X132206000Y-55616000D02*
X132206000Y-57126000D01*
X132166000Y-59206000D02*
X132166000Y-60722000D01*
X132166000Y-55610000D02*
X132166000Y-57126000D01*
X132126000Y-59206000D02*
X132126000Y-60727000D01*
X132126000Y-55605000D02*
X132126000Y-57126000D01*
X132086000Y-59206000D02*
X132086000Y-60731000D01*
X132086000Y-55601000D02*
X132086000Y-57126000D01*
X132046000Y-59206000D02*
X132046000Y-60735000D01*
X132046000Y-55597000D02*
X132046000Y-57126000D01*
X132006000Y-55593000D02*
X132006000Y-60739000D01*
X131966000Y-55590000D02*
X131966000Y-60742000D01*
X131926000Y-55588000D02*
X131926000Y-60744000D01*
X131886000Y-55587000D02*
X131886000Y-60745000D01*
X131846000Y-55586000D02*
X131846000Y-60746000D01*
X131806000Y-55586000D02*
X131806000Y-60746000D01*
X134426000Y-58166000D02*
G75*
G03*
X134426000Y-58166000I-2620000J0D01*
G01*
%TO.C,J3*%
X128972000Y-61916000D02*
X130302000Y-61916000D01*
X128972000Y-63246000D02*
X128972000Y-61916000D01*
X128972000Y-64516000D02*
X131632000Y-64516000D01*
X131632000Y-64516000D02*
X131632000Y-77276000D01*
X128972000Y-64516000D02*
X128972000Y-77276000D01*
X128972000Y-77276000D02*
X131632000Y-77276000D01*
%TO.C,U2*%
D13*
X134112095Y-94702380D02*
X134112095Y-95511904D01*
X134159714Y-95607142D01*
X134207333Y-95654761D01*
X134302571Y-95702380D01*
X134493047Y-95702380D01*
X134588285Y-95654761D01*
X134635904Y-95607142D01*
X134683523Y-95511904D01*
X134683523Y-94702380D01*
X135112095Y-94797619D02*
X135159714Y-94750000D01*
X135254952Y-94702380D01*
X135493047Y-94702380D01*
X135588285Y-94750000D01*
X135635904Y-94797619D01*
X135683523Y-94892857D01*
X135683523Y-94988095D01*
X135635904Y-95130952D01*
X135064476Y-95702380D01*
X135683523Y-95702380D01*
%TO.C,D2*%
X135659904Y-109926380D02*
X135659904Y-108926380D01*
X135898000Y-108926380D01*
X136040857Y-108974000D01*
X136136095Y-109069238D01*
X136183714Y-109164476D01*
X136231333Y-109354952D01*
X136231333Y-109497809D01*
X136183714Y-109688285D01*
X136136095Y-109783523D01*
X136040857Y-109878761D01*
X135898000Y-109926380D01*
X135659904Y-109926380D01*
X136612285Y-109021619D02*
X136659904Y-108974000D01*
X136755142Y-108926380D01*
X136993238Y-108926380D01*
X137088476Y-108974000D01*
X137136095Y-109021619D01*
X137183714Y-109116857D01*
X137183714Y-109212095D01*
X137136095Y-109354952D01*
X136564666Y-109926380D01*
X137183714Y-109926380D01*
%TO.C,C6*%
X130577333Y-93165142D02*
X130529714Y-93212761D01*
X130386857Y-93260380D01*
X130291619Y-93260380D01*
X130148761Y-93212761D01*
X130053523Y-93117523D01*
X130005904Y-93022285D01*
X129958285Y-92831809D01*
X129958285Y-92688952D01*
X130005904Y-92498476D01*
X130053523Y-92403238D01*
X130148761Y-92308000D01*
X130291619Y-92260380D01*
X130386857Y-92260380D01*
X130529714Y-92308000D01*
X130577333Y-92355619D01*
X131434476Y-92260380D02*
X131244000Y-92260380D01*
X131148761Y-92308000D01*
X131101142Y-92355619D01*
X131005904Y-92498476D01*
X130958285Y-92688952D01*
X130958285Y-93069904D01*
X131005904Y-93165142D01*
X131053523Y-93212761D01*
X131148761Y-93260380D01*
X131339238Y-93260380D01*
X131434476Y-93212761D01*
X131482095Y-93165142D01*
X131529714Y-93069904D01*
X131529714Y-92831809D01*
X131482095Y-92736571D01*
X131434476Y-92688952D01*
X131339238Y-92641333D01*
X131148761Y-92641333D01*
X131053523Y-92688952D01*
X131005904Y-92736571D01*
X130958285Y-92831809D01*
%TO.C,C5*%
X142053333Y-102271142D02*
X142005714Y-102318761D01*
X141862857Y-102366380D01*
X141767619Y-102366380D01*
X141624761Y-102318761D01*
X141529523Y-102223523D01*
X141481904Y-102128285D01*
X141434285Y-101937809D01*
X141434285Y-101794952D01*
X141481904Y-101604476D01*
X141529523Y-101509238D01*
X141624761Y-101414000D01*
X141767619Y-101366380D01*
X141862857Y-101366380D01*
X142005714Y-101414000D01*
X142053333Y-101461619D01*
X142958095Y-101366380D02*
X142481904Y-101366380D01*
X142434285Y-101842571D01*
X142481904Y-101794952D01*
X142577142Y-101747333D01*
X142815238Y-101747333D01*
X142910476Y-101794952D01*
X142958095Y-101842571D01*
X143005714Y-101937809D01*
X143005714Y-102175904D01*
X142958095Y-102271142D01*
X142910476Y-102318761D01*
X142815238Y-102366380D01*
X142577142Y-102366380D01*
X142481904Y-102318761D01*
X142434285Y-102271142D01*
%TO.C,R7*%
X142835333Y-110688380D02*
X142502000Y-110212190D01*
X142263904Y-110688380D02*
X142263904Y-109688380D01*
X142644857Y-109688380D01*
X142740095Y-109736000D01*
X142787714Y-109783619D01*
X142835333Y-109878857D01*
X142835333Y-110021714D01*
X142787714Y-110116952D01*
X142740095Y-110164571D01*
X142644857Y-110212190D01*
X142263904Y-110212190D01*
X143168666Y-109688380D02*
X143835333Y-109688380D01*
X143406761Y-110688380D01*
%TO.C,J1*%
X164258666Y-111720380D02*
X164258666Y-112434666D01*
X164211047Y-112577523D01*
X164115809Y-112672761D01*
X163972952Y-112720380D01*
X163877714Y-112720380D01*
X165258666Y-112720380D02*
X164687238Y-112720380D01*
X164972952Y-112720380D02*
X164972952Y-111720380D01*
X164877714Y-111863238D01*
X164782476Y-111958476D01*
X164687238Y-112006095D01*
%TO.C,C4*%
X130135333Y-52329142D02*
X130087714Y-52376761D01*
X129944857Y-52424380D01*
X129849619Y-52424380D01*
X129706761Y-52376761D01*
X129611523Y-52281523D01*
X129563904Y-52186285D01*
X129516285Y-51995809D01*
X129516285Y-51852952D01*
X129563904Y-51662476D01*
X129611523Y-51567238D01*
X129706761Y-51472000D01*
X129849619Y-51424380D01*
X129944857Y-51424380D01*
X130087714Y-51472000D01*
X130135333Y-51519619D01*
X130992476Y-51757714D02*
X130992476Y-52424380D01*
X130754380Y-51376761D02*
X130516285Y-52091047D01*
X131135333Y-52091047D01*
%TO.C,R6*%
X162901333Y-51252380D02*
X162568000Y-50776190D01*
X162329904Y-51252380D02*
X162329904Y-50252380D01*
X162710857Y-50252380D01*
X162806095Y-50300000D01*
X162853714Y-50347619D01*
X162901333Y-50442857D01*
X162901333Y-50585714D01*
X162853714Y-50680952D01*
X162806095Y-50728571D01*
X162710857Y-50776190D01*
X162329904Y-50776190D01*
X163758476Y-50252380D02*
X163568000Y-50252380D01*
X163472761Y-50300000D01*
X163425142Y-50347619D01*
X163329904Y-50490476D01*
X163282285Y-50680952D01*
X163282285Y-51061904D01*
X163329904Y-51157142D01*
X163377523Y-51204761D01*
X163472761Y-51252380D01*
X163663238Y-51252380D01*
X163758476Y-51204761D01*
X163806095Y-51157142D01*
X163853714Y-51061904D01*
X163853714Y-50823809D01*
X163806095Y-50728571D01*
X163758476Y-50680952D01*
X163663238Y-50633333D01*
X163472761Y-50633333D01*
X163377523Y-50680952D01*
X163329904Y-50728571D01*
X163282285Y-50823809D01*
%TO.C,D1*%
X166647904Y-58618380D02*
X166647904Y-57618380D01*
X166886000Y-57618380D01*
X167028857Y-57666000D01*
X167124095Y-57761238D01*
X167171714Y-57856476D01*
X167219333Y-58046952D01*
X167219333Y-58189809D01*
X167171714Y-58380285D01*
X167124095Y-58475523D01*
X167028857Y-58570761D01*
X166886000Y-58618380D01*
X166647904Y-58618380D01*
X168171714Y-58618380D02*
X167600285Y-58618380D01*
X167886000Y-58618380D02*
X167886000Y-57618380D01*
X167790761Y-57761238D01*
X167695523Y-57856476D01*
X167600285Y-57904095D01*
%TO.C,R2*%
X163902380Y-61888666D02*
X163426190Y-62222000D01*
X163902380Y-62460095D02*
X162902380Y-62460095D01*
X162902380Y-62079142D01*
X162950000Y-61983904D01*
X162997619Y-61936285D01*
X163092857Y-61888666D01*
X163235714Y-61888666D01*
X163330952Y-61936285D01*
X163378571Y-61983904D01*
X163426190Y-62079142D01*
X163426190Y-62460095D01*
X162997619Y-61507714D02*
X162950000Y-61460095D01*
X162902380Y-61364857D01*
X162902380Y-61126761D01*
X162950000Y-61031523D01*
X162997619Y-60983904D01*
X163092857Y-60936285D01*
X163188095Y-60936285D01*
X163330952Y-60983904D01*
X163902380Y-61555333D01*
X163902380Y-60936285D01*
%TO.C,U1*%
X156464095Y-69302380D02*
X156464095Y-70111904D01*
X156511714Y-70207142D01*
X156559333Y-70254761D01*
X156654571Y-70302380D01*
X156845047Y-70302380D01*
X156940285Y-70254761D01*
X156987904Y-70207142D01*
X157035523Y-70111904D01*
X157035523Y-69302380D01*
X158035523Y-70302380D02*
X157464095Y-70302380D01*
X157749809Y-70302380D02*
X157749809Y-69302380D01*
X157654571Y-69445238D01*
X157559333Y-69540476D01*
X157464095Y-69588095D01*
%TO.C,R8*%
X138771333Y-108910380D02*
X138438000Y-108434190D01*
X138199904Y-108910380D02*
X138199904Y-107910380D01*
X138580857Y-107910380D01*
X138676095Y-107958000D01*
X138723714Y-108005619D01*
X138771333Y-108100857D01*
X138771333Y-108243714D01*
X138723714Y-108338952D01*
X138676095Y-108386571D01*
X138580857Y-108434190D01*
X138199904Y-108434190D01*
X139342761Y-108338952D02*
X139247523Y-108291333D01*
X139199904Y-108243714D01*
X139152285Y-108148476D01*
X139152285Y-108100857D01*
X139199904Y-108005619D01*
X139247523Y-107958000D01*
X139342761Y-107910380D01*
X139533238Y-107910380D01*
X139628476Y-107958000D01*
X139676095Y-108005619D01*
X139723714Y-108100857D01*
X139723714Y-108148476D01*
X139676095Y-108243714D01*
X139628476Y-108291333D01*
X139533238Y-108338952D01*
X139342761Y-108338952D01*
X139247523Y-108386571D01*
X139199904Y-108434190D01*
X139152285Y-108529428D01*
X139152285Y-108719904D01*
X139199904Y-108815142D01*
X139247523Y-108862761D01*
X139342761Y-108910380D01*
X139533238Y-108910380D01*
X139628476Y-108862761D01*
X139676095Y-108815142D01*
X139723714Y-108719904D01*
X139723714Y-108529428D01*
X139676095Y-108434190D01*
X139628476Y-108386571D01*
X139533238Y-108338952D01*
%TO.C,R4*%
X132421333Y-54300380D02*
X132088000Y-53824190D01*
X131849904Y-54300380D02*
X131849904Y-53300380D01*
X132230857Y-53300380D01*
X132326095Y-53348000D01*
X132373714Y-53395619D01*
X132421333Y-53490857D01*
X132421333Y-53633714D01*
X132373714Y-53728952D01*
X132326095Y-53776571D01*
X132230857Y-53824190D01*
X131849904Y-53824190D01*
X133278476Y-53633714D02*
X133278476Y-54300380D01*
X133040380Y-53252761D02*
X132802285Y-53967047D01*
X133421333Y-53967047D01*
%TO.C,R5*%
X136993333Y-63698380D02*
X136660000Y-63222190D01*
X136421904Y-63698380D02*
X136421904Y-62698380D01*
X136802857Y-62698380D01*
X136898095Y-62746000D01*
X136945714Y-62793619D01*
X136993333Y-62888857D01*
X136993333Y-63031714D01*
X136945714Y-63126952D01*
X136898095Y-63174571D01*
X136802857Y-63222190D01*
X136421904Y-63222190D01*
X137898095Y-62698380D02*
X137421904Y-62698380D01*
X137374285Y-63174571D01*
X137421904Y-63126952D01*
X137517142Y-63079333D01*
X137755238Y-63079333D01*
X137850476Y-63126952D01*
X137898095Y-63174571D01*
X137945714Y-63269809D01*
X137945714Y-63507904D01*
X137898095Y-63603142D01*
X137850476Y-63650761D01*
X137755238Y-63698380D01*
X137517142Y-63698380D01*
X137421904Y-63650761D01*
X137374285Y-63603142D01*
%TO.C,R3*%
X136993333Y-71318380D02*
X136660000Y-70842190D01*
X136421904Y-71318380D02*
X136421904Y-70318380D01*
X136802857Y-70318380D01*
X136898095Y-70366000D01*
X136945714Y-70413619D01*
X136993333Y-70508857D01*
X136993333Y-70651714D01*
X136945714Y-70746952D01*
X136898095Y-70794571D01*
X136802857Y-70842190D01*
X136421904Y-70842190D01*
X137326666Y-70318380D02*
X137945714Y-70318380D01*
X137612380Y-70699333D01*
X137755238Y-70699333D01*
X137850476Y-70746952D01*
X137898095Y-70794571D01*
X137945714Y-70889809D01*
X137945714Y-71127904D01*
X137898095Y-71223142D01*
X137850476Y-71270761D01*
X137755238Y-71318380D01*
X137469523Y-71318380D01*
X137374285Y-71270761D01*
X137326666Y-71223142D01*
%TO.C,R1*%
X159330380Y-61888666D02*
X158854190Y-62222000D01*
X159330380Y-62460095D02*
X158330380Y-62460095D01*
X158330380Y-62079142D01*
X158378000Y-61983904D01*
X158425619Y-61936285D01*
X158520857Y-61888666D01*
X158663714Y-61888666D01*
X158758952Y-61936285D01*
X158806571Y-61983904D01*
X158854190Y-62079142D01*
X158854190Y-62460095D01*
X159330380Y-60936285D02*
X159330380Y-61507714D01*
X159330380Y-61222000D02*
X158330380Y-61222000D01*
X158473238Y-61317238D01*
X158568476Y-61412476D01*
X158616095Y-61507714D01*
%TO.C,C1*%
X134723142Y-50966666D02*
X134770761Y-51014285D01*
X134818380Y-51157142D01*
X134818380Y-51252380D01*
X134770761Y-51395238D01*
X134675523Y-51490476D01*
X134580285Y-51538095D01*
X134389809Y-51585714D01*
X134246952Y-51585714D01*
X134056476Y-51538095D01*
X133961238Y-51490476D01*
X133866000Y-51395238D01*
X133818380Y-51252380D01*
X133818380Y-51157142D01*
X133866000Y-51014285D01*
X133913619Y-50966666D01*
X134818380Y-50014285D02*
X134818380Y-50585714D01*
X134818380Y-50300000D02*
X133818380Y-50300000D01*
X133961238Y-50395238D01*
X134056476Y-50490476D01*
X134104095Y-50585714D01*
%TO.C,C3*%
X135977333Y-60301142D02*
X135929714Y-60348761D01*
X135786857Y-60396380D01*
X135691619Y-60396380D01*
X135548761Y-60348761D01*
X135453523Y-60253523D01*
X135405904Y-60158285D01*
X135358285Y-59967809D01*
X135358285Y-59824952D01*
X135405904Y-59634476D01*
X135453523Y-59539238D01*
X135548761Y-59444000D01*
X135691619Y-59396380D01*
X135786857Y-59396380D01*
X135929714Y-59444000D01*
X135977333Y-59491619D01*
X136310666Y-59396380D02*
X136929714Y-59396380D01*
X136596380Y-59777333D01*
X136739238Y-59777333D01*
X136834476Y-59824952D01*
X136882095Y-59872571D01*
X136929714Y-59967809D01*
X136929714Y-60205904D01*
X136882095Y-60301142D01*
X136834476Y-60348761D01*
X136739238Y-60396380D01*
X136453523Y-60396380D01*
X136358285Y-60348761D01*
X136310666Y-60301142D01*
%TO.C,C2*%
X135723333Y-58523142D02*
X135675714Y-58570761D01*
X135532857Y-58618380D01*
X135437619Y-58618380D01*
X135294761Y-58570761D01*
X135199523Y-58475523D01*
X135151904Y-58380285D01*
X135104285Y-58189809D01*
X135104285Y-58046952D01*
X135151904Y-57856476D01*
X135199523Y-57761238D01*
X135294761Y-57666000D01*
X135437619Y-57618380D01*
X135532857Y-57618380D01*
X135675714Y-57666000D01*
X135723333Y-57713619D01*
X136104285Y-57713619D02*
X136151904Y-57666000D01*
X136247142Y-57618380D01*
X136485238Y-57618380D01*
X136580476Y-57666000D01*
X136628095Y-57713619D01*
X136675714Y-57808857D01*
X136675714Y-57904095D01*
X136628095Y-58046952D01*
X136056666Y-58618380D01*
X136675714Y-58618380D01*
%TO.C,J3*%
X129814066Y-78853380D02*
X129814066Y-79567666D01*
X129766447Y-79710523D01*
X129671209Y-79805761D01*
X129528352Y-79853380D01*
X129433114Y-79853380D01*
X130195019Y-78853380D02*
X130814066Y-78853380D01*
X130480733Y-79234333D01*
X130623590Y-79234333D01*
X130718828Y-79281952D01*
X130766447Y-79329571D01*
X130814066Y-79424809D01*
X130814066Y-79662904D01*
X130766447Y-79758142D01*
X130718828Y-79805761D01*
X130623590Y-79853380D01*
X130337876Y-79853380D01*
X130242638Y-79805761D01*
X130195019Y-79758142D01*
%TD*%
M02*
